{
.appVersion = "1356";
DisplayStrings = (
"Tôi/space vô/space tình/space là/space th/ecircumflexacute ,/space hay/space quên/space g/odotbelow i/space v/ecircumflexgrave/space m/edotbelow ,/space ng/uhorn/ohorngrave i/space yêu/space nói/space tôi/space nghe/space tuy/space l/ohorngrave i/space tôi/space khó/space nghe./space Ch/abrevehookabove ng/space có/space gì./space Ph/ahookabove i/space ch/abreve ng/space l/ohornacute n/space khôn/space h/ohorn n/space hay/space càng/space ngu/space ng/ocircumflexacute c/space h/ohorn n",
"/acutecomb",
"/g.loop",
"MM/uni1E40"
);
classes = (
{
automatic = 1;

glyphs = (
{
glyphname = numbersign;
lastChange = "2021-05-20 10:17:24 +0000";
layers = (
{
layerId = "B8E2B95E-9E44-4943-9D49-9B6A251F446D";
paths = (
{
closed = 1;
nodes = (
"304 -81 OFFCURVE",
"307 -79 OFFCURVE",
"307 -75 CURVE SMOOTH",
"309 -47 OFFCURVE",
"313 -28 OFFCURVE",
"314 -20 CURVE SMOOTH",
"324 28 OFFCURVE",
"342 85 OFFCURVE",
"370 151 CURVE",
"532 155 LINE",
"506 91 OFFCURVE",
"488 32 OFFCURVE",
"477 -22 CURVE SMOOTH",
"472 -49 OFFCURVE",
"469 -67 OFFCURVE",
"471 -72 CURVE SMOOTH",
"473 -76 OFFCURVE",
"482 -81 OFFCURVE",
"489 -81 CURVE SMOOTH",
"493 -81 OFFCURVE",
"496 -79 OFFCURVE",
"496 -75 CURVE SMOOTH",
"498 -47 OFFCURVE",
"502 -28 OFFCURVE",
"503 -20 CURVE SMOOTH",
"513 29 OFFCURVE",
"532 88 OFFCURVE",
"561 156 CURVE",
"661 159 LINE SMOOTH",
"685 160 OFFCURVE",
"705 164 OFFCURVE",
"705 168 CURVE SMOOTH",
"705 171 OFFCURVE",
"692 174 OFFCURVE",
"661 175 CURVE SMOOTH",
"643 175 OFFCURVE",
"609 176 OFFCURVE",
"570 176 CURVE",
"588 216 OFFCURVE",
"609 259 OFFCURVE",
"635 304 CURVE",
"718 307 LINE SMOOTH",
"743 307 OFFCURVE",
"762 311 OFFCURVE",
"762 315 CURVE SMOOTH",
"762 318 OFFCURVE",
"750 322 OFFCURVE",
"718 322 CURVE SMOOTH",
"703 322 OFFCURVE",
"677 323 OFFCURVE",
"646 323 CURVE",
"662 349 OFFCURVE",
"678 377 OFFCURVE",
"697 406 CURVE SMOOTH",
"749 486 LINE",
"749 491 LINE SMOOTH",
"748 497 OFFCURVE",
"742 501 OFFCURVE",
"732 501 CURVE SMOOTH",
"730 501 OFFCURVE",
"729 501 OFFCURVE",
"728 501 CURVE",
"723 502 OFFCURVE",
"718 500 OFFCURVE",
"715 498 CURVE",
"688 459 OFFCURVE",
"668 428 OFFCURVE",
"658 407 CURVE SMOOTH",
"641 378 OFFCURVE",
"626 350 OFFCURVE",
"611 323 CURVE",
"564 323 OFFCURVE",
"510 322 OFFCURVE",
"457 322 CURVE",
"472 349 OFFCURVE",
"489 377 OFFCURVE",
"508 406 CURVE SMOOTH",
"560 486 LINE",
"560 491 LINE SMOOTH",
"559 497 OFFCURVE",
"553 501 OFFCURVE",
"543 501 CURVE SMOOTH",
"541 501 OFFCURVE",
"540 501 OFFCURVE",
"539 501 CURVE",
"534 502 OFFCURVE",
"529 500 OFFCURVE",
"526 498 CURVE",
"499 459 OFFCURVE",
"479 428 OFFCURVE",
"469 407 CURVE SMOOTH",
"452 378 OFFCURVE",
"436 349 OFFCURVE",
"421 321 CURVE",
"380 321 OFFCURVE",
"341 320 OFFCURVE",
"314 320 CURVE SMOOTH",
"273 319 OFFCURVE",
"257 311 OFFCURVE",
"257 305 CURVE SMOOTH",
"257 300 OFFCURVE",
"266 296 OFFCURVE",
"280 296 CURVE SMOOTH",
"321 296 OFFCURVE",
"364 296 OFFCURVE",
"408 297 CURVE",
"386 254 OFFCURVE",
"367 213 OFFCURVE",
"351 174 CURVE",
"314 174 OFFCURVE",
"281 173 OFFCURVE",
"257 173 CURVE SMOOTH",
"216 172 OFFCURVE",
"200 164 OFFCURVE",
"200 158 CURVE SMOOTH",
"200 153 OFFCURVE",
"208 149 OFFCURVE",
"222 149 CURVE SMOOTH",
"260 149 OFFCURVE",
"300 149 OFFCURVE",
"341 150 CURVE",
"316 88 OFFCURVE",
"298 30 OFFCURVE",
"288 -22 CURVE SMOOTH",
"283 -49 OFFCURVE",
"280 -67 OFFCURVE",
"282 -72 CURVE SMOOTH",
"284 -76 OFFCURVE",
"293 -81 OFFCURVE",
"300 -81 CURVE SMOOTH"
);
},
{
closed = 1;
nodes = (
"398 213 OFFCURVE",
"418 254 OFFCURVE",
"443 298 CURVE",
"496 299 OFFCURVE",
"549 301 OFFCURVE",
"600 303 CURVE",
"577 258 OFFCURVE",
"557 216 OFFCURVE",
"540 176 CURVE",
"490 176 OFFCURVE",
"433 175 OFFCURVE",
"380 175 CURVE"
);
}
);
width = 769;
},
{
layerId = "A14CB8BB-4075-44A2-8ACC-F29FBF19C8BE";
paths = (
{
closed = 1;
nodes = (
"305 -43 OFFCURVE",
"309 -25 OFFCURVE",
"311 -17 CURVE SMOOTH",
"320 29 OFFCURVE",
"337 84 OFFCURVE",
"364 147 CURVE",
"513 151 LINE",
"489 90 OFFCURVE",
"471 34 OFFCURVE",
"461 -17 CURVE SMOOTH",
"457 -35 OFFCURVE",
"455 -51 OFFCURVE",
"455 -60 CURVE SMOOTH",
"455 -64 OFFCURVE",
"455 -67 OFFCURVE",
"456 -69 CURVE SMOOTH",
"458 -75 OFFCURVE",
"469 -81 OFFCURVE",
"478 -81 CURVE SMOOTH",
"484 -81 OFFCURVE",
"490 -78 OFFCURVE",
"490 -70 CURVE SMOOTH",
"491 -43 OFFCURVE",
"495 -25 OFFCURVE",
"496 -17 CURVE SMOOTH",
"506 30 OFFCURVE",
"524 87 OFFCURVE",
"552 152 CURVE",
"647 155 LINE SMOOTH",
"674 156 OFFCURVE",
"695 164 OFFCURVE",
"695 169 CURVE SMOOTH",
"695 172 OFFCURVE",
"681 180 OFFCURVE",
"647 181 CURVE SMOOTH",
"630 181 OFFCURVE",
"600 181 OFFCURVE",
"565 181 CURVE",
"582 218 OFFCURVE",
"601 257 OFFCURVE",
"624 298 CURVE",
"703 300 LINE SMOOTH",
"731 301 OFFCURVE",
"751 309 OFFCURVE",
"751 313 CURVE SMOOTH",
"751 317 OFFCURVE",
"738 325 OFFCURVE",
"703 325 CURVE SMOOTH",
"690 325 OFFCURVE",
"667 326 OFFCURVE",
"641 326 CURVE",
"655 349 OFFCURVE",
"670 374 OFFCURVE",
"738 487 CURVE",
"737 497 OFFCURVE",
"727 501 OFFCURVE",
"717 501 CURVE SMOOTH",
"715 501 OFFCURVE",
"714 501 OFFCURVE",
"713 501 CURVE",
"707 502 OFFCURVE",
"701 499 OFFCURVE",
"696 497 CURVE",
"669 457 OFFCURVE",
"650 426 OFFCURVE",
"640 406 CURVE SMOOTH",
"624 378 OFFCURVE",
"609 352 OFFCURVE",
"595 326 CURVE",
"552 326 OFFCURVE",
"503 325 OFFCURVE",
"455 325 CURVE",
"468 349 OFFCURVE",
"484 374 OFFCURVE",
"553 487 CURVE",
"551 497 OFFCURVE",
"541 501 OFFCURVE",
"531 501 CURVE SMOOTH",
"529 501 OFFCURVE",
"528 501 OFFCURVE",
"527 501 CURVE",
"521 502 OFFCURVE",
"515 499 OFFCURVE",
"511 497 CURVE",
"484 457 OFFCURVE",
"465 426 OFFCURVE",
"454 406 CURVE SMOOTH",
"439 378 OFFCURVE",
"423 351 OFFCURVE",
"408 324 CURVE",
"369 324 OFFCURVE",
"332 324 OFFCURVE",
"306 323 CURVE SMOOTH",
"266 322 OFFCURVE",
"245 315 OFFCURVE",
"245 303 CURVE SMOOTH",
"245 299 OFFCURVE",
"248 295 OFFCURVE",
"252 294 CURVE SMOOTH",
"257 291 OFFCURVE",
"264 290 OFFCURVE",
"273 290 CURVE SMOOTH",
"310 290 OFFCURVE",
"350 290 OFFCURVE",
"390 290 CURVE",
"371 252 OFFCURVE",
"354 215 OFFCURVE",
"339 180 CURVE",
"304 179 OFFCURVE",
"273 179 OFFCURVE",
"250 179 CURVE SMOOTH",
"209 178 OFFCURVE",
"188 169 OFFCURVE",
"188 159 CURVE SMOOTH",
"188 155 OFFCURVE",
"191 151 OFFCURVE",
"195 149 CURVE SMOOTH",
"200 147 OFFCURVE",
"207 145 OFFCURVE",
"216 145 CURVE SMOOTH",
"251 145 OFFCURVE",
"287 145 OFFCURVE",
"325 146 CURVE",
"302 87 OFFCURVE",
"285 32 OFFCURVE",
"276 -17 CURVE SMOOTH",
"271 -42 OFFCURVE",
"267 -62 OFFCURVE",
"270 -69 CURVE SMOOTH",
"273 -75 OFFCURVE",
"283 -81 OFFCURVE",
"292 -81 CURVE SMOOTH",
"298 -81 OFFCURVE",
"304 -78 OFFCURVE",
"304 -70 CURVE SMOOTH"
);
},
{
closed = 1;
nodes = (
"395 215 OFFCURVE",
"413 252 OFFCURVE",
"436 292 CURVE",
"484 293 OFFCURVE",
"532 294 OFFCURVE",
"579 296 CURVE",
"558 256 OFFCURVE",
"540 218 OFFCURVE",
"525 181 CURVE",
"479 181 OFFCURVE",
"427 181 OFFCURVE",
"379 181 CURVE"
);
}
);
width = 769;
}
);
note = numbersign;
unicode = 0023;
},
{
glyphname = dollar;
lastChange = "2021-05-20 10:17:24 +0000";
layers = (
{
layerId = "B8E2B95E-9E44-4943-9D49-9B6A251F446D";
paths = (
{
closed = 1;
nodes = (
"188 -73 OFFCURVE",
"193 -50 OFFCURVE",
"199 -37 CURVE SMOOTH",
"206 -20 OFFCURVE",
"214 -2 OFFCURVE",
"227 19 CURVE",
"236 17 OFFCURVE",
"246 16 OFFCURVE",
"257 14 CURVE SMOOTH",
"316 8 OFFCURVE",
"419 42 OFFCURVE",
"439 108 CURVE SMOOTH",
"440 113 OFFCURVE",
"441 117 OFFCURVE",
"441 122 CURVE SMOOTH",
"441 165 OFFCURVE",
"394 208 OFFCURVE",
"370 234 CURVE",
"418 298 OFFCURVE",
"491 379 OFFCURVE",
"554 446 CURVE",
"575 441 OFFCURVE",
"584 430 OFFCURVE",
"584 417 CURVE SMOOTH",
"584 414 OFFCURVE",
"583 411 OFFCURVE",
"582 408 CURVE",
"580 396 OFFCURVE",
"564 379 OFFCURVE",
"538 359 CURVE SMOOTH",
"534 356 OFFCURVE",
"532 354 OFFCURVE",
"532 352 CURVE SMOOTH",
"532 350 OFFCURVE",
"535 349 OFFCURVE",
"539 349 CURVE SMOOTH",
"554 349 OFFCURVE",
"593 364 OFFCURVE",
"611 402 CURVE SMOOTH",
"614 409 OFFCURVE",
"616 416 OFFCURVE",
"616 424 CURVE SMOOTH",
"616 444 OFFCURVE",
"604 465 OFFCURVE",
"583 472 CURVE",
"602 491 OFFCURVE",
"616 505 OFFCURVE",
"619 510 CURVE",
"623 521 OFFCURVE",
"618 530 OFFCURVE",
"605 532 CURVE",
"598 532 OFFCURVE",
"574 510 OFFCURVE",
"544 479 CURVE",
"499 481 OFFCURVE",
"436 478 OFFCURVE",
"383 458 CURVE SMOOTH",
"305 430 OFFCURVE",
"261 382 OFFCURVE",
"261 342 CURVE SMOOTH",
"261 308 OFFCURVE",
"286 265 OFFCURVE",
"334 226 CURVE",
"289 164 OFFCURVE",
"247 101 OFFCURVE",
"216 48 CURVE",
"184 53 OFFCURVE",
"155 96 OFFCURVE",
"151 132 CURVE SMOOTH",
"150 144 OFFCURVE",
"145 151 OFFCURVE",
"141 151 CURVE SMOOTH",
"136 151 OFFCURVE",
"132 144 OFFCURVE",
"132 128 CURVE SMOOTH",
"132 82 OFFCURVE",
"166 37 OFFCURVE",
"206 25 CURVE",
"177 -27 OFFCURVE",
"163 -59 OFFCURVE",
"163 -69 CURVE SMOOTH",
"163 -72 OFFCURVE",
"165 -73 OFFCURVE",
"170 -73 CURVE SMOOTH"
);
},
{
closed = 1;
nodes = (
"252 43 OFFCURVE",
"246 43 OFFCURVE",
"240 44 CURVE",
"270 100 OFFCURVE",
"307 155 OFFCURVE",
"352 210 CURVE",
"393 177 OFFCURVE",
"420 150 OFFCURVE",
"420 125 CURVE SMOOTH",
"420 122 OFFCURVE",
"420 119 OFFCURVE",
"419 116 CURVE",
"408 63 OFFCURVE",
"315 43 OFFCURVE",
"260 43 CURVE SMOOTH"
);
},
{
closed = 1;
nodes = (
"321 285 OFFCURVE",
"306 319 OFFCURVE",
"306 345 CURVE SMOOTH",
"306 350 OFFCURVE",
"307 355 OFFCURVE",
"308 360 CURVE SMOOTH",
"318 390 OFFCURVE",
"349 416 OFFCURVE",
"401 433 CURVE SMOOTH",
"440 445 OFFCURVE",
"481 450 OFFCURVE",
"516 448 CURVE",
"458 389 OFFCURVE",
"403 322 OFFCURVE",
"352 251 CURVE"
);
}
);
width = 494;
},
{
layerId = "A14CB8BB-4075-44A2-8ACC-F29FBF19C8BE";
paths = (
{
closed = 1;
nodes = (
"186 -73 OFFCURVE",
"193 -66 OFFCURVE",
"197 -58 CURVE SMOOTH",
"201 -50 OFFCURVE",
"204 -42 OFFCURVE",
"207 -35 CURVE SMOOTH",
"214 -19 OFFCURVE",
"221 -2 OFFCURVE",
"232 17 CURVE",
"240 15 OFFCURVE",
"249 14 OFFCURVE",
"259 13 CURVE SMOOTH",
"317 6 OFFCURVE",
"423 40 OFFCURVE",
"442 109 CURVE SMOOTH",
"444 115 OFFCURVE",
"445 120 OFFCURVE",
"445 126 CURVE SMOOTH",
"445 145 OFFCURVE",
"435 165 OFFCURVE",
"423 182 CURVE SMOOTH",
"409 201 OFFCURVE",
"393 217 OFFCURVE",
"377 234 CURVE",
"423 296 OFFCURVE",
"492 373 OFFCURVE",
"552 437 CURVE",
"568 432 OFFCURVE",
"574 424 OFFCURVE",
"574 414 CURVE SMOOTH",
"574 412 OFFCURVE",
"574 409 OFFCURVE",
"573 406 CURVE SMOOTH",
"571 396 OFFCURVE",
"558 380 OFFCURVE",
"532 361 CURVE SMOOTH",
"526 357 OFFCURVE",
"524 353 OFFCURVE",
"524 350 CURVE SMOOTH",
"524 345 OFFCURVE",
"530 342 OFFCURVE",
"535 342 CURVE SMOOTH",
"540 342 OFFCURVE",
"547 344 OFFCURVE",
"553 346 CURVE SMOOTH",
"571 352 OFFCURVE",
"597 368 OFFCURVE",
"611 397 CURVE SMOOTH",
"615 404 OFFCURVE",
"616 412 OFFCURVE",
"616 420 CURVE SMOOTH",
"616 440 OFFCURVE",
"606 460 OFFCURVE",
"587 470 CURVE",
"604 486 OFFCURVE",
"616 498 OFFCURVE",
"619 503 CURVE",
"620 506 OFFCURVE",
"621 509 OFFCURVE",
"621 512 CURVE SMOOTH",
"621 523 OFFCURVE",
"614 530 OFFCURVE",
"601 532 CURVE SMOOTH",
"591 532 OFFCURVE",
"566 508 OFFCURVE",
"539 480 CURVE",
"494 482 OFFCURVE",
"433 478 OFFCURVE",
"381 459 CURVE SMOOTH",
"304 431 OFFCURVE",
"258 383 OFFCURVE",
"258 339 CURVE SMOOTH",
"258 305 OFFCURVE",
"283 263 OFFCURVE",
"328 225 CURVE",
"286 166 OFFCURVE",
"246 107 OFFCURVE",
"217 56 CURVE",
"190 63 OFFCURVE",
"164 101 OFFCURVE",
"160 134 CURVE SMOOTH",
"159 145 OFFCURVE",
"154 157 OFFCURVE",
"145 157 CURVE SMOOTH",
"140 157 OFFCURVE",
"132 150 OFFCURVE",
"132 130 CURVE SMOOTH",
"132 84 OFFCURVE",
"164 40 OFFCURVE",
"202 26 CURVE",
"180 -15 OFFCURVE",
"167 -44 OFFCURVE",
"164 -58 CURVE",
"161 -65 OFFCURVE",
"161 -73 OFFCURVE",
"174 -73 CURVE SMOOTH"
);
},
{
closed = 1;
nodes = (
"278 102 OFFCURVE",
"312 153 OFFCURVE",
"353 203 CURVE",
"397 168 OFFCURVE",
"419 142 OFFCURVE",
"413 119 CURVE SMOOTH",
"401 67 OFFCURVE",
"301 48 OFFCURVE",
"251 51 CURVE"
);
},
{
closed = 1;
nodes = (
"324 291 OFFCURVE",
"312 320 OFFCURVE",
"312 342 CURVE SMOOTH",
"312 347 OFFCURVE",
"313 352 OFFCURVE",
"314 356 CURVE SMOOTH",
"323 384 OFFCURVE",
"352 409 OFFCURVE",
"402 425 CURVE SMOOTH",
"436 436 OFFCURVE",
"471 440 OFFCURVE",
"502 440 CURVE",
"449 385 OFFCURVE",
"399 324 OFFCURVE",
"352 259 CURVE"
);
}
);
width = 494;
}
);
note = dollar;
unicode = 0024;
},
{
glyphname = percent;
lastChange = "2021-05-20 10:17:24 +0000";
layers = (
{
layerId = "B8E2B95E-9E44-4943-9D49-9B6A251F446D";
paths = (
{
closed = 1;
nodes = (
"204 87 OFFCURVE",
"343 207 OFFCURVE",
"445 298 CURVE SMOOTH",
"473 322 OFFCURVE",
"494 342 OFFCURVE",
"507 353 CURVE",
"508 355 OFFCURVE",
"510 356 OFFCURVE",
"511 357 CURVE",
"511 362 OFFCURVE",
"497 365 OFFCURVE",
"487 365 CURVE SMOOTH",
"486 365 OFFCURVE",
"484 365 OFFCURVE",
"483 365 CURVE SMOOTH",
"479 365 OFFCURVE",
"475 364 OFFCURVE",
"473 362 CURVE SMOOTH",
"453 346 LINE",
"424 336 OFFCURVE",
"394 333 OFFCURVE",
"362 333 CURVE SMOOTH",
"347 333 OFFCURVE",
"332 333 OFFCURVE",
"317 335 CURVE",
"318 339 OFFCURVE",
"318 342 OFFCURVE",
"318 346 CURVE SMOOTH",
"318 368 OFFCURVE",
"301 377 OFFCURVE",
"280 378 CURVE SMOOTH",
"260 378 OFFCURVE",
"227 371 OFFCURVE",
"205 359 CURVE",
"197 362 LINE",
"190 363 OFFCURVE",
"179 358 OFFCURVE",
"179 352 CURVE SMOOTH",
"179 350 OFFCURVE",
"180 348 OFFCURVE",
"183 346 CURVE SMOOTH",
"209 330 OFFCURVE",
"250 321 OFFCURVE",
"294 318 CURVE",
"266 277 OFFCURVE",
"191 232 OFFCURVE",
"163 227 CURVE SMOOTH",
"159 226 OFFCURVE",
"155 226 OFFCURVE",
"152 226 CURVE SMOOTH",
"140 226 OFFCURVE",
"136 231 OFFCURVE",
"136 237 CURVE SMOOTH",
"136 247 OFFCURVE",
"147 263 OFFCURVE",
"156 273 CURVE SMOOTH",
"167 285 OFFCURVE",
"198 312 OFFCURVE",
"207 306 CURVE",
"211 302 OFFCURVE",
"218 310 OFFCURVE",
"207 315 CURVE",
"207 317 OFFCURVE",
"188 326 OFFCURVE",
"184 326 CURVE",
"154 320 OFFCURVE",
"111 268 OFFCURVE",
"111 245 CURVE SMOOTH",
"111 228 OFFCURVE",
"122 213 OFFCURVE",
"146 213 CURVE SMOOTH",
"209 213 OFFCURVE",
"293 255 OFFCURVE",
"313 317 CURVE",
"355 316 OFFCURVE",
"397 320 OFFCURVE",
"431 326 CURVE",
"403 302 LINE SMOOTH",
"296 201 OFFCURVE",
"172 86 OFFCURVE",
"131 -27 CURVE",
"127 -34 OFFCURVE",
"140 -33 OFFCURVE",
"143 -28 CURVE SMOOTH"
);
},
{
closed = 1;
nodes = (
"409 -18 OFFCURVE",
"508 38 OFFCURVE",
"508 114 CURVE SMOOTH",
"508 137 OFFCURVE",
"492 146 OFFCURVE",
"471 146 CURVE SMOOTH",
"450 146 OFFCURVE",
"413 138 OFFCURVE",
"391 125 CURVE SMOOTH",
"384 121 OFFCURVE",
"381 114 OFFCURVE",
"381 108 CURVE SMOOTH",
"381 100 OFFCURVE",
"386 93 OFFCURVE",
"392 93 CURVE SMOOTH",
"394 93 OFFCURVE",
"397 94 OFFCURVE",
"400 97 CURVE SMOOTH",
"421 117 OFFCURVE",
"436 140 OFFCURVE",
"468 140 CURVE SMOOTH",
"484 140 OFFCURVE",
"496 132 OFFCURVE",
"496 117 CURVE SMOOTH",
"496 70 OFFCURVE",
"390 2 OFFCURVE",
"354 -4 CURVE SMOOTH",
"350 -5 OFFCURVE",
"346 -5 OFFCURVE",
"343 -5 CURVE SMOOTH",
"331 -5 OFFCURVE",
"327 0 OFFCURVE",
"327 6 CURVE SMOOTH",
"327 16 OFFCURVE",
"337 31 OFFCURVE",
"347 41 CURVE SMOOTH",
"358 54 OFFCURVE",
"388 81 OFFCURVE",
"398 75 CURVE",
"401 71 OFFCURVE",
"408 79 OFFCURVE",
"397 84 CURVE",
"397 86 OFFCURVE",
"379 95 OFFCURVE",
"374 95 CURVE",
"343 89 OFFCURVE",
"302 37 OFFCURVE",
"302 13 CURVE SMOOTH",
"302 -3 OFFCURVE",
"312 -18 OFFCURVE",
"336 -18 CURVE SMOOTH"
);
},
{
closed = 1;
nodes = (
"277 340 OFFCURVE",
"251 346 OFFCURVE",
"228 352 CURVE",
"238 362 OFFCURVE",
"255 371 OFFCURVE",
"278 371 CURVE SMOOTH",
"293 371 OFFCURVE",
"305 365 OFFCURVE",
"305 349 CURVE SMOOTH",
"305 345 OFFCURVE",
"304 341 OFFCURVE",
"303 337 CURVE"
);
}
);
width = 500;
},
{
layerId = "A14CB8BB-4075-44A2-8ACC-F29FBF19C8BE";
paths = (
{
closed = 1;
nodes = (
"144 -32 OFFCURVE",
"150 -30 OFFCURVE",
"152 -26 CURVE SMOOTH",
"182 30 OFFCURVE",
"230 87 OFFCURVE",
"284 141 CURVE SMOOTH",
"337 196 OFFCURVE",
"396 247 OFFCURVE",
"446 291 CURVE SMOOTH",
"507 346 LINE",
"508 347 LINE SMOOTH",
"510 348 OFFCURVE",
"511 349 OFFCURVE",
"512 351 CURVE",
"512 359 OFFCURVE",
"495 365 OFFCURVE",
"483 365 CURVE SMOOTH",
"477 365 OFFCURVE",
"471 365 OFFCURVE",
"467 361 CURVE SMOOTH",
"448 346 LINE",
"421 337 OFFCURVE",
"392 334 OFFCURVE",
"362 334 CURVE SMOOTH",
"349 334 OFFCURVE",
"336 334 OFFCURVE",
"324 335 CURVE",
"324 342 LINE SMOOTH",
"324 367 OFFCURVE",
"304 377 OFFCURVE",
"282 378 CURVE SMOOTH",
"262 378 OFFCURVE",
"230 371 OFFCURVE",
"208 360 CURVE",
"202 362 LINE SMOOTH",
"195 364 OFFCURVE",
"187 361 OFFCURVE",
"183 357 CURVE SMOOTH",
"180 355 OFFCURVE",
"178 351 OFFCURVE",
"178 348 CURVE SMOOTH",
"178 345 OFFCURVE",
"180 341 OFFCURVE",
"185 338 CURVE SMOOTH",
"209 322 OFFCURVE",
"246 314 OFFCURVE",
"286 310 CURVE",
"256 273 OFFCURVE",
"191 235 OFFCURVE",
"167 231 CURVE SMOOTH",
"162 230 OFFCURVE",
"158 230 OFFCURVE",
"156 230 CURVE SMOOTH",
"147 230 OFFCURVE",
"146 233 OFFCURVE",
"146 235 CURVE SMOOTH",
"146 243 OFFCURVE",
"155 257 OFFCURVE",
"164 267 CURVE SMOOTH",
"174 278 OFFCURVE",
"199 304 OFFCURVE",
"208 299 CURVE",
"212 295 OFFCURVE",
"219 297 OFFCURVE",
"220 302 CURVE",
"223 308 OFFCURVE",
"219 313 OFFCURVE",
"188 327 CURVE",
"162 322 OFFCURVE",
"129 288 OFFCURVE",
"116 263 CURVE SMOOTH",
"113 257 OFFCURVE",
"112 250 OFFCURVE",
"112 244 CURVE SMOOTH",
"112 225 OFFCURVE",
"124 207 OFFCURVE",
"151 207 CURVE SMOOTH",
"213 207 OFFCURVE",
"295 247 OFFCURVE",
"317 309 CURVE",
"351 308 OFFCURVE",
"384 311 OFFCURVE",
"413 315 CURVE",
"399 303 LINE SMOOTH",
"290 209 OFFCURVE",
"173 91 OFFCURVE",
"132 -20 CURVE",
"127 -29 OFFCURVE",
"136 -32 OFFCURVE",
"140 -32 CURVE SMOOTH"
);
},
{
closed = 1;
nodes = (
"409 -18 OFFCURVE",
"509 37 OFFCURVE",
"509 115 CURVE SMOOTH",
"509 142 OFFCURVE",
"490 152 OFFCURVE",
"468 152 CURVE SMOOTH",
"447 152 OFFCURVE",
"410 144 OFFCURVE",
"388 130 CURVE SMOOTH",
"379 125 OFFCURVE",
"375 117 OFFCURVE",
"375 110 CURVE SMOOTH",
"375 107 OFFCURVE",
"376 104 OFFCURVE",
"377 101 CURVE",
"375 102 OFFCURVE",
"374 102 OFFCURVE",
"373 102 CURVE SMOOTH",
"347 96 OFFCURVE",
"315 63 OFFCURVE",
"303 38 CURVE SMOOTH",
"300 31 OFFCURVE",
"298 24 OFFCURVE",
"298 17 CURVE SMOOTH",
"298 -2 OFFCURVE",
"309 -18 OFFCURVE",
"336 -18 CURVE SMOOTH"
);
},
{
closed = 1;
nodes = (
"334 2 OFFCURVE",
"332 8 OFFCURVE",
"332 10 CURVE SMOOTH",
"332 18 OFFCURVE",
"341 30 OFFCURVE",
"351 41 CURVE SMOOTH",
"361 52 OFFCURVE",
"384 77 OFFCURVE",
"394 73 CURVE",
"399 68 OFFCURVE",
"405 73 OFFCURVE",
"406 77 CURVE SMOOTH",
"408 82 OFFCURVE",
"404 88 OFFCURVE",
"396 91 CURVE",
"398 92 OFFCURVE",
"400 93 OFFCURVE",
"402 95 CURVE SMOOTH",
"417 110 LINE SMOOTH",
"431 124 OFFCURVE",
"444 136 OFFCURVE",
"465 136 CURVE SMOOTH",
"480 136 OFFCURVE",
"487 129 OFFCURVE",
"487 118 CURVE SMOOTH",
"487 77 OFFCURVE",
"389 11 OFFCURVE",
"353 5 CURVE SMOOTH"
);
},
{
closed = 1;
nodes = (
"280 341 OFFCURVE",
"260 345 OFFCURVE",
"241 350 CURVE",
"251 356 OFFCURVE",
"263 361 OFFCURVE",
"280 361 CURVE SMOOTH",
"293 361 OFFCURVE",
"300 357 OFFCURVE",
"301 348 CURVE",
"302 345 OFFCURVE",
"302 342 OFFCURVE",
"301 338 CURVE"
);
}
);
width = 500;
}
);
note = percent;
unicode = 0025;
},
{
glyphname = ampersand;
lastChange = "2021-05-20 10:17:24 +0000";
layers = (
{
layerId = "B8E2B95E-9E44-4943-9D49-9B6A251F446D";
paths = (
{
closed = 1;
nodes = (
"343 -37 OFFCURVE",
"433 -9 OFFCURVE",
"475 14 CURVE SMOOTH",
"549 53 OFFCURVE",
"609 122 OFFCURVE",
"609 190 CURVE SMOOTH",
"609 204 OFFCURVE",
"607 216 OFFCURVE",
"601 227 CURVE SMOOTH",
"599 231 OFFCURVE",
"596 233 OFFCURVE",
"593 233 CURVE SMOOTH",
"590 233 OFFCURVE",
"587 231 OFFCURVE",
"587 228 CURVE SMOOTH",
"587 228 OFFCURVE",
"588 227 OFFCURVE",
"588 226 CURVE",
"590 217 OFFCURVE",
"590 208 OFFCURVE",
"590 199 CURVE SMOOTH",
"590 71 OFFCURVE",
"391 -18 OFFCURVE",
"275 -18 CURVE SMOOTH",
"208 -18 OFFCURVE",
"183 8 OFFCURVE",
"183 42 CURVE SMOOTH",
"183 100 OFFCURVE",
"254 181 OFFCURVE",
"319 204 CURVE SMOOTH",
"355 216 OFFCURVE",
"371 231 OFFCURVE",
"371 240 CURVE SMOOTH",
"371 247 OFFCURVE",
"364 251 OFFCURVE",
"349 251 CURVE SMOOTH",
"338 251 OFFCURVE",
"322 249 OFFCURVE",
"304 243 CURVE",
"283 252 OFFCURVE",
"268 269 OFFCURVE",
"268 300 CURVE SMOOTH",
"268 345 OFFCURVE",
"291 434 OFFCURVE",
"507 486 CURVE SMOOTH",
"546 496 OFFCURVE",
"597 504 OFFCURVE",
"641 504 CURVE SMOOTH",
"697 504 OFFCURVE",
"744 491 OFFCURVE",
"744 450 CURVE SMOOTH",
"744 405 OFFCURVE",
"648 360 OFFCURVE",
"592 347 CURVE SMOOTH",
"582 345 OFFCURVE",
"577 341 OFFCURVE",
"577 338 CURVE SMOOTH",
"577 335 OFFCURVE",
"582 333 OFFCURVE",
"591 333 CURVE SMOOTH",
"596 333 OFFCURVE",
"602 334 OFFCURVE",
"609 335 CURVE SMOOTH",
"667 346 OFFCURVE",
"763 404 OFFCURVE",
"763 455 CURVE SMOOTH",
"763 510 OFFCURVE",
"685 532 OFFCURVE",
"603 532 CURVE SMOOTH",
"563 532 OFFCURVE",
"521 527 OFFCURVE",
"485 518 CURVE SMOOTH",
"379 493 OFFCURVE",
"238 420 OFFCURVE",
"238 321 CURVE SMOOTH",
"238 276 OFFCURVE",
"265 251 OFFCURVE",
"289 237 CURVE",
"288 237 LINE",
"225 213 OFFCURVE",
"140 133 OFFCURVE",
"140 62 CURVE SMOOTH",
"140 -13 OFFCURVE",
"199 -37 OFFCURVE",
"268 -37 CURVE SMOOTH"
);
},
{
closed = 1;
nodes = (
"377 102 OFFCURVE",
"379 105 OFFCURVE",
"379 110 CURVE SMOOTH",
"379 146 OFFCURVE",
"412 183 OFFCURVE",
"456 204 CURVE SMOOTH",
"531 240 OFFCURVE",
"688 251 OFFCURVE",
"781 266 CURVE SMOOTH",
"875 281 OFFCURVE",
"910 308 OFFCURVE",
"910 341 CURVE SMOOTH",
"910 364 OFFCURVE",
"883 384 OFFCURVE",
"863 384 CURVE SMOOTH",
"845 384 OFFCURVE",
"870 372 OFFCURVE",
"873 371 CURVE SMOOTH",
"883 366 OFFCURVE",
"885 357 OFFCURVE",
"885 351 CURVE SMOOTH",
"885 345 OFFCURVE",
"880 339 OFFCURVE",
"870 331 CURVE SMOOTH",
"772 263 OFFCURVE",
"577 285 OFFCURVE",
"463 246 CURVE SMOOTH",
"395 221 OFFCURVE",
"369 176 OFFCURVE",
"369 112 CURVE SMOOTH",
"369 105 OFFCURVE",
"372 102 OFFCURVE",
"374 102 CURVE SMOOTH"
);
}
);
width = 672;
},
{
layerId = "A14CB8BB-4075-44A2-8ACC-F29FBF19C8BE";
paths = (
{
closed = 1;
nodes = (
"346 -37 OFFCURVE",
"436 -9 OFFCURVE",
"478 14 CURVE SMOOTH",
"551 53 OFFCURVE",
"613 121 OFFCURVE",
"613 191 CURVE SMOOTH",
"613 205 OFFCURVE",
"611 218 OFFCURVE",
"604 230 CURVE SMOOTH",
"602 233 OFFCURVE",
"601 234 OFFCURVE",
"598 236 CURVE",
"602 236 OFFCURVE",
"606 237 OFFCURVE",
"611 238 CURVE SMOOTH",
"671 247 OFFCURVE",
"733 253 OFFCURVE",
"779 261 CURVE SMOOTH",
"871 276 OFFCURVE",
"910 302 OFFCURVE",
"910 339 CURVE SMOOTH",
"910 365 OFFCURVE",
"880 387 OFFCURVE",
"859 387 CURVE SMOOTH",
"850 387 OFFCURVE",
"847 384 OFFCURVE",
"847 381 CURVE SMOOTH",
"847 377 OFFCURVE",
"850 374 OFFCURVE",
"853 372 CURVE",
"857 368 OFFCURVE",
"864 365 OFFCURVE",
"867 364 CURVE SMOOTH",
"874 361 OFFCURVE",
"875 354 OFFCURVE",
"875 349 CURVE SMOOTH",
"875 346 OFFCURVE",
"873 341 OFFCURVE",
"863 334 CURVE SMOOTH",
"816 301 OFFCURVE",
"745 290 OFFCURVE",
"670 282 CURVE SMOOTH",
"560 271 LINE SMOOTH",
"524 267 OFFCURVE",
"491 261 OFFCURVE",
"462 251 CURVE SMOOTH",
"392 226 OFFCURVE",
"366 179 OFFCURVE",
"366 114 CURVE SMOOTH",
"366 107 OFFCURVE",
"369 100 OFFCURVE",
"376 100 CURVE SMOOTH",
"383 100 OFFCURVE",
"386 107 OFFCURVE",
"386 112 CURVE SMOOTH",
"386 145 OFFCURVE",
"416 180 OFFCURVE",
"459 200 CURVE SMOOTH",
"489 215 OFFCURVE",
"534 225 OFFCURVE",
"582 233 CURVE",
"581 231 OFFCURVE",
"581 228 OFFCURVE",
"582 225 CURVE SMOOTH",
"584 217 OFFCURVE",
"584 209 OFFCURVE",
"584 200 CURVE SMOOTH",
"584 79 OFFCURVE",
"393 -9 OFFCURVE",
"278 -9 CURVE SMOOTH",
"213 -9 OFFCURVE",
"192 16 OFFCURVE",
"192 46 CURVE SMOOTH",
"192 100 OFFCURVE",
"260 178 OFFCURVE",
"323 200 CURVE SMOOTH",
"353 210 OFFCURVE",
"371 223 OFFCURVE",
"376 233 CURVE SMOOTH",
"382 245 OFFCURVE",
"374 256 OFFCURVE",
"351 256 CURVE SMOOTH",
"340 256 OFFCURVE",
"325 254 OFFCURVE",
"307 248 CURVE",
"289 257 OFFCURVE",
"276 272 OFFCURVE",
"276 299 CURVE SMOOTH",
"276 340 OFFCURVE",
"297 426 OFFCURVE",
"508 477 CURVE SMOOTH",
"547 486 OFFCURVE",
"597 495 OFFCURVE",
"640 495 CURVE SMOOTH",
"693 495 OFFCURVE",
"731 482 OFFCURVE",
"736 451 CURVE SMOOTH",
"743 411 OFFCURVE",
"649 363 OFFCURVE",
"590 350 CURVE SMOOTH",
"584 349 OFFCURVE",
"579 347 OFFCURVE",
"576 344 CURVE SMOOTH",
"574 343 OFFCURVE",
"572 340 OFFCURVE",
"572 336 CURVE SMOOTH",
"572 335 OFFCURVE",
"572 333 OFFCURVE",
"573 332 CURVE SMOOTH",
"576 328 OFFCURVE",
"582 327 OFFCURVE",
"590 327 CURVE SMOOTH",
"595 327 OFFCURVE",
"602 327 OFFCURVE",
"609 329 CURVE SMOOTH",
"668 340 OFFCURVE",
"773 402 OFFCURVE",
"764 459 CURVE SMOOTH",
"755 513 OFFCURVE",
"679 532 OFFCURVE",
"602 532 CURVE SMOOTH",
"562 532 OFFCURVE",
"520 527 OFFCURVE",
"484 518 CURVE SMOOTH",
"380 493 OFFCURVE",
"237 421 OFFCURVE",
"237 320 CURVE SMOOTH",
"237 278 OFFCURVE",
"259 253 OFFCURVE",
"281 238 CURVE",
"218 210 OFFCURVE",
"140 135 OFFCURVE",
"140 66 CURVE SMOOTH",
"140 -13 OFFCURVE",
"202 -37 OFFCURVE",
"271 -37 CURVE SMOOTH"
);
}
);
width = 672;
}
);
note = ampersand;
unicode = 0026;
},
{
glyphname = parenleft;
lastChange = "2021-05-20 10:17:24 +0000";
layers = (
{
layerId = "B8E2B95E-9E44-4943-9D49-9B6A251F446D";
paths = (
{
closed = 1;
nodes = (
"257 -140 OFFCURVE",
"244 -125 OFFCURVE",
"243 -121 CURVE",
"228 -89 OFFCURVE",
"220 -55 OFFCURVE",
"220 -12 CURVE SMOOTH",
"220 24 OFFCURVE",
"226 65 OFFCURVE",
"236 115 CURVE SMOOTH",
"269 274 OFFCURVE",
"460 492 OFFCURVE",
"616 523 CURVE SMOOTH",
"624 525 OFFCURVE",
"627 528 OFFCURVE",
"627 530 CURVE SMOOTH",
"627 534 OFFCURVE",
"621 537 OFFCURVE",
"616 537 CURVE SMOOTH",
"616 537 OFFCURVE",
"615 537 OFFCURVE",
"615 537 CURVE SMOOTH",
"413 522 OFFCURVE",
"219 279 OFFCURVE",
"188 139 CURVE SMOOTH",
"180 105 OFFCURVE",
"177 72 OFFCURVE",
"177 42 CURVE SMOOTH",
"177 -52 OFFCURVE",
"209 -122 OFFCURVE",
"245 -136 CURVE SMOOTH"
);
}
);
width = 318;
},
{
layerId = "A14CB8BB-4075-44A2-8ACC-F29FBF19C8BE";
paths = (
{
closed = 1;
nodes = (
"251 -138 OFFCURVE",
"254 -138 OFFCURVE",
"256 -138 CURVE SMOOTH",
"259 -138 OFFCURVE",
"260 -136 OFFCURVE",
"260 -134 CURVE SMOOTH",
"260 -129 OFFCURVE",
"256 -122 OFFCURVE",
"253 -118 CURVE SMOOTH",
"252 -117 OFFCURVE",
"251 -116 OFFCURVE",
"251 -115 CURVE",
"235 -84 OFFCURVE",
"229 -51 OFFCURVE",
"229 -9 CURVE SMOOTH",
"229 26 OFFCURVE",
"234 66 OFFCURVE",
"244 115 CURVE SMOOTH",
"276 270 OFFCURVE",
"462 483 OFFCURVE",
"612 513 CURVE SMOOTH",
"624 516 OFFCURVE",
"627 521 OFFCURVE",
"627 525 CURVE SMOOTH",
"627 527 OFFCURVE",
"627 528 OFFCURVE",
"626 529 CURVE SMOOTH",
"623 535 OFFCURVE",
"616 537 OFFCURVE",
"610 537 CURVE SMOOTH",
"410 522 OFFCURVE",
"219 280 OFFCURVE",
"188 141 CURVE SMOOTH",
"180 107 OFFCURVE",
"177 74 OFFCURVE",
"177 44 CURVE SMOOTH",
"177 -48 OFFCURVE",
"208 -121 OFFCURVE",
"247 -136 CURVE SMOOTH"
);
}
);
width = 318;
}
);
note = parenleft;
unicode = 0028;
},
{
glyphname = parenright;
lastChange = "2021-05-20 10:17:24 +0000";
layers = (
{
layerId = "B8E2B95E-9E44-4943-9D49-9B6A251F446D";
paths = (
{
closed = 1;
nodes = (
"-8 -139 OFFCURVE",
"-7 -139 OFFCURVE",
"-7 -139 CURVE SMOOTH",
"195 -124 OFFCURVE",
"389 119 OFFCURVE",
"420 259 CURVE SMOOTH",
"428 293 OFFCURVE",
"431 326 OFFCURVE",
"431 356 CURVE SMOOTH",
"431 450 OFFCURVE",
"399 520 OFFCURVE",
"363 534 CURVE SMOOTH",
"351 538 OFFCURVE",
"364 523 OFFCURVE",
"365 519 CURVE",
"380 487 OFFCURVE",
"388 453 OFFCURVE",
"388 410 CURVE SMOOTH",
"388 374 OFFCURVE",
"382 333 OFFCURVE",
"372 283 CURVE SMOOTH",
"339 124 OFFCURVE",
"148 -94 OFFCURVE",
"-8 -125 CURVE SMOOTH",
"-16 -127 OFFCURVE",
"-19 -130 OFFCURVE",
"-19 -132 CURVE SMOOTH",
"-19 -136 OFFCURVE",
"-13 -139 OFFCURVE",
"-8 -139 CURVE SMOOTH"
);
}
);
width = 370;
},
{
layerId = "A14CB8BB-4075-44A2-8ACC-F29FBF19C8BE";
paths = (
{
closed = 1;
nodes = (
"190 -124 OFFCURVE",
"381 118 OFFCURVE",
"412 257 CURVE SMOOTH",
"420 291 OFFCURVE",
"423 324 OFFCURVE",
"423 354 CURVE SMOOTH",
"423 446 OFFCURVE",
"392 519 OFFCURVE",
"353 534 CURVE SMOOTH",
"349 536 OFFCURVE",
"346 536 OFFCURVE",
"344 536 CURVE SMOOTH",
"341 536 OFFCURVE",
"340 534 OFFCURVE",
"340 532 CURVE SMOOTH",
"340 527 OFFCURVE",
"344 520 OFFCURVE",
"347 516 CURVE SMOOTH",
"348 515 OFFCURVE",
"349 514 OFFCURVE",
"349 513 CURVE",
"365 482 OFFCURVE",
"371 449 OFFCURVE",
"371 407 CURVE SMOOTH",
"371 372 OFFCURVE",
"366 332 OFFCURVE",
"356 283 CURVE SMOOTH",
"324 128 OFFCURVE",
"138 -85 OFFCURVE",
"-12 -115 CURVE SMOOTH",
"-24 -118 OFFCURVE",
"-27 -123 OFFCURVE",
"-27 -127 CURVE SMOOTH",
"-27 -129 OFFCURVE",
"-27 -130 OFFCURVE",
"-26 -131 CURVE SMOOTH",
"-23 -137 OFFCURVE",
"-16 -139 OFFCURVE",
"-10 -139 CURVE SMOOTH"
);
}
);
width = 370;
}
);
note = parenright;
unicode = 0029;
},
{
glyphname = asterisk;
lastChange = "2021-05-20 10:17:24 +0000";
layers = (
{
layerId = "B8E2B95E-9E44-4943-9D49-9B6A251F446D";
paths = (
{
closed = 1;
nodes = (
"279 293 OFFCURVE",
"281 294 OFFCURVE",
"283 296 CURVE SMOOTH",
"394 417 LINE",
"450 298 LINE SMOOTH",
"452 293 OFFCURVE",
"456 293 OFFCURVE",
"460 294 CURVE SMOOTH",
"462 295 OFFCURVE",
"465 298 OFFCURVE",
"465 302 CURVE SMOOTH",
"465 302 OFFCURVE",
"464 303 OFFCURVE",
"464 304 CURVE",
"432 436 LINE",
"581 448 LINE SMOOTH",
"587 448 OFFCURVE",
"590 453 OFFCURVE",
"590 456 CURVE SMOOTH",
"590 459 OFFCURVE",
"587 463 OFFCURVE",
"583 464 CURVE",
"441 475 LINE",
"535 606 LINE SMOOTH",
"539 612 OFFCURVE",
"535 618 OFFCURVE",
"530 618 CURVE SMOOTH",
"527 618 OFFCURVE",
"525 617 OFFCURVE",
"523 615 CURVE SMOOTH",
"411 494 LINE",
"356 614 LINE SMOOTH",
"354 619 OFFCURVE",
"349 619 OFFCURVE",
"346 617 CURVE",
"343 616 OFFCURVE",
"340 612 OFFCURVE",
"342 608 CURVE",
"374 475 LINE",
"224 464 LINE",
"219 463 OFFCURVE",
"216 459 OFFCURVE",
"216 455 CURVE SMOOTH",
"216 452 OFFCURVE",
"219 448 OFFCURVE",
"223 448 CURVE SMOOTH",
"365 436 LINE",
"271 305 LINE SMOOTH",
"267 299 OFFCURVE",
"271 293 OFFCURVE",
"276 293 CURVE SMOOTH"
);
}
);
width = 500;
},
{
layerId = "A14CB8BB-4075-44A2-8ACC-F29FBF19C8BE";
paths = (
{
closed = 1;
nodes = (
"463 296 OFFCURVE",
"469 301 OFFCURVE",
"469 306 CURVE SMOOTH",
"469 308 OFFCURVE",
"469 309 OFFCURVE",
"468 310 CURVE",
"438 432 LINE",
"578 443 LINE SMOOTH",
"587 444 OFFCURVE",
"591 452 OFFCURVE",
"591 456 CURVE SMOOTH",
"591 462 OFFCURVE",
"586 467 OFFCURVE",
"580 469 CURVE",
"450 479 LINE",
"537 599 LINE SMOOTH",
"539 602 OFFCURVE",
"540 605 OFFCURVE",
"540 608 CURVE SMOOTH",
"540 614 OFFCURVE",
"534 618 OFFCURVE",
"527 618 CURVE SMOOTH",
"523 618 OFFCURVE",
"519 616 OFFCURVE",
"517 614 CURVE SMOOTH",
"413 501 LINE",
"363 611 LINE SMOOTH",
"360 616 OFFCURVE",
"356 618 OFFCURVE",
"352 618 CURVE SMOOTH",
"350 618 OFFCURVE",
"348 618 OFFCURVE",
"346 617 CURVE SMOOTH",
"343 615 OFFCURVE",
"339 611 OFFCURVE",
"339 606 CURVE SMOOTH",
"339 605 OFFCURVE",
"339 603 OFFCURVE",
"340 602 CURVE",
"370 479 LINE",
"229 469 LINE",
"222 467 OFFCURVE",
"217 462 OFFCURVE",
"217 455 CURVE SMOOTH",
"217 449 OFFCURVE",
"222 444 OFFCURVE",
"228 443 CURVE SMOOTH",
"358 432 LINE",
"271 312 LINE SMOOTH",
"269 309 OFFCURVE",
"268 306 OFFCURVE",
"268 303 CURVE SMOOTH",
"268 297 OFFCURVE",
"274 293 OFFCURVE",
"281 293 CURVE SMOOTH",
"285 293 OFFCURVE",
"289 295 OFFCURVE",
"291 297 CURVE SMOOTH",
"394 410 LINE",
"445 301 LINE SMOOTH",
"448 295 OFFCURVE",
"453 294 OFFCURVE",
"457 294 CURVE SMOOTH",
"458 294 OFFCURVE",
"460 294 OFFCURVE",
"461 294 CURVE"
);
}
);
width = 500;
}
);
note = asterisk;
unicode = 002A;
},
{
glyphname = plus;
lastChange = "2021-05-20 10:17:24 +0000";
layers = (
{
layerId = "B8E2B95E-9E44-4943-9D49-9B6A251F446D";
paths = (
{
closed = 1;
nodes = (
"248 10 OFFCURVE",
"254 15 OFFCURVE",
"254 16 CURVE",
"278 62 OFFCURVE",
"253 16 OFFCURVE",
"327 174 CURVE",
"389 177 OFFCURVE",
"419 178 OFFCURVE",
"455 178 CURVE SMOOTH",
"461 178 OFFCURVE",
"465 180 OFFCURVE",
"466 183 CURVE SMOOTH",
"466 184 OFFCURVE",
"465 185 OFFCURVE",
"462 186 CURVE SMOOTH",
"436 193 OFFCURVE",
"411 197 OFFCURVE",
"337 198 CURVE",
"371 281 OFFCURVE",
"373 294 OFFCURVE",
"384 325 CURVE",
"384 332 OFFCURVE",
"379 334 OFFCURVE",
"373 334 CURVE SMOOTH",
"362 334 OFFCURVE",
"346 326 OFFCURVE",
"344 320 CURVE SMOOTH",
"323 265 OFFCURVE",
"319 250 OFFCURVE",
"299 198 CURVE",
"230 197 OFFCURVE",
"210 195 OFFCURVE",
"183 191 CURVE",
"183 191 OFFCURVE",
"181 190 OFFCURVE",
"180 189 CURVE",
"180 185 OFFCURVE",
"183 180 OFFCURVE",
"188 174 CURVE SMOOTH",
"193 169 OFFCURVE",
"197 166 OFFCURVE",
"201 166 CURVE SMOOTH",
"218 166 OFFCURVE",
"274 172 OFFCURVE",
"290 173 CURVE",
"279 148 OFFCURVE",
"252 62 OFFCURVE",
"249 45 CURVE SMOOTH",
"248 38 OFFCURVE",
"245 24 OFFCURVE",
"245 16 CURVE SMOOTH",
"245 12 OFFCURVE",
"246 10 OFFCURVE",
"247 10 CURVE SMOOTH"
);
}
);
width = 377;
},
{
layerId = "A14CB8BB-4075-44A2-8ACC-F29FBF19C8BE";
paths = (
{
closed = 1;
nodes = (
"272 41 OFFCURVE",
"272 41 OFFCURVE",
"278 55 CURVE SMOOTH",
"284 68 OFFCURVE",
"295 95 OFFCURVE",
"330 169 CURVE",
"388 172 OFFCURVE",
"416 173 OFFCURVE",
"451 173 CURVE SMOOTH",
"457 173 OFFCURVE",
"464 175 OFFCURVE",
"466 182 CURVE",
"466 187 OFFCURVE",
"462 189 OFFCURVE",
"459 190 CURVE SMOOTH",
"434 197 OFFCURVE",
"410 201 OFFCURVE",
"344 202 CURVE",
"374 277 OFFCURVE",
"376 290 OFFCURVE",
"387 320 CURVE",
"387 330 OFFCURVE",
"380 334 OFFCURVE",
"372 334 CURVE SMOOTH",
"359 334 OFFCURVE",
"342 325 OFFCURVE",
"339 317 CURVE SMOOTH",
"319 265 OFFCURVE",
"315 250 OFFCURVE",
"296 202 CURVE",
"258 201 OFFCURVE",
"216 203 OFFCURVE",
"180 191 CURVE",
"180 183 OFFCURVE",
"184 176 OFFCURVE",
"189 171 CURVE SMOOTH",
"194 166 OFFCURVE",
"199 161 OFFCURVE",
"205 161 CURVE SMOOTH",
"219 161 OFFCURVE",
"263 166 OFFCURVE",
"284 168 CURVE",
"272 137 OFFCURVE",
"250 65 OFFCURVE",
"247 50 CURVE SMOOTH",
"246 44 OFFCURVE",
"244 33 OFFCURVE",
"244 26 CURVE SMOOTH",
"244 18 OFFCURVE",
"247 11 OFFCURVE",
"251 11 CURVE SMOOTH",
"254 11 OFFCURVE",
"257 13 OFFCURVE",
"261 19 CURVE"
);
}
);
width = 377;
}
);
note = plus;
unicode = 002B;
},
{
glyphname = comma;
lastChange = "2021-05-20 10:17:24 +0000";
layers = (
{
layerId = "B8E2B95E-9E44-4943-9D49-9B6A251F446D";
paths = (
{
closed = 1;
nodes = (
"206 -92 OFFCURVE",
"209 -91 OFFCURVE",
"212 -90 CURVE SMOOTH",
"245 -76 OFFCURVE",
"267 -33 OFFCURVE",
"282 -1 CURVE SMOOTH",
"288 11 OFFCURVE",
"291 22 OFFCURVE",
"291 30 CURVE SMOOTH",
"291 43 OFFCURVE",
"283 51 OFFCURVE",
"265 51 CURVE SMOOTH",
"244 51 OFFCURVE",
"225 37 OFFCURVE",
"225 16 CURVE SMOOTH",
"225 2 OFFCURVE",
"236 -11 OFFCURVE",
"249 -11 CURVE",
"241 -39 OFFCURVE",
"217 -69 OFFCURVE",
"209 -77 CURVE SMOOTH",
"203 -83 OFFCURVE",
"200 -87 OFFCURVE",
"200 -89 CURVE SMOOTH",
"200 -91 OFFCURVE",
"202 -92 OFFCURVE",
"204 -92 CURVE SMOOTH"
);
}
);
width = 306;
},
{
layerId = "A14CB8BB-4075-44A2-8ACC-F29FBF19C8BE";
paths = (
{
closed = 1;
nodes = (
"243 -76 OFFCURVE",
"263 -34 OFFCURVE",
"276 -4 CURVE SMOOTH",
"282 8 OFFCURVE",
"285 19 OFFCURVE",
"285 27 CURVE SMOOTH",
"285 42 OFFCURVE",
"276 51 OFFCURVE",
"258 51 CURVE SMOOTH",
"236 51 OFFCURVE",
"217 36 OFFCURVE",
"217 13 CURVE SMOOTH",
"217 0 OFFCURVE",
"225 -12 OFFCURVE",
"237 -16 CURVE",
"229 -39 OFFCURVE",
"210 -63 OFFCURVE",
"203 -70 CURVE SMOOTH",
"196 -78 OFFCURVE",
"195 -83 OFFCURVE",
"195 -86 CURVE SMOOTH",
"195 -87 OFFCURVE",
"195 -88 OFFCURVE",
"195 -89 CURVE",
"197 -92 OFFCURVE",
"203 -93 OFFCURVE",
"211 -90 CURVE SMOOTH"
);
}
);
width = 306;
}
);
note = comma;
unicode = 002C;
},
{
glyphname = hyphen;
lastChange = "2021-05-20 10:17:24 +0000";
layers = (
{
layerId = "B8E2B95E-9E44-4943-9D49-9B6A251F446D";
paths = (
{
closed = 1;
nodes = (
"297 168 OFFCURVE",
"383 174 OFFCURVE",
"452 178 CURVE SMOOTH",
"465 179 OFFCURVE",
"475 181 OFFCURVE",
"475 184 CURVE SMOOTH",
"475 186 OFFCURVE",
"468 189 OFFCURVE",
"452 193 CURVE SMOOTH",
"423 200 OFFCURVE",
"396 201 OFFCURVE",
"374 201 CURVE SMOOTH",
"355 201 OFFCURVE",
"339 200 OFFCURVE",
"325 200 CURVE SMOOTH",
"298 200 OFFCURVE",
"260 198 OFFCURVE",
"244 195 CURVE SMOOTH",
"222 190 OFFCURVE",
"213 181 OFFCURVE",
"213 175 CURVE SMOOTH",
"213 171 OFFCURVE",
"217 168 OFFCURVE",
"223 168 CURVE SMOOTH"
);
}
);
width = 512;
},
{
layerId = "A14CB8BB-4075-44A2-8ACC-F29FBF19C8BE";
paths = (
{
closed = 1;
nodes = (
"296 168 OFFCURVE",
"379 173 OFFCURVE",
"445 176 CURVE SMOOTH",
"466 177 OFFCURVE",
"482 179 OFFCURVE",
"482 183 CURVE SMOOTH",
"482 186 OFFCURVE",
"472 190 OFFCURVE",
"446 195 CURVE SMOOTH",
"418 200 OFFCURVE",
"391 201 OFFCURVE",
"370 201 CURVE SMOOTH",
"352 201 OFFCURVE",
"336 200 OFFCURVE",
"323 200 CURVE SMOOTH",
"297 200 OFFCURVE",
"260 199 OFFCURVE",
"244 196 CURVE SMOOTH",
"222 192 OFFCURVE",
"210 186 OFFCURVE",
"210 178 CURVE SMOOTH",
"210 172 OFFCURVE",
"217 168 OFFCURVE",
"224 168 CURVE SMOOTH"
);
}
);
width = 512;
}
);
note = hyphen;
unicode = 002D;
},
{
glyphname = period;
lastChange = "2021-05-20 10:17:24 +0000";
layers = (
{
layerId = "B8E2B95E-9E44-4943-9D49-9B6A251F446D";
paths = (
{
closed = 1;
nodes = (
"264 -10 OFFCURVE",
"280 -1 OFFCURVE",
"288 15 CURVE SMOOTH",
"292 23 OFFCURVE",
"294 30 OFFCURVE",
"294 36 CURVE SMOOTH",
"294 43 OFFCURVE",
"291 47 OFFCURVE",
"285 48 CURVE SMOOTH",
"268 50 OFFCURVE",
"241 44 OFFCURVE",
"234 26 CURVE SMOOTH",
"232 21 OFFCURVE",
"231 16 OFFCURVE",
"231 11 CURVE SMOOTH",
"231 -1 OFFCURVE",
"238 -10 OFFCURVE",
"251 -10 CURVE SMOOTH"
);
}
);
width = 315;
},
{
layerId = "A14CB8BB-4075-44A2-8ACC-F29FBF19C8BE";
paths = (
{
closed = 1;
nodes = (
"265 -10 OFFCURVE",
"280 -1 OFFCURVE",
"287 14 CURVE SMOOTH",
"291 21 OFFCURVE",
"293 28 OFFCURVE",
"293 34 CURVE SMOOTH",
"293 42 OFFCURVE",
"289 47 OFFCURVE",
"281 48 CURVE SMOOTH",
"263 50 OFFCURVE",
"230 42 OFFCURVE",
"230 12 CURVE SMOOTH",
"230 0 OFFCURVE",
"237 -10 OFFCURVE",
"252 -10 CURVE SMOOTH"
);
}
);
width = 315;
}
);
note = period;
unicode = 002E;
},
{
glyphname = slash;
lastChange = "2021-05-20 10:17:10 +0000";
layers = (
{
layerId = "B8E2B95E-9E44-4943-9D49-9B6A251F446D";
paths = (
{
closed = 1;
nodes = (
"133 -34 OFFCURVE",
"137 -32 OFFCURVE",
"139 -29 CURVE SMOOTH",
"155 -3 OFFCURVE",
"167 14 OFFCURVE",
"173 22 CURVE SMOOTH",
"245 118 OFFCURVE",
"372 246 OFFCURVE",
"575 403 CURVE SMOOTH",
"667 473 LINE SMOOTH",
"669 475 OFFCURVE",
"670 476 OFFCURVE",
"670 477 CURVE SMOOTH",
"672 485 OFFCURVE",
"666 490 OFFCURVE",
"653 490 CURVE",
"648 491 OFFCURVE",
"643 490 OFFCURVE",
"638 487 CURVE SMOOTH",
"591 454 OFFCURVE",
"557 427 OFFCURVE",
"535 408 CURVE SMOOTH",
"356 262 OFFCURVE",
"227 134 OFFCURVE",
"145 22 CURVE SMOOTH",
"126 -3 OFFCURVE",
"116 -19 OFFCURVE",
"115 -24 CURVE SMOOTH",
"114 -29 OFFCURVE",
"124 -34 OFFCURVE",
"129 -34 CURVE SMOOTH"
);
}
);
width = 449;
},
{
layerId = "A14CB8BB-4075-44A2-8ACC-F29FBF19C8BE";
paths = (
{
closed = 1;
nodes = (
"139 -34 OFFCURVE",
"145 -32 OFFCURVE",
"148 -27 CURVE SMOOTH",
"163 -2 OFFCURVE",
"175 15 OFFCURVE",
"181 23 CURVE SMOOTH",
"251 117 OFFCURVE",
"374 244 OFFCURVE",
"575 396 CURVE SMOOTH",
"665 465 LINE",
"667 466 OFFCURVE",
"670 469 OFFCURVE",
"670 472 CURVE SMOOTH",
"670 471 LINE SMOOTH",
"673 484 OFFCURVE",
"662 490 OFFCURVE",
"649 490 CURVE",
"643 491 OFFCURVE",
"637 490 OFFCURVE",
"631 486 CURVE SMOOTH",
"584 454 OFFCURVE",
"552 427 OFFCURVE",
"529 408 CURVE SMOOTH",
"354 264 OFFCURVE",
"227 139 OFFCURVE",
"145 29 CURVE SMOOTH",
"128 5 OFFCURVE",
"116 -12 OFFCURVE",
"115 -18 CURVE SMOOTH",
"114 -25 OFFCURVE",
"127 -34 OFFCURVE",
"134 -34 CURVE SMOOTH"
);
}
);
width = 449;
}
);
note = slash;
unicode = 002F;
},
{
glyphname = zero;
lastChange = "2021-05-20 10:17:24 +0000";
layers = (
{
layerId = "B8E2B95E-9E44-4943-9D49-9B6A251F446D";
paths = (
{
closed = 1;
nodes = (
"446 -59 OFFCURVE",
"673 112 OFFCURVE",
"712 284 CURVE SMOOTH",
"715 296 OFFCURVE",
"716 308 OFFCURVE",
"716 320 CURVE SMOOTH",
"716 372 OFFCURVE",
"688 416 OFFCURVE",
"606 416 CURVE SMOOTH",
"554 416 OFFCURVE",
"457 385 OFFCURVE",
"374 334 CURVE SMOOTH",
"310 292 OFFCURVE",
"252 227 OFFCURVE",
"275 227 CURVE SMOOTH",
"275 227 OFFCURVE",
"276 227 OFFCURVE",
"277 228 CURVE SMOOTH",
"307 264 OFFCURVE",
"378 318 OFFCURVE",
"400 331 CURVE SMOOTH",
"478 377 OFFCURVE",
"559 400 OFFCURVE",
"610 400 CURVE SMOOTH",
"665 400 OFFCURVE",
"681 377 OFFCURVE",
"681 340 CURVE SMOOTH",
"681 328 OFFCURVE",
"680 314 OFFCURVE",
"677 300 CURVE SMOOTH",
"648 151 OFFCURVE",
"417 -32 OFFCURVE",
"271 -32 CURVE SMOOTH",
"195 -32 OFFCURVE",
"163 16 OFFCURVE",
"163 70 CURVE SMOOTH",
"163 79 OFFCURVE",
"164 88 OFFCURVE",
"166 97 CURVE SMOOTH",
"206 293 OFFCURVE",
"415 437 OFFCURVE",
"596 456 CURVE",
"600 457 OFFCURVE",
"605 457 OFFCURVE",
"606 461 CURVE SMOOTH",
"607 467 OFFCURVE",
"594 468 OFFCURVE",
"572 468 CURVE SMOOTH",
"533 468 OFFCURVE",
"479 459 OFFCURVE",
"422 433 CURVE SMOOTH",
"361 408 OFFCURVE",
"311 379 OFFCURVE",
"272 349 CURVE",
"200 284 OFFCURVE",
"154 211 OFFCURVE",
"136 126 CURVE SMOOTH",
"133 111 OFFCURVE",
"132 97 OFFCURVE",
"132 84 CURVE SMOOTH",
"132 51 OFFCURVE",
"141 23 OFFCURVE",
"157 0 CURVE SMOOTH",
"179 -30 OFFCURVE",
"220 -49 OFFCURVE",
"262 -50 CURVE SMOOTH"
);
}
);
width = 590;
},
{
layerId = "A14CB8BB-4075-44A2-8ACC-F29FBF19C8BE";
paths = (
{
closed = 1;
nodes = (
"458 -50 OFFCURVE",
"674 114 OFFCURVE",
"712 281 CURVE SMOOTH",
"715 294 OFFCURVE",
"716 306 OFFCURVE",
"716 318 CURVE SMOOTH",
"716 372 OFFCURVE",
"686 417 OFFCURVE",
"603 417 CURVE SMOOTH",
"551 417 OFFCURVE",
"454 387 OFFCURVE",
"372 336 CURVE SMOOTH",
"321 303 OFFCURVE",
"272 253 OFFCURVE",
"269 234 CURVE",
"268 231 OFFCURVE",
"269 227 OFFCURVE",
"271 224 CURVE",
"275 221 OFFCURVE",
"280 220 OFFCURVE",
"283 225 CURVE",
"312 259 OFFCURVE",
"382 312 OFFCURVE",
"403 324 CURVE SMOOTH",
"479 369 OFFCURVE",
"558 391 OFFCURVE",
"607 391 CURVE SMOOTH",
"658 391 OFFCURVE",
"672 371 OFFCURVE",
"672 338 CURVE SMOOTH",
"672 326 OFFCURVE",
"671 313 OFFCURVE",
"668 299 CURVE SMOOTH",
"640 155 OFFCURVE",
"413 -23 OFFCURVE",
"272 -23 CURVE SMOOTH",
"202 -23 OFFCURVE",
"172 22 OFFCURVE",
"172 71 CURVE SMOOTH",
"172 80 OFFCURVE",
"173 89 OFFCURVE",
"175 98 CURVE SMOOTH",
"214 288 OFFCURVE",
"417 428 OFFCURVE",
"594 446 CURVE",
"596 447 OFFCURVE",
"599 447 OFFCURVE",
"601 448 CURVE SMOOTH",
"603 449 OFFCURVE",
"607 451 OFFCURVE",
"608 455 CURVE SMOOTH",
"609 461 OFFCURVE",
"595 468 OFFCURVE",
"570 468 CURVE SMOOTH",
"531 468 OFFCURVE",
"477 458 OFFCURVE",
"420 433 CURVE SMOOTH",
"361 408 OFFCURVE",
"309 382 OFFCURVE",
"271 350 CURVE SMOOTH",
"198 288 OFFCURVE",
"154 213 OFFCURVE",
"136 129 CURVE SMOOTH",
"133 114 OFFCURVE",
"132 99 OFFCURVE",
"132 86 CURVE SMOOTH",
"132 53 OFFCURVE",
"141 24 OFFCURVE",
"158 1 CURVE SMOOTH",
"182 -33 OFFCURVE",
"230 -50 OFFCURVE",
"278 -50 CURVE SMOOTH"
);
}
);
width = 590;
}
);
note = zero;
unicode = 0030;
},
{
glyphname = one;
lastChange = "2021-05-20 10:17:24 +0000";
layers = (
{
layerId = "B8E2B95E-9E44-4943-9D49-9B6A251F446D";
paths = (
{
closed = 1;
nodes = (
"54 -50 OFFCURVE",
"57 -49 OFFCURVE",
"60 -48 CURVE SMOOTH",
"150 -18 OFFCURVE",
"296 10 OFFCURVE",
"395 18 CURVE",
"403 17 OFFCURVE",
"400 29 OFFCURVE",
"392 29 CURVE",
"344 23 OFFCURVE",
"282 24 OFFCURVE",
"220 23 CURVE",
"278 152 OFFCURVE",
"365 317 OFFCURVE",
"448 430 CURVE",
"446 454 OFFCURVE",
"436 463 OFFCURVE",
"413 463 CURVE SMOOTH",
"409 463 OFFCURVE",
"407 463 OFFCURVE",
"406 462 CURVE SMOOTH",
"364 426 OFFCURVE",
"200 293 OFFCURVE",
"179 274 CURVE",
"173 266 OFFCURVE",
"170 263 OFFCURVE",
"170 258 CURVE SMOOTH",
"170 254 OFFCURVE",
"172 252 OFFCURVE",
"175 252 CURVE SMOOTH",
"179 252 OFFCURVE",
"185 254 OFFCURVE",
"191 260 CURVE",
"198 264 OFFCURVE",
"336 370 OFFCURVE",
"338 370 CURVE",
"301 282 OFFCURVE",
"250 130 OFFCURVE",
"199 30 CURVE",
"198 26 OFFCURVE",
"198 24 OFFCURVE",
"198 23 CURVE SMOOTH",
"198 22 LINE",
"148 20 OFFCURVE",
"98 14 OFFCURVE",
"60 2 CURVE SMOOTH",
"39 -5 OFFCURVE",
"31 -18 OFFCURVE",
"31 -29 CURVE SMOOTH",
"31 -40 OFFCURVE",
"39 -50 OFFCURVE",
"51 -50 CURVE SMOOTH"
);
}
);
width = 348;
},
{
layerId = "A14CB8BB-4075-44A2-8ACC-F29FBF19C8BE";
paths = (
{
closed = 1;
nodes = (
"153 -18 OFFCURVE",
"295 9 OFFCURVE",
"391 17 CURVE",
"397 16 OFFCURVE",
"401 21 OFFCURVE",
"401 25 CURVE SMOOTH",
"401 26 OFFCURVE",
"400 27 OFFCURVE",
"400 28 CURVE SMOOTH",
"399 32 OFFCURVE",
"395 37 OFFCURVE",
"388 37 CURVE",
"343 32 OFFCURVE",
"286 32 OFFCURVE",
"228 32 CURVE",
"285 157 OFFCURVE",
"368 314 OFFCURVE",
"448 424 CURVE",
"446 452 OFFCURVE",
"434 463 OFFCURVE",
"409 463 CURVE SMOOTH",
"403 463 OFFCURVE",
"400 462 OFFCURVE",
"399 461 CURVE SMOOTH",
"358 425 OFFCURVE",
"198 295 OFFCURVE",
"177 276 CURVE SMOOTH",
"173 272 OFFCURVE",
"171 269 OFFCURVE",
"170 266 CURVE",
"168 264 OFFCURVE",
"167 261 OFFCURVE",
"167 257 CURVE SMOOTH",
"167 251 OFFCURVE",
"170 246 OFFCURVE",
"177 246 CURVE SMOOTH",
"182 246 OFFCURVE",
"189 249 OFFCURVE",
"195 255 CURVE",
"198 257 OFFCURVE",
"208 264 OFFCURVE",
"220 274 CURVE SMOOTH",
"234 284 OFFCURVE",
"251 297 OFFCURVE",
"269 310 CURVE SMOOTH",
"291 327 OFFCURVE",
"313 345 OFFCURVE",
"325 354 CURVE",
"290 266 OFFCURVE",
"243 128 OFFCURVE",
"195 35 CURVE",
"195 33 OFFCURVE",
"195 32 OFFCURVE",
"194 30 CURVE",
"147 28 OFFCURVE",
"99 22 OFFCURVE",
"63 11 CURVE SMOOTH",
"41 3 OFFCURVE",
"31 -11 OFFCURVE",
"31 -24 CURVE SMOOTH",
"31 -39 OFFCURVE",
"41 -50 OFFCURVE",
"55 -50 CURVE SMOOTH",
"59 -50 OFFCURVE",
"62 -49 OFFCURVE",
"66 -48 CURVE SMOOTH"
);
}
);
width = 348;
}
);
note = one;
unicode = 0031;
},
{
glyphname = two;
lastChange = "2021-05-20 10:17:24 +0000";
layers = (
{
layerId = "B8E2B95E-9E44-4943-9D49-9B6A251F446D";
paths = (
{
closed = 1;
nodes = (
"659 -102 OFFCURVE",
"665 -98 OFFCURVE",
"669 -92 CURVE SMOOTH",
"690 -63 OFFCURVE",
"698 -40 OFFCURVE",
"698 -20 CURVE SMOOTH",
"698 24 OFFCURVE",
"657 47 OFFCURVE",
"627 53 CURVE SMOOTH",
"590 59 OFFCURVE",
"552 62 OFFCURVE",
"513 62 CURVE SMOOTH",
"423 62 OFFCURVE",
"330 48 OFFCURVE",
"238 31 CURVE",
"370 126 OFFCURVE",
"646 250 OFFCURVE",
"675 382 CURVE",
"682 448 OFFCURVE",
"624 463 OFFCURVE",
"564 463 CURVE SMOOTH",
"529 463 OFFCURVE",
"494 458 OFFCURVE",
"471 454 CURVE SMOOTH",
"350 431 OFFCURVE",
"285 365 OFFCURVE",
"272 350 CURVE",
"266 354 OFFCURVE",
"257 362 OFFCURVE",
"249 371 CURVE",
"246 374 OFFCURVE",
"243 375 OFFCURVE",
"240 375 CURVE SMOOTH",
"237 375 OFFCURVE",
"234 373 OFFCURVE",
"234 370 CURVE SMOOTH",
"234 368 OFFCURVE",
"235 366 OFFCURVE",
"238 364 CURVE SMOOTH",
"249 354 OFFCURVE",
"255 347 OFFCURVE",
"262 342 CURVE",
"252 334 OFFCURVE",
"249 319 OFFCURVE",
"246 308 CURVE SMOOTH",
"238 263 OFFCURVE",
"286 230 OFFCURVE",
"317 230 CURVE SMOOTH",
"331 230 OFFCURVE",
"342 237 OFFCURVE",
"342 252 CURVE SMOOTH",
"342 260 OFFCURVE",
"339 271 OFFCURVE",
"332 284 CURVE SMOOTH",
"323 301 OFFCURVE",
"308 317 OFFCURVE",
"292 331 CURVE",
"312 355 OFFCURVE",
"436 443 OFFCURVE",
"574 443 CURVE SMOOTH",
"611 443 OFFCURVE",
"631 430 OFFCURVE",
"631 403 CURVE SMOOTH",
"631 361 OFFCURVE",
"578 300 OFFCURVE",
"474 218 CURVE SMOOTH",
"404 161 OFFCURVE",
"346 118 OFFCURVE",
"282 82 CURVE SMOOTH",
"243 60 OFFCURVE",
"201 29 OFFCURVE",
"168 18 CURVE",
"122 10 LINE",
"107 5 OFFCURVE",
"102 -4 OFFCURVE",
"102 -13 CURVE SMOOTH",
"102 -23 OFFCURVE",
"110 -32 OFFCURVE",
"121 -32 CURVE SMOOTH",
"122 -32 OFFCURVE",
"123 -32 OFFCURVE",
"124 -32 CURVE",
"188 -15 OFFCURVE",
"382 28 OFFCURVE",
"522 28 CURVE SMOOTH",
"609 28 OFFCURVE",
"675 11 OFFCURVE",
"675 -39 CURVE SMOOTH",
"675 -54 OFFCURVE",
"669 -70 OFFCURVE",
"657 -91 CURVE SMOOTH",
"654 -95 OFFCURVE",
"653 -98 OFFCURVE",
"653 -100 CURVE SMOOTH",
"653 -101 OFFCURVE",
"654 -102 OFFCURVE",
"655 -102 CURVE SMOOTH"
);
},
{
closed = 1;
nodes = (
"310 253 OFFCURVE",
"306 255 OFFCURVE",
"300 260 CURVE",
"279 286 OFFCURVE",
"281 313 OFFCURVE",
"281 319 CURVE",
"298 305 OFFCURVE",
"306 295 OFFCURVE",
"315 280 CURVE",
"317 275 OFFCURVE",
"319 268 OFFCURVE",
"319 262 CURVE SMOOTH",
"319 257 OFFCURVE",
"317 253 OFFCURVE",
"313 253 CURVE SMOOTH"
);
}
);
width = 672;
},
{
layerId = "A14CB8BB-4075-44A2-8ACC-F29FBF19C8BE";
paths = (
{
closed = 1;
nodes = (
"660 -101 OFFCURVE",
"667 -96 OFFCURVE",
"671 -90 CURVE SMOOTH",
"691 -61 OFFCURVE",
"700 -38 OFFCURVE",
"700 -17 CURVE SMOOTH",
"700 30 OFFCURVE",
"657 55 OFFCURVE",
"626 60 CURVE SMOOTH",
"590 67 OFFCURVE",
"552 69 OFFCURVE",
"513 69 CURVE SMOOTH",
"432 69 OFFCURVE",
"348 57 OFFCURVE",
"264 42 CURVE",
"328 86 OFFCURVE",
"419 135 OFFCURVE",
"498 188 CURVE SMOOTH",
"586 246 OFFCURVE",
"663 310 OFFCURVE",
"677 378 CURVE",
"685 448 OFFCURVE",
"622 463 OFFCURVE",
"563 463 CURVE SMOOTH",
"529 463 OFFCURVE",
"494 458 OFFCURVE",
"471 454 CURVE SMOOTH",
"358 433 OFFCURVE",
"294 373 OFFCURVE",
"275 354 CURVE",
"270 358 OFFCURVE",
"263 364 OFFCURVE",
"257 371 CURVE",
"252 374 OFFCURVE",
"248 376 OFFCURVE",
"244 376 CURVE SMOOTH",
"238 376 OFFCURVE",
"234 372 OFFCURVE",
"234 367 CURVE SMOOTH",
"234 364 OFFCURVE",
"235 360 OFFCURVE",
"239 357 CURVE SMOOTH",
"245 352 OFFCURVE",
"249 348 OFFCURVE",
"253 345 CURVE SMOOTH",
"255 343 OFFCURVE",
"257 341 OFFCURVE",
"259 339 CURVE",
"251 330 OFFCURVE",
"249 318 OFFCURVE",
"246 307 CURVE SMOOTH",
"245 303 OFFCURVE",
"245 299 OFFCURVE",
"245 296 CURVE SMOOTH",
"245 253 OFFCURVE",
"291 224 OFFCURVE",
"320 224 CURVE SMOOTH",
"336 224 OFFCURVE",
"350 232 OFFCURVE",
"350 251 CURVE SMOOTH",
"350 260 OFFCURVE",
"346 271 OFFCURVE",
"339 285 CURVE SMOOTH",
"331 301 OFFCURVE",
"317 316 OFFCURVE",
"303 329 CURVE",
"329 355 OFFCURVE",
"445 434 OFFCURVE",
"573 434 CURVE SMOOTH",
"607 434 OFFCURVE",
"624 422 OFFCURVE",
"624 400 CURVE SMOOTH",
"624 361 OFFCURVE",
"574 303 OFFCURVE",
"472 221 CURVE SMOOTH",
"402 166 OFFCURVE",
"346 123 OFFCURVE",
"284 88 CURVE SMOOTH",
"264 77 OFFCURVE",
"244 64 OFFCURVE",
"225 52 CURVE SMOOTH",
"206 41 OFFCURVE",
"188 31 OFFCURVE",
"173 26 CURVE",
"127 18 LINE",
"111 12 OFFCURVE",
"104 1 OFFCURVE",
"104 -9 CURVE SMOOTH",
"104 -23 OFFCURVE",
"116 -35 OFFCURVE",
"132 -33 CURVE",
"195 -16 OFFCURVE",
"385 26 OFFCURVE",
"522 26 CURVE SMOOTH",
"609 26 OFFCURVE",
"668 8 OFFCURVE",
"668 -35 CURVE SMOOTH",
"668 -49 OFFCURVE",
"662 -64 OFFCURVE",
"651 -84 CURVE",
"648 -88 OFFCURVE",
"646 -92 OFFCURVE",
"646 -96 CURVE SMOOTH",
"646 -100 OFFCURVE",
"649 -102 OFFCURVE",
"653 -102 CURVE SMOOTH",
"654 -102 OFFCURVE",
"654 -102 OFFCURVE",
"655 -102 CURVE SMOOTH"
);
},
{
closed = 1;
nodes = (
"315 254 OFFCURVE",
"313 256 OFFCURVE",
"307 262 CURVE SMOOTH",
"297 275 OFFCURVE",
"291 290 OFFCURVE",
"290 306 CURVE",
"301 296 OFFCURVE",
"307 288 OFFCURVE",
"314 276 CURVE SMOOTH",
"316 271 OFFCURVE",
"317 267 OFFCURVE",
"317 263 CURVE SMOOTH",
"317 260 OFFCURVE",
"317 258 OFFCURVE",
"316 257 CURVE SMOOTH"
);
}
);
width = 672;
}
);
note = two;
unicode = 0032;
},
{
glyphname = three;
lastChange = "2021-05-20 10:17:24 +0000";
layers = (
{
layerId = "B8E2B95E-9E44-4943-9D49-9B6A251F446D";
paths = (
{
closed = 1;
nodes = (
"250 -76 OFFCURVE",
"308 -66 OFFCURVE",
"353 -52 CURVE SMOOTH",
"440 -23 OFFCURVE",
"595 77 OFFCURVE",
"595 186 CURVE SMOOTH",
"595 199 OFFCURVE",
"593 213 OFFCURVE",
"588 226 CURVE SMOOTH",
"571 269 OFFCURVE",
"515 277 OFFCURVE",
"468 276 CURVE",
"534 297 OFFCURVE",
"607 338 OFFCURVE",
"607 397 CURVE SMOOTH",
"607 425 OFFCURVE",
"579 446 OFFCURVE",
"551 450 CURVE SMOOTH",
"539 451 OFFCURVE",
"524 453 OFFCURVE",
"507 453 CURVE SMOOTH",
"452 453 OFFCURVE",
"380 440 OFFCURVE",
"326 386 CURVE SMOOTH",
"319 379 OFFCURVE",
"317 372 OFFCURVE",
"317 368 CURVE SMOOTH",
"317 364 OFFCURVE",
"318 362 OFFCURVE",
"321 362 CURVE SMOOTH",
"323 362 OFFCURVE",
"326 364 OFFCURVE",
"329 367 CURVE",
"357 401 OFFCURVE",
"413 421 OFFCURVE",
"476 421 CURVE SMOOTH",
"487 421 OFFCURVE",
"498 420 OFFCURVE",
"509 419 CURVE SMOOTH",
"533 417 OFFCURVE",
"550 404 OFFCURVE",
"550 385 CURVE SMOOTH",
"550 366 OFFCURVE",
"533 341 OFFCURVE",
"487 311 CURVE SMOOTH",
"449 286 OFFCURVE",
"432 280 OFFCURVE",
"403 278 CURVE",
"400 280 OFFCURVE",
"395 280 OFFCURVE",
"390 280 CURVE",
"384 282 OFFCURVE",
"379 282 OFFCURVE",
"377 283 CURVE",
"356 286 OFFCURVE",
"347 278 OFFCURVE",
"346 266 CURVE",
"344 259 OFFCURVE",
"348 256 OFFCURVE",
"355 256 CURVE",
"361 254 OFFCURVE",
"370 256 OFFCURVE",
"380 259 CURVE",
"391 260 OFFCURVE",
"401 262 OFFCURVE",
"440 269 CURVE SMOOTH",
"442 269 LINE SMOOTH",
"516 275 OFFCURVE",
"548 242 OFFCURVE",
"548 193 CURVE SMOOTH",
"548 136 OFFCURVE",
"480 18 OFFCURVE",
"310 -37 CURVE SMOOTH",
"272 -49 OFFCURVE",
"225 -60 OFFCURVE",
"186 -60 CURVE SMOOTH",
"136 -60 OFFCURVE",
"97 -43 OFFCURVE",
"97 6 CURVE SMOOTH",
"97 79 OFFCURVE",
"181 149 OFFCURVE",
"245 173 CURVE SMOOTH",
"251 176 OFFCURVE",
"254 180 OFFCURVE",
"254 183 CURVE SMOOTH",
"254 185 OFFCURVE",
"253 186 OFFCURVE",
"250 186 CURVE SMOOTH",
"248 186 OFFCURVE",
"246 186 OFFCURVE",
"244 185 CURVE SMOOTH",
"164 160 OFFCURVE",
"54 86 OFFCURVE",
"54 11 CURVE SMOOTH",
"54 -55 OFFCURVE",
"120 -76 OFFCURVE",
"197 -76 CURVE SMOOTH"
);
}
);
width = 540;
},
{
layerId = "A14CB8BB-4075-44A2-8ACC-F29FBF19C8BE";
paths = (
{
closed = 1;
nodes = (
"252 -76 OFFCURVE",
"310 -67 OFFCURVE",
"354 -52 CURVE SMOOTH",
"440 -24 OFFCURVE",
"595 75 OFFCURVE",
"595 186 CURVE SMOOTH",
"595 199 OFFCURVE",
"593 214 OFFCURVE",
"588 227 CURVE SMOOTH",
"573 264 OFFCURVE",
"532 276 OFFCURVE",
"493 279 CURVE",
"548 300 OFFCURVE",
"601 336 OFFCURVE",
"607 387 CURVE SMOOTH",
"611 421 OFFCURVE",
"579 446 OFFCURVE",
"548 450 CURVE SMOOTH",
"536 451 OFFCURVE",
"521 453 OFFCURVE",
"504 453 CURVE SMOOTH",
"449 453 OFFCURVE",
"376 441 OFFCURVE",
"323 386 CURVE SMOOTH",
"315 378 OFFCURVE",
"312 370 OFFCURVE",
"312 365 CURVE SMOOTH",
"312 358 OFFCURVE",
"316 354 OFFCURVE",
"321 354 CURVE SMOOTH",
"325 354 OFFCURVE",
"329 356 OFFCURVE",
"333 360 CURVE",
"359 392 OFFCURVE",
"412 412 OFFCURVE",
"473 412 CURVE SMOOTH",
"484 412 OFFCURVE",
"495 411 OFFCURVE",
"505 410 CURVE SMOOTH",
"528 408 OFFCURVE",
"541 396 OFFCURVE",
"541 381 CURVE SMOOTH",
"541 365 OFFCURVE",
"527 342 OFFCURVE",
"482 313 CURVE SMOOTH",
"445 289 OFFCURVE",
"429 283 OFFCURVE",
"403 281 CURVE",
"395 282 OFFCURVE",
"382 287 OFFCURVE",
"369 287 CURVE SMOOTH",
"352 287 OFFCURVE",
"344 279 OFFCURVE",
"341 265 CURVE SMOOTH",
"339 253 OFFCURVE",
"348 249 OFFCURVE",
"358 249 CURVE SMOOTH",
"366 249 OFFCURVE",
"375 251 OFFCURVE",
"380 253 CURVE",
"391 254 OFFCURVE",
"401 256 OFFCURVE",
"440 263 CURVE",
"512 263 OFFCURVE",
"539 237 OFFCURVE",
"539 193 CURVE SMOOTH",
"539 140 OFFCURVE",
"475 25 OFFCURVE",
"309 -28 CURVE SMOOTH",
"272 -40 OFFCURVE",
"226 -50 OFFCURVE",
"189 -50 CURVE SMOOTH",
"140 -50 OFFCURVE",
"106 -34 OFFCURVE",
"106 9 CURVE SMOOTH",
"106 78 OFFCURVE",
"186 145 OFFCURVE",
"248 169 CURVE SMOOTH",
"257 172 OFFCURVE",
"261 178 OFFCURVE",
"261 183 CURVE SMOOTH",
"261 187 OFFCURVE",
"257 191 OFFCURVE",
"251 191 CURVE SMOOTH",
"249 191 OFFCURVE",
"246 191 OFFCURVE",
"244 190 CURVE SMOOTH",
"166 165 OFFCURVE",
"54 92 OFFCURVE",
"54 14 CURVE SMOOTH",
"54 -56 OFFCURVE",
"124 -76 OFFCURVE",
"199 -76 CURVE SMOOTH"
);
}
);
width = 540;
}
);
note = three;
unicode = 0033;
},
{
glyphname = four;
lastChange = "2021-05-20 10:17:24 +0000";
layers = (
{
layerId = "B8E2B95E-9E44-4943-9D49-9B6A251F446D";
paths = (
{
closed = 1;
nodes = (
"280 -74 OFFCURVE",
"291 -65 OFFCURVE",
"297 -50 CURVE SMOOTH",
"317 -4 OFFCURVE",
"341 48 OFFCURVE",
"368 103 CURVE",
"382 102 OFFCURVE",
"396 102 OFFCURVE",
"411 102 CURVE SMOOTH",
"429 102 OFFCURVE",
"447 102 OFFCURVE",
"466 104 CURVE SMOOTH",
"571 116 OFFCURVE",
"665 161 OFFCURVE",
"695 262 CURVE SMOOTH",
"697 269 OFFCURVE",
"698 277 OFFCURVE",
"698 285 CURVE SMOOTH",
"698 307 OFFCURVE",
"690 328 OFFCURVE",
"671 335 CURVE",
"667 336 OFFCURVE",
"663 334 OFFCURVE",
"663 331 CURVE SMOOTH",
"663 329 OFFCURVE",
"664 327 OFFCURVE",
"668 324 CURVE SMOOTH",
"678 319 OFFCURVE",
"682 310 OFFCURVE",
"682 299 CURVE SMOOTH",
"682 288 OFFCURVE",
"678 276 OFFCURVE",
"674 263 CURVE SMOOTH",
"643 173 OFFCURVE",
"502 134 OFFCURVE",
"380 130 CURVE",
"436 245 OFFCURVE",
"502 364 OFFCURVE",
"567 448 CURVE",
"570 450 OFFCURVE",
"571 453 OFFCURVE",
"571 456 CURVE SMOOTH",
"571 470 OFFCURVE",
"541 486 OFFCURVE",
"530 486 CURVE SMOOTH",
"526 486 OFFCURVE",
"524 486 OFFCURVE",
"523 485 CURVE SMOOTH",
"441 400 OFFCURVE",
"235 216 OFFCURVE",
"165 158 CURVE",
"148 161 OFFCURVE",
"131 162 OFFCURVE",
"115 162 CURVE SMOOTH",
"94 162 OFFCURVE",
"75 159 OFFCURVE",
"58 150 CURVE SMOOTH",
"53 147 OFFCURVE",
"50 143 OFFCURVE",
"50 139 CURVE SMOOTH",
"50 126 OFFCURVE",
"75 110 OFFCURVE",
"106 110 CURVE SMOOTH",
"126 110 OFFCURVE",
"148 117 OFFCURVE",
"167 138 CURVE",
"213 131 OFFCURVE",
"272 114 OFFCURVE",
"339 106 CURVE",
"317 55 OFFCURVE",
"296 6 OFFCURVE",
"275 -38 CURVE SMOOTH",
"270 -51 OFFCURVE",
"267 -60 OFFCURVE",
"267 -66 CURVE SMOOTH",
"267 -72 OFFCURVE",
"270 -74 OFFCURVE",
"273 -74 CURVE SMOOTH"
);
},
{
closed = 1;
nodes = (
"319 128 OFFCURVE",
"289 131 OFFCURVE",
"265 136 CURVE SMOOTH",
"241 140 OFFCURVE",
"214 148 OFFCURVE",
"185 154 CURVE",
"220 184 OFFCURVE",
"389 310 OFFCURVE",
"453 373 CURVE",
"425 305 OFFCURVE",
"388 216 OFFCURVE",
"350 128 CURVE"
);
}
);
width = 475;
},
{
layerId = "A14CB8BB-4075-44A2-8ACC-F29FBF19C8BE";
paths = (
{
closed = 1;
nodes = (
"276 -74 OFFCURVE",
"287 -62 OFFCURVE",
"294 -47 CURVE SMOOTH",
"313 -3 OFFCURVE",
"336 47 OFFCURVE",
"362 100 CURVE",
"375 99 OFFCURVE",
"388 99 OFFCURVE",
"401 99 CURVE SMOOTH",
"419 99 OFFCURVE",
"437 99 OFFCURVE",
"456 101 CURVE SMOOTH",
"560 113 OFFCURVE",
"655 158 OFFCURVE",
"686 260 CURVE SMOOTH",
"688 267 OFFCURVE",
"689 276 OFFCURVE",
"689 284 CURVE SMOOTH",
"689 307 OFFCURVE",
"681 330 OFFCURVE",
"659 338 CURVE",
"651 339 OFFCURVE",
"642 335 OFFCURVE",
"642 329 CURVE SMOOTH",
"642 326 OFFCURVE",
"645 322 OFFCURVE",
"652 318 CURVE SMOOTH",
"660 314 OFFCURVE",
"663 307 OFFCURVE",
"663 297 CURVE SMOOTH",
"663 287 OFFCURVE",
"660 276 OFFCURVE",
"656 264 CURVE SMOOTH",
"627 180 OFFCURVE",
"497 142 OFFCURVE",
"379 137 CURVE",
"433 247 OFFCURVE",
"496 360 OFFCURVE",
"559 440 CURVE SMOOTH",
"562 444 OFFCURVE",
"564 447 OFFCURVE",
"564 451 CURVE SMOOTH",
"564 458 OFFCURVE",
"559 466 OFFCURVE",
"551 472 CURVE SMOOTH",
"541 480 OFFCURVE",
"527 486 OFFCURVE",
"519 486 CURVE SMOOTH",
"515 486 OFFCURVE",
"511 486 OFFCURVE",
"508 484 CURVE",
"428 401 OFFCURVE",
"228 223 OFFCURVE",
"158 164 CURVE",
"141 167 OFFCURVE",
"125 168 OFFCURVE",
"110 168 CURVE SMOOTH",
"89 168 OFFCURVE",
"69 165 OFFCURVE",
"52 155 CURVE SMOOTH",
"44 151 OFFCURVE",
"41 146 OFFCURVE",
"41 141 CURVE SMOOTH",
"41 134 OFFCURVE",
"45 128 OFFCURVE",
"51 123 CURVE SMOOTH",
"62 114 OFFCURVE",
"80 107 OFFCURVE",
"101 107 CURVE SMOOTH",
"121 107 OFFCURVE",
"144 114 OFFCURVE",
"163 134 CURVE",
"206 127 OFFCURVE",
"261 112 OFFCURVE",
"323 104 CURVE",
"303 56 OFFCURVE",
"282 10 OFFCURVE",
"263 -32 CURVE SMOOTH",
"257 -44 OFFCURVE",
"255 -54 OFFCURVE",
"255 -61 CURVE SMOOTH",
"255 -68 OFFCURVE",
"258 -74 OFFCURVE",
"266 -74 CURVE SMOOTH"
);
},
{
closed = 1;
nodes = (
"309 135 OFFCURVE",
"281 138 OFFCURVE",
"259 142 CURVE SMOOTH",
"238 146 OFFCURVE",
"215 152 OFFCURVE",
"190 158 CURVE",
"212 175 OFFCURVE",
"256 209 OFFCURVE",
"303 246 CURVE SMOOTH",
"349 282 OFFCURVE",
"397 321 OFFCURVE",
"430 351 CURVE",
"404 288 OFFCURVE",
"371 211 OFFCURVE",
"338 134 CURVE"
);
}
);
width = 475;
}
);
note = four;
unicode = 0034;
},
{
glyphname = five;
lastChange = "2021-05-20 10:17:24 +0000";
layers = (
{
layerId = "B8E2B95E-9E44-4943-9D49-9B6A251F446D";
paths = (
{
closed = 1;
nodes = (
"269 -60 OFFCURVE",
"327 -49 OFFCURVE",
"372 -35 CURVE SMOOTH",
"459 -7 OFFCURVE",
"614 93 OFFCURVE",
"614 202 CURVE SMOOTH",
"614 215 OFFCURVE",
"612 229 OFFCURVE",
"607 242 CURVE SMOOTH",
"591 282 OFFCURVE",
"544 295 OFFCURVE",
"495 295 CURVE SMOOTH",
"449 295 OFFCURVE",
"401 284 OFFCURVE",
"373 272 CURVE",
"378 283 OFFCURVE",
"382 294 OFFCURVE",
"385 299 CURVE SMOOTH",
"402 330 OFFCURVE",
"426 374 OFFCURVE",
"446 394 CURVE",
"523 418 OFFCURVE",
"644 432 OFFCURVE",
"695 433 CURVE SMOOTH",
"702 433 OFFCURVE",
"705 437 OFFCURVE",
"705 441 CURVE SMOOTH",
"705 444 OFFCURVE",
"703 447 OFFCURVE",
"697 448 CURVE",
"643 450 OFFCURVE",
"487 439 OFFCURVE",
"468 439 CURVE",
"462 443 OFFCURVE",
"451 447 OFFCURVE",
"443 447 CURVE SMOOTH",
"442 447 OFFCURVE",
"440 446 OFFCURVE",
"439 446 CURVE",
"430 449 OFFCURVE",
"389 427 OFFCURVE",
"388 415 CURVE",
"386 413 OFFCURVE",
"400 403 OFFCURVE",
"410 395 CURVE",
"372 347 OFFCURVE",
"347 307 OFFCURVE",
"329 271 CURVE SMOOTH",
"327 266 OFFCURVE",
"323 256 OFFCURVE",
"323 248 CURVE SMOOTH",
"323 243 OFFCURVE",
"324 240 OFFCURVE",
"329 239 CURVE SMOOTH",
"334 237 OFFCURVE",
"338 237 OFFCURVE",
"343 237 CURVE SMOOTH",
"349 237 OFFCURVE",
"355 239 OFFCURVE",
"361 246 CURVE",
"367 259 LINE",
"368 259 LINE SMOOTH",
"371 259 OFFCURVE",
"388 265 OFFCURVE",
"403 271 CURVE SMOOTH",
"426 279 OFFCURVE",
"454 285 OFFCURVE",
"480 285 CURVE SMOOTH",
"527 285 OFFCURVE",
"568 266 OFFCURVE",
"568 210 CURVE SMOOTH",
"568 152 OFFCURVE",
"499 35 OFFCURVE",
"329 -20 CURVE SMOOTH",
"291 -32 OFFCURVE",
"242 -43 OFFCURVE",
"200 -43 CURVE SMOOTH",
"147 -43 OFFCURVE",
"103 -26 OFFCURVE",
"103 23 CURVE SMOOTH",
"103 96 OFFCURVE",
"200 166 OFFCURVE",
"264 190 CURVE SMOOTH",
"270 193 OFFCURVE",
"273 197 OFFCURVE",
"273 199 CURVE SMOOTH",
"273 201 OFFCURVE",
"271 203 OFFCURVE",
"268 203 CURVE SMOOTH",
"267 203 OFFCURVE",
"265 203 OFFCURVE",
"263 202 CURVE SMOOTH",
"184 176 OFFCURVE",
"73 103 OFFCURVE",
"73 28 CURVE SMOOTH",
"73 -38 OFFCURVE",
"139 -60 OFFCURVE",
"216 -60 CURVE SMOOTH"
);
}
);
width = 504;
},
{
layerId = "A14CB8BB-4075-44A2-8ACC-F29FBF19C8BE";
paths = (
{
closed = 1;
nodes = (
"271 -60 OFFCURVE",
"329 -49 OFFCURVE",
"374 -35 CURVE SMOOTH",
"459 -8 OFFCURVE",
"615 91 OFFCURVE",
"615 202 CURVE SMOOTH",
"615 215 OFFCURVE",
"614 229 OFFCURVE",
"608 243 CURVE SMOOTH",
"591 285 OFFCURVE",
"542 298 OFFCURVE",
"493 298 CURVE SMOOTH",
"453 298 OFFCURVE",
"411 290 OFFCURVE",
"383 279 CURVE",
"385 286 OFFCURVE",
"388 291 OFFCURVE",
"389 295 CURVE",
"398 310 OFFCURVE",
"408 328 OFFCURVE",
"418 345 CURVE SMOOTH",
"428 362 OFFCURVE",
"439 376 OFFCURVE",
"448 386 CURVE",
"523 409 OFFCURVE",
"641 423 OFFCURVE",
"690 423 CURVE SMOOTH",
"701 424 OFFCURVE",
"707 430 OFFCURVE",
"707 436 CURVE SMOOTH",
"707 441 OFFCURVE",
"703 447 OFFCURVE",
"693 448 CURVE",
"640 450 OFFCURVE",
"492 440 OFFCURVE",
"468 439 CURVE",
"462 443 OFFCURVE",
"452 447 OFFCURVE",
"443 447 CURVE SMOOTH",
"441 447 OFFCURVE",
"440 446 OFFCURVE",
"438 446 CURVE",
"425 447 OFFCURVE",
"384 426 OFFCURVE",
"384 413 CURVE",
"383 410 OFFCURVE",
"385 404 OFFCURVE",
"391 399 CURVE",
"395 397 OFFCURVE",
"399 393 OFFCURVE",
"403 390 CURVE",
"367 345 OFFCURVE",
"343 307 OFFCURVE",
"326 272 CURVE SMOOTH",
"323 266 OFFCURVE",
"320 257 OFFCURVE",
"320 248 CURVE SMOOTH",
"320 241 OFFCURVE",
"322 234 OFFCURVE",
"329 233 CURVE SMOOTH",
"333 232 OFFCURVE",
"337 231 OFFCURVE",
"340 231 CURVE SMOOTH",
"350 231 OFFCURVE",
"360 236 OFFCURVE",
"371 253 CURVE",
"373 254 OFFCURVE",
"378 255 OFFCURVE",
"383 257 CURVE SMOOTH",
"389 259 OFFCURVE",
"397 262 OFFCURVE",
"404 265 CURVE SMOOTH",
"426 273 OFFCURVE",
"454 278 OFFCURVE",
"479 278 CURVE SMOOTH",
"524 278 OFFCURVE",
"560 261 OFFCURVE",
"560 210 CURVE SMOOTH",
"560 156 OFFCURVE",
"495 42 OFFCURVE",
"328 -11 CURVE SMOOTH",
"291 -23 OFFCURVE",
"244 -34 OFFCURVE",
"203 -34 CURVE SMOOTH",
"151 -34 OFFCURVE",
"112 -17 OFFCURVE",
"112 26 CURVE SMOOTH",
"112 94 OFFCURVE",
"205 161 OFFCURVE",
"268 186 CURVE SMOOTH",
"277 189 OFFCURVE",
"280 195 OFFCURVE",
"280 199 CURVE SMOOTH",
"280 204 OFFCURVE",
"277 208 OFFCURVE",
"270 208 CURVE SMOOTH",
"268 208 OFFCURVE",
"265 208 OFFCURVE",
"263 207 CURVE SMOOTH",
"186 181 OFFCURVE",
"73 109 OFFCURVE",
"73 31 CURVE SMOOTH",
"73 -39 OFFCURVE",
"143 -60 OFFCURVE",
"219 -60 CURVE SMOOTH"
);
}
);
width = 504;
}
);
note = five;
unicode = 0035;
},
{
glyphname = six;
lastChange = "2021-05-20 10:17:24 +0000";
layers = (
{
layerId = "B8E2B95E-9E44-4943-9D49-9B6A251F446D";
paths = (
{
closed = 1;
nodes = (
"314 -42 OFFCURVE",
"424 15 OFFCURVE",
"484 92 CURVE SMOOTH",
"506 118 OFFCURVE",
"519 154 OFFCURVE",
"519 184 CURVE SMOOTH",
"519 206 OFFCURVE",
"512 224 OFFCURVE",
"496 232 CURVE SMOOTH",
"487 237 OFFCURVE",
"471 241 OFFCURVE",
"450 241 CURVE SMOOTH",
"391 241 OFFCURVE",
"291 209 OFFCURVE",
"194 79 CURVE SMOOTH",
"192 76 OFFCURVE",
"198 72 OFFCURVE",
"208 77 CURVE",
"290 172 OFFCURVE",
"371 209 OFFCURVE",
"421 209 CURVE SMOOTH",
"452 209 OFFCURVE",
"471 195 OFFCURVE",
"471 172 CURVE SMOOTH",
"471 169 OFFCURVE",
"471 165 OFFCURVE",
"470 162 CURVE SMOOTH",
"453 90 OFFCURVE",
"315 -23 OFFCURVE",
"213 -23 CURVE SMOOTH",
"204 -23 OFFCURVE",
"196 -22 OFFCURVE",
"188 -20 CURVE SMOOTH",
"148 -12 OFFCURVE",
"134 23 OFFCURVE",
"134 61 CURVE SMOOTH",
"134 91 OFFCURVE",
"143 122 OFFCURVE",
"154 148 CURVE SMOOTH",
"206 258 OFFCURVE",
"413 443 OFFCURVE",
"578 464 CURVE SMOOTH",
"591 466 OFFCURVE",
"596 469 OFFCURVE",
"596 472 CURVE SMOOTH",
"596 475 OFFCURVE",
"590 478 OFFCURVE",
"583 478 CURVE SMOOTH",
"582 478 OFFCURVE",
"581 478 OFFCURVE",
"580 478 CURVE SMOOTH",
"386 449 OFFCURVE",
"95 249 OFFCURVE",
"95 82 CURVE SMOOTH",
"95 63 OFFCURVE",
"99 44 OFFCURVE",
"107 26 CURVE SMOOTH",
"129 -22 OFFCURVE",
"174 -42 OFFCURVE",
"226 -42 CURVE SMOOTH"
);
}
);
width = 468;
},
{
layerId = "A14CB8BB-4075-44A2-8ACC-F29FBF19C8BE";
paths = (
{
closed = 1;
nodes = (
"316 -42 OFFCURVE",
"425 15 OFFCURVE",
"485 91 CURVE SMOOTH",
"506 118 OFFCURVE",
"521 154 OFFCURVE",
"521 185 CURVE SMOOTH",
"521 207 OFFCURVE",
"513 227 OFFCURVE",
"495 236 CURVE SMOOTH",
"485 241 OFFCURVE",
"469 245 OFFCURVE",
"448 245 CURVE SMOOTH",
"388 245 OFFCURVE",
"289 213 OFFCURVE",
"193 85 CURVE SMOOTH",
"189 79 OFFCURVE",
"195 74 OFFCURVE",
"198 73 CURVE SMOOTH",
"202 72 OFFCURVE",
"207 72 OFFCURVE",
"214 76 CURVE",
"294 169 OFFCURVE",
"373 204 OFFCURVE",
"420 204 CURVE SMOOTH",
"448 204 OFFCURVE",
"464 192 OFFCURVE",
"464 172 CURVE SMOOTH",
"464 170 OFFCURVE",
"464 167 OFFCURVE",
"463 164 CURVE SMOOTH",
"447 96 OFFCURVE",
"312 -13 OFFCURVE",
"215 -13 CURVE SMOOTH",
"161 -13 OFFCURVE",
"143 21 OFFCURVE",
"143 64 CURVE SMOOTH",
"143 93 OFFCURVE",
"151 123 OFFCURVE",
"162 147 CURVE SMOOTH",
"212 254 OFFCURVE",
"414 434 OFFCURVE",
"574 454 CURVE SMOOTH",
"590 457 OFFCURVE",
"595 463 OFFCURVE",
"595 468 CURVE SMOOTH",
"595 469 OFFCURVE",
"595 469 OFFCURVE",
"595 470 CURVE SMOOTH",
"593 476 OFFCURVE",
"585 478 OFFCURVE",
"579 478 CURVE SMOOTH",
"577 478 OFFCURVE",
"576 478 OFFCURVE",
"575 478 CURVE SMOOTH",
"384 450 OFFCURVE",
"95 252 OFFCURVE",
"95 85 CURVE SMOOTH",
"95 65 OFFCURVE",
"99 46 OFFCURVE",
"107 28 CURVE SMOOTH",
"130 -22 OFFCURVE",
"176 -42 OFFCURVE",
"228 -42 CURVE SMOOTH"
);
}
);
width = 468;
}
);
note = six;
unicode = 0036;
},
{
glyphname = seven;
lastChange = "2021-05-20 10:17:24 +0000";
layers = (
{
layerId = "B8E2B95E-9E44-4943-9D49-9B6A251F446D";
paths = (
{
closed = 1;
nodes = (
"179 -97 OFFCURVE",
"181 -96 OFFCURVE",
"181 -95 CURVE SMOOTH",
"181 -92 OFFCURVE",
"172 -87 OFFCURVE",
"165 -83 CURVE SMOOTH",
"161 -80 OFFCURVE",
"158 -76 OFFCURVE",
"158 -69 CURVE SMOOTH",
"158 18 OFFCURVE",
"544 414 OFFCURVE",
"585 385 CURVE",
"598 378 OFFCURVE",
"610 374 OFFCURVE",
"616 374 CURVE SMOOTH",
"621 374 OFFCURVE",
"624 376 OFFCURVE",
"624 378 CURVE SMOOTH",
"624 382 OFFCURVE",
"617 388 OFFCURVE",
"603 394 CURVE",
"613 398 OFFCURVE",
"617 403 OFFCURVE",
"617 407 CURVE SMOOTH",
"617 412 OFFCURVE",
"610 416 OFFCURVE",
"600 416 CURVE SMOOTH",
"599 416 OFFCURVE",
"597 416 OFFCURVE",
"595 416 CURVE",
"570 409 LINE",
"510 426 LINE SMOOTH",
"467 441 OFFCURVE",
"405 453 OFFCURVE",
"342 453 CURVE SMOOTH",
"238 453 OFFCURVE",
"132 422 OFFCURVE",
"105 328 CURVE SMOOTH",
"104 325 OFFCURVE",
"104 323 OFFCURVE",
"104 320 CURVE SMOOTH",
"104 298 OFFCURVE",
"123 270 OFFCURVE",
"143 264 CURVE SMOOTH",
"147 263 OFFCURVE",
"157 266 OFFCURVE",
"157 271 CURVE SMOOTH",
"157 272 OFFCURVE",
"157 274 OFFCURVE",
"155 275 CURVE",
"148 278 OFFCURVE",
"145 285 OFFCURVE",
"145 293 CURVE SMOOTH",
"145 301 OFFCURVE",
"148 311 OFFCURVE",
"153 322 CURVE",
"177 397 OFFCURVE",
"301 428 OFFCURVE",
"402 428 CURVE SMOOTH",
"427 428 OFFCURVE",
"452 426 OFFCURVE",
"472 422 CURVE SMOOTH",
"498 419 OFFCURVE",
"525 410 OFFCURVE",
"552 401 CURVE",
"450 349 OFFCURVE",
"198 91 OFFCURVE",
"165 42 CURVE SMOOTH",
"138 3 OFFCURVE",
"126 -30 OFFCURVE",
"126 -54 CURVE SMOOTH",
"126 -82 OFFCURVE",
"144 -97 OFFCURVE",
"174 -97 CURVE SMOOTH"
);
}
);
width = 432;
},
{
layerId = "A14CB8BB-4075-44A2-8ACC-F29FBF19C8BE";
paths = (
{
closed = 1;
nodes = (
"186 -96 OFFCURVE",
"191 -94 OFFCURVE",
"191 -91 CURVE SMOOTH",
"191 -89 OFFCURVE",
"190 -88 OFFCURVE",
"189 -86 CURVE SMOOTH",
"187 -82 OFFCURVE",
"177 -77 OFFCURVE",
"172 -74 CURVE SMOOTH",
"168 -72 OFFCURVE",
"167 -68 OFFCURVE",
"167 -63 CURVE SMOOTH",
"167 -48 OFFCURVE",
"182 -22 OFFCURVE",
"205 11 CURVE SMOOTH",
"237 58 OFFCURVE",
"287 117 OFFCURVE",
"339 174 CURVE SMOOTH",
"448 291 OFFCURVE",
"562 389 OFFCURVE",
"579 377 CURVE",
"592 370 OFFCURVE",
"605 366 OFFCURVE",
"612 366 CURVE SMOOTH",
"621 366 OFFCURVE",
"625 370 OFFCURVE",
"625 374 CURVE SMOOTH",
"625 376 OFFCURVE",
"625 377 OFFCURVE",
"624 379 CURVE SMOOTH",
"622 383 OFFCURVE",
"617 387 OFFCURVE",
"611 390 CURVE",
"617 394 OFFCURVE",
"621 398 OFFCURVE",
"621 402 CURVE SMOOTH",
"621 408 OFFCURVE",
"612 413 OFFCURVE",
"595 413 CURVE SMOOTH",
"587 413 OFFCURVE",
"578 412 OFFCURVE",
"567 410 CURVE",
"492 431 OFFCURVE",
"423 453 OFFCURVE",
"343 453 CURVE SMOOTH",
"241 453 OFFCURVE",
"133 423 OFFCURVE",
"106 327 CURVE SMOOTH",
"105 324 OFFCURVE",
"105 321 OFFCURVE",
"105 317 CURVE SMOOTH",
"105 293 OFFCURVE",
"126 264 OFFCURVE",
"147 258 CURVE SMOOTH",
"151 257 OFFCURVE",
"157 258 OFFCURVE",
"161 261 CURVE",
"164 262 OFFCURVE",
"167 265 OFFCURVE",
"167 269 CURVE SMOOTH",
"167 272 OFFCURVE",
"166 274 OFFCURVE",
"163 277 CURVE",
"157 280 OFFCURVE",
"155 285 OFFCURVE",
"155 291 CURVE SMOOTH",
"155 299 OFFCURVE",
"159 308 OFFCURVE",
"163 318 CURVE",
"185 388 OFFCURVE",
"303 419 OFFCURVE",
"402 419 CURVE SMOOTH",
"427 419 OFFCURVE",
"451 416 OFFCURVE",
"470 413 CURVE SMOOTH",
"492 409 OFFCURVE",
"515 403 OFFCURVE",
"537 396 CURVE",
"431 334 OFFCURVE",
"198 94 OFFCURVE",
"166 47 CURVE SMOOTH",
"139 8 OFFCURVE",
"127 -25 OFFCURVE",
"127 -50 CURVE SMOOTH",
"127 -76 OFFCURVE",
"141 -93 OFFCURVE",
"165 -96 CURVE SMOOTH",
"174 -97 OFFCURVE",
"180 -97 OFFCURVE",
"184 -97 CURVE"
);
}
);
width = 432;
}
);
note = seven;
unicode = 0037;
},
{
glyphname = eight;
lastChange = "2021-05-20 10:17:24 +0000";
layers = (
{
layerId = "B8E2B95E-9E44-4943-9D49-9B6A251F446D";
paths = (
{
closed = 1;
nodes = (
"241 -17 OFFCURVE",
"289 -6 OFFCURVE",
"330 28 CURVE SMOOTH",
"366 59 OFFCURVE",
"383 96 OFFCURVE",
"383 139 CURVE SMOOTH",
"383 175 OFFCURVE",
"371 215 OFFCURVE",
"348 259 CURVE",
"349 265 OFFCURVE",
"378 288 OFFCURVE",
"439 328 CURVE SMOOTH",
"498 367 OFFCURVE",
"546 395 OFFCURVE",
"552 395 CURVE",
"564 376 OFFCURVE",
"563 368 OFFCURVE",
"564 365 CURVE",
"565 359 OFFCURVE",
"569 352 OFFCURVE",
"574 352 CURVE SMOOTH",
"577 352 OFFCURVE",
"581 357 OFFCURVE",
"581 372 CURVE SMOOTH",
"581 379 OFFCURVE",
"577 398 OFFCURVE",
"572 407 CURVE",
"582 409 OFFCURVE",
"598 420 OFFCURVE",
"624 434 CURVE SMOOTH",
"634 441 OFFCURVE",
"638 445 OFFCURVE",
"638 448 CURVE SMOOTH",
"638 451 OFFCURVE",
"636 452 OFFCURVE",
"632 452 CURVE SMOOTH",
"629 452 OFFCURVE",
"626 452 OFFCURVE",
"622 450 CURVE SMOOTH",
"605 443 OFFCURVE",
"605 443 OFFCURVE",
"563 421 CURVE",
"539 458 OFFCURVE",
"494 468 OFFCURVE",
"450 473 CURVE SMOOTH",
"442 474 OFFCURVE",
"433 474 OFFCURVE",
"426 474 CURVE SMOOTH",
"330 474 OFFCURVE",
"275 415 OFFCURVE",
"275 343 CURVE SMOOTH",
"275 319 OFFCURVE",
"281 286 OFFCURVE",
"295 258 CURVE",
"226 205 OFFCURVE",
"110 134 OFFCURVE",
"110 52 CURVE SMOOTH",
"110 5 OFFCURVE",
"143 -17 OFFCURVE",
"192 -17 CURVE SMOOTH"
);
},
{
closed = 1;
nodes = (
"173 -1 OFFCURVE",
"158 14 OFFCURVE",
"158 46 CURVE SMOOTH",
"158 72 OFFCURVE",
"166 103 OFFCURVE",
"204 148 CURVE SMOOTH",
"239 188 OFFCURVE",
"288 221 OFFCURVE",
"304 234 CURVE",
"320 205 OFFCURVE",
"335 168 OFFCURVE",
"338 149 CURVE SMOOTH",
"340 139 OFFCURVE",
"340 129 OFFCURVE",
"340 120 CURVE SMOOTH",
"340 46 OFFCURVE",
"288 -1 OFFCURVE",
"203 -1 CURVE SMOOTH"
);
},
{
closed = 1;
nodes = (
"322 314 OFFCURVE",
"313 338 OFFCURVE",
"313 355 CURVE SMOOTH",
"313 419 OFFCURVE",
"383 455 OFFCURVE",
"444 455 CURVE SMOOTH",
"492 455 OFFCURVE",
"538 424 OFFCURVE",
"546 406 CURVE",
"487 370 OFFCURVE",
"370 305 OFFCURVE",
"338 282 CURVE"
);
}
);
width = 444;
},
{
layerId = "A14CB8BB-4075-44A2-8ACC-F29FBF19C8BE";
paths = (
{
closed = 1;
nodes = (
"244 -17 OFFCURVE",
"293 -6 OFFCURVE",
"334 28 CURVE SMOOTH",
"371 59 OFFCURVE",
"388 97 OFFCURVE",
"388 141 CURVE SMOOTH",
"388 177 OFFCURVE",
"376 216 OFFCURVE",
"354 259 CURVE",
"358 264 OFFCURVE",
"384 285 OFFCURVE",
"440 322 CURVE SMOOTH",
"494 357 OFFCURVE",
"536 382 OFFCURVE",
"546 386 CURVE",
"551 379 OFFCURVE",
"553 373 OFFCURVE",
"554 370 CURVE SMOOTH",
"555 366 OFFCURVE",
"555 363 OFFCURVE",
"556 361 CURVE",
"556 355 OFFCURVE",
"562 345 OFFCURVE",
"569 345 CURVE SMOOTH",
"575 345 OFFCURVE",
"582 351 OFFCURVE",
"582 369 CURVE SMOOTH",
"582 375 OFFCURVE",
"579 390 OFFCURVE",
"575 400 CURVE",
"580 402 OFFCURVE",
"585 405 OFFCURVE",
"590 408 CURVE SMOOTH",
"599 412 OFFCURVE",
"609 418 OFFCURVE",
"622 426 CURVE SMOOTH",
"634 433 OFFCURVE",
"638 440 OFFCURVE",
"638 445 CURVE SMOOTH",
"638 446 OFFCURVE",
"638 447 OFFCURVE",
"637 448 CURVE",
"635 451 OFFCURVE",
"631 452 OFFCURVE",
"627 452 CURVE SMOOTH",
"623 452 OFFCURVE",
"619 451 OFFCURVE",
"616 450 CURVE SMOOTH",
"599 443 OFFCURVE",
"599 443 OFFCURVE",
"561 424 CURVE",
"536 459 OFFCURVE",
"491 469 OFFCURVE",
"449 473 CURVE SMOOTH",
"441 474 OFFCURVE",
"432 474 OFFCURVE",
"424 474 CURVE SMOOTH",
"329 474 OFFCURVE",
"272 415 OFFCURVE",
"272 341 CURVE SMOOTH",
"272 318 OFFCURVE",
"277 286 OFFCURVE",
"290 259 CURVE",
"274 247 OFFCURVE",
"256 233 OFFCURVE",
"237 219 CURVE SMOOTH",
"216 204 OFFCURVE",
"196 188 OFFCURVE",
"177 171 CURVE SMOOTH",
"140 137 OFFCURVE",
"110 98 OFFCURVE",
"110 56 CURVE SMOOTH",
"110 6 OFFCURVE",
"146 -17 OFFCURVE",
"195 -17 CURVE SMOOTH"
);
},
{
closed = 1;
nodes = (
"180 8 OFFCURVE",
"167 21 OFFCURVE",
"167 50 CURVE SMOOTH",
"167 74 OFFCURVE",
"174 103 OFFCURVE",
"211 146 CURVE SMOOTH",
"228 166 OFFCURVE",
"248 183 OFFCURVE",
"266 198 CURVE SMOOTH",
"281 210 OFFCURVE",
"295 220 OFFCURVE",
"304 226 CURVE",
"318 199 OFFCURVE",
"331 167 OFFCURVE",
"334 150 CURVE SMOOTH",
"335 140 OFFCURVE",
"336 131 OFFCURVE",
"336 122 CURVE SMOOTH",
"336 53 OFFCURVE",
"287 8 OFFCURVE",
"206 8 CURVE SMOOTH"
);
},
{
closed = 1;
nodes = (
"326 317 OFFCURVE",
"319 338 OFFCURVE",
"319 352 CURVE SMOOTH",
"319 411 OFFCURVE",
"384 446 OFFCURVE",
"443 446 CURVE SMOOTH",
"485 446 OFFCURVE",
"525 420 OFFCURVE",
"536 404 CURVE",
"480 370 OFFCURVE",
"377 313 OFFCURVE",
"341 288 CURVE"
);
}
);
width = 444;
}
);
note = eight;
unicode = 0038;
},
{
glyphname = nine;
lastChange = "2021-05-20 10:17:24 +0000";
layers = (
{
layerId = "B8E2B95E-9E44-4943-9D49-9B6A251F446D";
paths = (
{
closed = 1;
nodes = (
"106 -77 OFFCURVE",
"107 -77 OFFCURVE",
"108 -77 CURVE SMOOTH",
"291 -41 OFFCURVE",
"546 147 OFFCURVE",
"546 328 CURVE SMOOTH",
"546 334 OFFCURVE",
"546 341 OFFCURVE",
"545 347 CURVE SMOOTH",
"538 418 OFFCURVE",
"509 466 OFFCURVE",
"427 466 CURVE SMOOTH",
"314 466 OFFCURVE",
"135 349 OFFCURVE",
"135 225 CURVE SMOOTH",
"135 221 OFFCURVE",
"136 216 OFFCURVE",
"136 212 CURVE SMOOTH",
"138 188 OFFCURVE",
"152 167 OFFCURVE",
"178 157 CURVE SMOOTH",
"187 154 OFFCURVE",
"202 151 OFFCURVE",
"220 151 CURVE SMOOTH",
"276 151 OFFCURVE",
"369 176 OFFCURVE",
"454 278 CURVE",
"456 282 OFFCURVE",
"456 288 OFFCURVE",
"450 288 CURVE SMOOTH",
"450 288 OFFCURVE",
"449 288 OFFCURVE",
"448 288 CURVE",
"395 238 OFFCURVE",
"334 198 OFFCURVE",
"288 188 CURVE SMOOTH",
"272 184 OFFCURVE",
"259 183 OFFCURVE",
"247 183 CURVE SMOOTH",
"205 183 OFFCURVE",
"190 205 OFFCURVE",
"190 234 CURVE SMOOTH",
"190 265 OFFCURVE",
"207 303 OFFCURVE",
"230 332 CURVE SMOOTH",
"274 387 OFFCURVE",
"346 440 OFFCURVE",
"426 440 CURVE SMOOTH",
"485 440 OFFCURVE",
"503 400 OFFCURVE",
"503 355 CURVE SMOOTH",
"503 323 OFFCURVE",
"494 288 OFFCURVE",
"485 262 CURVE SMOOTH",
"446 148 OFFCURVE",
"272 -34 OFFCURVE",
"108 -64 CURVE SMOOTH",
"96 -66 OFFCURVE",
"91 -69 OFFCURVE",
"91 -71 CURVE SMOOTH",
"91 -74 OFFCURVE",
"97 -77 OFFCURVE",
"104 -77 CURVE SMOOTH"
);
}
);
width = 420;
},
{
layerId = "A14CB8BB-4075-44A2-8ACC-F29FBF19C8BE";
paths = (
{
closed = 1;
nodes = (
"283 -42 OFFCURVE",
"536 144 OFFCURVE",
"536 326 CURVE SMOOTH",
"536 332 OFFCURVE",
"536 339 OFFCURVE",
"535 345 CURVE SMOOTH",
"528 415 OFFCURVE",
"498 466 OFFCURVE",
"416 466 CURVE SMOOTH",
"305 466 OFFCURVE",
"124 350 OFFCURVE",
"124 224 CURVE SMOOTH",
"124 195 OFFCURVE",
"137 165 OFFCURVE",
"169 153 CURVE SMOOTH",
"179 150 OFFCURVE",
"194 147 OFFCURVE",
"212 147 CURVE SMOOTH",
"268 147 OFFCURVE",
"361 172 OFFCURVE",
"445 274 CURVE",
"446 276 OFFCURVE",
"447 279 OFFCURVE",
"447 282 CURVE SMOOTH",
"447 287 OFFCURVE",
"444 292 OFFCURVE",
"438 292 CURVE SMOOTH",
"436 292 OFFCURVE",
"435 291 OFFCURVE",
"433 291 CURVE",
"380 241 OFFCURVE",
"321 203 OFFCURVE",
"278 193 CURVE SMOOTH",
"262 189 OFFCURVE",
"250 188 OFFCURVE",
"239 188 CURVE SMOOTH",
"200 188 OFFCURVE",
"188 207 OFFCURVE",
"188 233 CURVE SMOOTH",
"188 262 OFFCURVE",
"204 299 OFFCURVE",
"226 326 CURVE SMOOTH",
"268 380 OFFCURVE",
"337 431 OFFCURVE",
"413 431 CURVE SMOOTH",
"468 431 OFFCURVE",
"484 396 OFFCURVE",
"484 352 CURVE SMOOTH",
"484 321 OFFCURVE",
"475 288 OFFCURVE",
"467 262 CURVE SMOOTH",
"429 152 OFFCURVE",
"260 -26 OFFCURVE",
"102 -54 CURVE SMOOTH",
"87 -57 OFFCURVE",
"82 -63 OFFCURVE",
"82 -68 CURVE SMOOTH",
"82 -69 OFFCURVE",
"82 -70 OFFCURVE",
"83 -71 CURVE SMOOTH",
"85 -76 OFFCURVE",
"92 -77 OFFCURVE",
"98 -77 CURVE SMOOTH",
"100 -77 OFFCURVE",
"101 -77 OFFCURVE",
"103 -77 CURVE SMOOTH"
);
}
);
width = 420;
}
);
note = nine;
unicode = 0039;
},
{
glyphname = colon;
lastChange = "2021-05-20 10:17:24 +0000";
layers = (
{
layerId = "B8E2B95E-9E44-4943-9D49-9B6A251F446D";
paths = (
{
closed = 1;
nodes = (
"234 -10 OFFCURVE",
"250 -1 OFFCURVE",
"258 15 CURVE SMOOTH",
"262 23 OFFCURVE",
"264 30 OFFCURVE",
"264 36 CURVE SMOOTH",
"264 43 OFFCURVE",
"261 47 OFFCURVE",
"255 48 CURVE SMOOTH",
"238 50 OFFCURVE",
"211 44 OFFCURVE",
"204 26 CURVE SMOOTH",
"202 21 OFFCURVE",
"201 16 OFFCURVE",
"201 11 CURVE SMOOTH",
"201 -1 OFFCURVE",
"208 -10 OFFCURVE",
"221 -10 CURVE SMOOTH"
);
},
{
closed = 1;
nodes = (
"337 262 OFFCURVE",
"353 271 OFFCURVE",
"361 287 CURVE SMOOTH",
"365 295 OFFCURVE",
"367 302 OFFCURVE",
"367 308 CURVE SMOOTH",
"367 315 OFFCURVE",
"364 319 OFFCURVE",
"358 320 CURVE SMOOTH",
"341 322 OFFCURVE",
"314 316 OFFCURVE",
"307 298 CURVE SMOOTH",
"305 293 OFFCURVE",
"304 288 OFFCURVE",
"304 283 CURVE SMOOTH",
"304 271 OFFCURVE",
"311 262 OFFCURVE",
"324 262 CURVE SMOOTH"
);
}
);
width = 294;
},
{
layerId = "A14CB8BB-4075-44A2-8ACC-F29FBF19C8BE";
paths = (
{
closed = 1;
nodes = (
"238 -10 OFFCURVE",
"254 0 OFFCURVE",
"263 17 CURVE SMOOTH",
"267 25 OFFCURVE",
"269 32 OFFCURVE",
"269 39 CURVE SMOOTH",
"269 48 OFFCURVE",
"264 55 OFFCURVE",
"256 56 CURVE SMOOTH",
"240 58 OFFCURVE",
"211 52 OFFCURVE",
"203 32 CURVE SMOOTH",
"201 27 OFFCURVE",
"200 21 OFFCURVE",
"200 16 CURVE SMOOTH",
"200 2 OFFCURVE",
"207 -10 OFFCURVE",
"223 -10 CURVE SMOOTH"
);
},
{
closed = 1;
nodes = (
"335 254 OFFCURVE",
"352 264 OFFCURVE",
"360 281 CURVE SMOOTH",
"364 289 OFFCURVE",
"366 297 OFFCURVE",
"366 303 CURVE SMOOTH",
"366 313 OFFCURVE",
"361 319 OFFCURVE",
"353 320 CURVE SMOOTH",
"333 322 OFFCURVE",
"297 313 OFFCURVE",
"297 280 CURVE SMOOTH",
"297 266 OFFCURVE",
"306 254 OFFCURVE",
"320 254 CURVE SMOOTH"
);
}
);
width = 294;
}
);
note = colon;
unicode = 003A;
},
{
glyphname = semicolon;
lastChange = "2021-05-20 10:17:24 +0000";
layers = (
{
layerId = "B8E2B95E-9E44-4943-9D49-9B6A251F446D";
paths = (
{
closed = 1;
nodes = (
"173 -92 OFFCURVE",
"176 -91 OFFCURVE",
"179 -90 CURVE SMOOTH",
"212 -76 OFFCURVE",
"234 -33 OFFCURVE",
"249 -1 CURVE SMOOTH",
"255 11 OFFCURVE",
"258 22 OFFCURVE",
"258 30 CURVE SMOOTH",
"258 43 OFFCURVE",
"250 51 OFFCURVE",
"232 51 CURVE SMOOTH",
"211 51 OFFCURVE",
"192 37 OFFCURVE",
"192 16 CURVE SMOOTH",
"192 2 OFFCURVE",
"203 -11 OFFCURVE",
"216 -11 CURVE",
"208 -39 OFFCURVE",
"184 -69 OFFCURVE",
"176 -77 CURVE SMOOTH",
"170 -83 OFFCURVE",
"167 -87 OFFCURVE",
"167 -89 CURVE SMOOTH",
"167 -91 OFFCURVE",
"169 -92 OFFCURVE",
"171 -92 CURVE SMOOTH"
);
},
{
closed = 1;
nodes = (
"342 262 OFFCURVE",
"358 271 OFFCURVE",
"366 287 CURVE SMOOTH",
"370 295 OFFCURVE",
"372 302 OFFCURVE",
"372 308 CURVE SMOOTH",
"372 315 OFFCURVE",
"369 319 OFFCURVE",
"363 320 CURVE SMOOTH",
"346 322 OFFCURVE",
"319 316 OFFCURVE",
"312 298 CURVE SMOOTH",
"310 293 OFFCURVE",
"309 288 OFFCURVE",
"309 283 CURVE SMOOTH",
"309 271 OFFCURVE",
"316 262 OFFCURVE",
"329 262 CURVE SMOOTH"
);
}
);
width = 294;
},
{
layerId = "A14CB8BB-4075-44A2-8ACC-F29FBF19C8BE";
paths = (
{
closed = 1;
nodes = (
"212 -75 OFFCURVE",
"234 -31 OFFCURVE",
"248 0 CURVE SMOOTH",
"254 13 OFFCURVE",
"257 24 OFFCURVE",
"257 32 CURVE SMOOTH",
"257 48 OFFCURVE",
"247 57 OFFCURVE",
"227 57 CURVE SMOOTH",
"205 57 OFFCURVE",
"185 41 OFFCURVE",
"185 19 CURVE SMOOTH",
"185 5 OFFCURVE",
"194 -9 OFFCURVE",
"206 -12 CURVE",
"198 -37 OFFCURVE",
"178 -62 OFFCURVE",
"171 -69 CURVE SMOOTH",
"163 -77 OFFCURVE",
"162 -82 OFFCURVE",
"162 -86 CURVE SMOOTH",
"162 -87 OFFCURVE",
"162 -88 OFFCURVE",
"162 -89 CURVE",
"163 -91 OFFCURVE",
"166 -92 OFFCURVE",
"170 -92 CURVE SMOOTH",
"172 -92 OFFCURVE",
"176 -91 OFFCURVE",
"179 -90 CURVE SMOOTH"
);
},
{
closed = 1;
nodes = (
"336 254 OFFCURVE",
"351 265 OFFCURVE",
"360 281 CURVE SMOOTH",
"364 289 OFFCURVE",
"366 296 OFFCURVE",
"366 303 CURVE SMOOTH",
"366 312 OFFCURVE",
"361 319 OFFCURVE",
"353 320 CURVE SMOOTH",
"337 322 OFFCURVE",
"308 316 OFFCURVE",
"300 296 CURVE SMOOTH",
"298 290 OFFCURVE",
"297 284 OFFCURVE",
"297 279 CURVE SMOOTH",
"297 264 OFFCURVE",
"305 254 OFFCURVE",
"321 254 CURVE SMOOTH"
);
}
);
width = 294;
}
);
note = semicolon;
unicode = 003B;
},
{
glyphname = less;
lastChange = "2021-05-20 10:17:24 +0000";
layers = (
{
layerId = "B8E2B95E-9E44-4943-9D49-9B6A251F446D";
paths = (
{
closed = 1;
nodes = (
"279 53 OFFCURVE",
"282 63 OFFCURVE",
"282 74 CURVE SMOOTH",
"282 80 OFFCURVE",
"281 87 OFFCURVE",
"279 93 CURVE SMOOTH",
"276 100 OFFCURVE",
"229 162 OFFCURVE",
"196 244 CURVE",
"216 275 OFFCURVE",
"327 378 OFFCURVE",
"360 407 CURVE SMOOTH",
"363 410 OFFCURVE",
"364 413 OFFCURVE",
"364 416 CURVE SMOOTH",
"364 420 OFFCURVE",
"361 424 OFFCURVE",
"355 424 CURVE SMOOTH",
"350 424 OFFCURVE",
"343 421 OFFCURVE",
"334 414 CURVE SMOOTH",
"315 398 OFFCURVE",
"272 365 OFFCURVE",
"225 322 CURVE SMOOTH",
"171 272 OFFCURVE",
"143 247 OFFCURVE",
"141 240 CURVE",
"139 237 OFFCURVE",
"140 235 OFFCURVE",
"141 234 CURVE SMOOTH",
"182 188 OFFCURVE",
"244 113 OFFCURVE",
"268 61 CURVE SMOOTH",
"271 55 OFFCURVE",
"273 53 OFFCURVE",
"275 53 CURVE SMOOTH"
);
}
);
width = 373;
},
{
layerId = "A14CB8BB-4075-44A2-8ACC-F29FBF19C8BE";
paths = (
{
closed = 1;
nodes = (
"267 56 OFFCURVE",
"271 53 OFFCURVE",
"275 53 CURVE SMOOTH",
"279 53 OFFCURVE",
"283 57 OFFCURVE",
"285 64 CURVE SMOOTH",
"286 68 OFFCURVE",
"287 73 OFFCURVE",
"287 78 CURVE SMOOTH",
"287 85 OFFCURVE",
"286 92 OFFCURVE",
"283 99 CURVE",
"283 100 OFFCURVE",
"282 102 OFFCURVE",
"274 114 CURVE SMOOTH",
"269 122 OFFCURVE",
"262 133 OFFCURVE",
"254 146 CURVE SMOOTH",
"239 171 OFFCURVE",
"220 205 OFFCURVE",
"205 243 CURVE",
"227 275 OFFCURVE",
"329 371 OFFCURVE",
"360 399 CURVE SMOOTH",
"363 402 OFFCURVE",
"366 407 OFFCURVE",
"366 412 CURVE SMOOTH",
"366 418 OFFCURVE",
"362 423 OFFCURVE",
"352 423 CURVE SMOOTH",
"345 423 OFFCURVE",
"337 420 OFFCURVE",
"329 413 CURVE SMOOTH",
"310 398 OFFCURVE",
"269 366 OFFCURVE",
"224 323 CURVE SMOOTH",
"198 299 OFFCURVE",
"178 281 OFFCURVE",
"165 268 CURVE SMOOTH",
"153 256 OFFCURVE",
"144 247 OFFCURVE",
"142 242 CURVE SMOOTH",
"139 237 OFFCURVE",
"141 233 OFFCURVE",
"143 231 CURVE SMOOTH",
"183 186 OFFCURVE",
"241 114 OFFCURVE",
"264 64 CURVE SMOOTH"
);
}
);
width = 373;
}
);
note = less;
unicode = 003C;
},
{
glyphname = equal;
lastChange = "2021-05-20 10:17:24 +0000";
layers = (
{
layerId = "B8E2B95E-9E44-4943-9D49-9B6A251F446D";
paths = (
{
closed = 1;
nodes = (
"267 104 OFFCURVE",
"311 110 OFFCURVE",
"385 114 CURVE SMOOTH",
"410 115 OFFCURVE",
"424 117 OFFCURVE",
"424 122 CURVE SMOOTH",
"424 126 OFFCURVE",
"410 130 OFFCURVE",
"385 132 CURVE SMOOTH",
"327 138 OFFCURVE",
"305 142 OFFCURVE",
"275 142 CURVE SMOOTH",
"250 142 OFFCURVE",
"231 140 OFFCURVE",
"216 136 CURVE SMOOTH",
"186 128 OFFCURVE",
"170 120 OFFCURVE",
"170 111 CURVE SMOOTH",
"170 106 OFFCURVE",
"180 104 OFFCURVE",
"196 104 CURVE SMOOTH"
);
},
{
closed = 1;
nodes = (
"301 234 OFFCURVE",
"351 243 OFFCURVE",
"425 243 CURVE SMOOTH",
"450 243 OFFCURVE",
"463 246 OFFCURVE",
"463 251 CURVE SMOOTH",
"463 255 OFFCURVE",
"450 259 OFFCURVE",
"425 261 CURVE SMOOTH",
"367 266 OFFCURVE",
"341 266 OFFCURVE",
"311 266 CURVE SMOOTH",
"286 266 OFFCURVE",
"266 265 OFFCURVE",
"251 261 CURVE SMOOTH",
"221 253 OFFCURVE",
"206 245 OFFCURVE",
"206 236 CURVE SMOOTH",
"206 232 OFFCURVE",
"215 229 OFFCURVE",
"232 229 CURVE SMOOTH"
);
}
);
width = 377;
},
{
layerId = "A14CB8BB-4075-44A2-8ACC-F29FBF19C8BE";
paths = (
{
closed = 1;
nodes = (
"269 104 OFFCURVE",
"311 110 OFFCURVE",
"383 113 CURVE SMOOTH",
"411 115 OFFCURVE",
"425 120 OFFCURVE",
"425 126 CURVE SMOOTH",
"425 130 OFFCURVE",
"411 137 OFFCURVE",
"383 140 CURVE SMOOTH",
"327 145 OFFCURVE",
"306 149 OFFCURVE",
"276 149 CURVE SMOOTH",
"252 149 OFFCURVE",
"233 147 OFFCURVE",
"218 143 CURVE SMOOTH",
"186 135 OFFCURVE",
"170 125 OFFCURVE",
"170 115 CURVE SMOOTH",
"170 109 OFFCURVE",
"181 104 OFFCURVE",
"200 104 CURVE SMOOTH"
);
},
{
closed = 1;
nodes = (
"302 226 OFFCURVE",
"350 235 OFFCURVE",
"421 235 CURVE SMOOTH",
"449 235 OFFCURVE",
"463 242 OFFCURVE",
"463 247 CURVE SMOOTH",
"463 251 OFFCURVE",
"450 259 OFFCURVE",
"422 261 CURVE SMOOTH",
"366 266 OFFCURVE",
"340 266 OFFCURVE",
"311 266 CURVE SMOOTH",
"287 266 OFFCURVE",
"267 265 OFFCURVE",
"252 261 CURVE SMOOTH",
"220 253 OFFCURVE",
"205 242 OFFCURVE",
"205 233 CURVE SMOOTH",
"205 228 OFFCURVE",
"214 222 OFFCURVE",
"231 222 CURVE SMOOTH",
"232 222 OFFCURVE",
"234 222 OFFCURVE",
"235 222 CURVE SMOOTH"
);
}
);
width = 377;
}
);
note = equal;
unicode = 003D;
},
{
glyphname = greater;
lastChange = "2021-05-20 10:17:24 +0000";
layers = (
{
layerId = "B8E2B95E-9E44-4943-9D49-9B6A251F446D";
paths = (
{
closed = 1;
nodes = (
"165 47 OFFCURVE",
"172 50 OFFCURVE",
"181 57 CURVE SMOOTH",
"200 73 OFFCURVE",
"243 106 OFFCURVE",
"290 149 CURVE SMOOTH",
"344 199 OFFCURVE",
"372 224 OFFCURVE",
"374 231 CURVE",
"376 234 OFFCURVE",
"375 236 OFFCURVE",
"374 237 CURVE SMOOTH",
"333 283 OFFCURVE",
"271 358 OFFCURVE",
"247 410 CURVE SMOOTH",
"244 416 OFFCURVE",
"242 418 OFFCURVE",
"240 418 CURVE SMOOTH",
"236 418 OFFCURVE",
"233 408 OFFCURVE",
"233 397 CURVE SMOOTH",
"233 391 OFFCURVE",
"234 384 OFFCURVE",
"236 378 CURVE SMOOTH",
"239 371 OFFCURVE",
"286 309 OFFCURVE",
"319 227 CURVE",
"299 196 OFFCURVE",
"188 93 OFFCURVE",
"155 64 CURVE SMOOTH",
"152 61 OFFCURVE",
"151 58 OFFCURVE",
"151 55 CURVE SMOOTH",
"151 51 OFFCURVE",
"154 47 OFFCURVE",
"160 47 CURVE SMOOTH"
);
}
);
width = 318;
},
{
layerId = "A14CB8BB-4075-44A2-8ACC-F29FBF19C8BE";
paths = (
{
closed = 1;
nodes = (
"154 48 OFFCURVE",
"157 48 OFFCURVE",
"160 48 CURVE SMOOTH",
"167 48 OFFCURVE",
"175 51 OFFCURVE",
"183 58 CURVE SMOOTH",
"202 73 OFFCURVE",
"243 105 OFFCURVE",
"288 148 CURVE SMOOTH",
"314 172 OFFCURVE",
"334 190 OFFCURVE",
"347 203 CURVE SMOOTH",
"359 215 OFFCURVE",
"368 224 OFFCURVE",
"370 229 CURVE SMOOTH",
"373 234 OFFCURVE",
"371 238 OFFCURVE",
"369 240 CURVE SMOOTH",
"329 285 OFFCURVE",
"271 357 OFFCURVE",
"248 407 CURVE SMOOTH",
"245 415 OFFCURVE",
"241 418 OFFCURVE",
"237 418 CURVE SMOOTH",
"233 418 OFFCURVE",
"229 414 OFFCURVE",
"227 407 CURVE SMOOTH",
"226 403 OFFCURVE",
"225 398 OFFCURVE",
"225 393 CURVE SMOOTH",
"225 386 OFFCURVE",
"226 379 OFFCURVE",
"229 372 CURVE",
"229 365 OFFCURVE",
"253 332 OFFCURVE",
"258 325 CURVE SMOOTH",
"273 300 OFFCURVE",
"292 266 OFFCURVE",
"307 228 CURVE",
"285 196 OFFCURVE",
"183 100 OFFCURVE",
"152 72 CURVE SMOOTH",
"149 69 OFFCURVE",
"147 64 OFFCURVE",
"147 60 CURVE SMOOTH",
"147 56 OFFCURVE",
"148 52 OFFCURVE",
"152 50 CURVE SMOOTH"
);
}
);
width = 318;
}
);
note = greater;
unicode = 003E;
},
{
glyphname = exclam;
lastChange = "2021-05-20 10:17:24 +0000";
layers = (
{
layerId = "B8E2B95E-9E44-4943-9D49-9B6A251F446D";
paths = (
{
closed = 1;
nodes = (
"287 154 OFFCURVE",
"291 158 OFFCURVE",
"294 165 CURVE SMOOTH",
"348 268 OFFCURVE",
"408 367 OFFCURVE",
"475 461 CURVE",
"473 471 OFFCURVE",
"441 479 OFFCURVE",
"432 476 CURVE SMOOTH",
"419 472 OFFCURVE",
"275 167 OFFCURVE",
"275 160 CURVE SMOOTH",
"275 156 OFFCURVE",
"277 154 OFFCURVE",
"281 154 CURVE SMOOTH"
);
},
{
closed = 1;
nodes = (
"233 -10 OFFCURVE",
"249 -1 OFFCURVE",
"257 15 CURVE SMOOTH",
"261 23 OFFCURVE",
"263 30 OFFCURVE",
"263 36 CURVE SMOOTH",
"263 43 OFFCURVE",
"260 47 OFFCURVE",
"254 48 CURVE SMOOTH",
"237 50 OFFCURVE",
"210 44 OFFCURVE",
"203 26 CURVE SMOOTH",
"201 21 OFFCURVE",
"200 16 OFFCURVE",
"200 11 CURVE SMOOTH",
"200 -1 OFFCURVE",
"207 -10 OFFCURVE",
"220 -10 CURVE SMOOTH"
);
}
);
width = 374;
},
{
layerId = "A14CB8BB-4075-44A2-8ACC-F29FBF19C8BE";
paths = (
{
closed = 1;
nodes = (
"292 151 OFFCURVE",
"296 157 OFFCURVE",
"300 164 CURVE SMOOTH",
"351 265 OFFCURVE",
"410 362 OFFCURVE",
"475 455 CURVE",
"472 472 OFFCURVE",
"436 479 OFFCURVE",
"427 476 CURVE SMOOTH",
"412 471 OFFCURVE",
"272 169 OFFCURVE",
"272 161 CURVE SMOOTH",
"272 155 OFFCURVE",
"276 151 OFFCURVE",
"283 151 CURVE SMOOTH"
);
},
{
closed = 1;
nodes = (
"239 -10 OFFCURVE",
"256 0 OFFCURVE",
"264 17 CURVE SMOOTH",
"269 25 OFFCURVE",
"271 33 OFFCURVE",
"271 40 CURVE SMOOTH",
"271 50 OFFCURVE",
"265 57 OFFCURVE",
"254 57 CURVE SMOOTH",
"233 57 OFFCURVE",
"200 48 OFFCURVE",
"200 16 CURVE SMOOTH",
"200 2 OFFCURVE",
"207 -10 OFFCURVE",
"224 -10 CURVE SMOOTH"
);
}
);
width = 374;
}
);
note = exclam;
unicode = 0021;
},
{
glyphname = question;
lastChange = "2021-05-20 10:17:24 +0000";
layers = (
{
layerId = "B8E2B95E-9E44-4943-9D49-9B6A251F446D";
paths = (
{
closed = 1;
nodes = (
"334 133 OFFCURVE",
"338 137 OFFCURVE",
"339 146 CURVE",
"388 233 OFFCURVE",
"663 378 OFFCURVE",
"688 494 CURVE SMOOTH",
"689 499 OFFCURVE",
"689 504 OFFCURVE",
"689 508 CURVE SMOOTH",
"689 542 OFFCURVE",
"664 558 OFFCURVE",
"630 561 CURVE SMOOTH",
"614 563 OFFCURVE",
"599 563 OFFCURVE",
"584 563 CURVE SMOOTH",
"428 563 OFFCURVE",
"350 483 OFFCURVE",
"335 467 CURVE",
"315 485 LINE SMOOTH",
"309 490 OFFCURVE",
"303 488 OFFCURVE",
"303 484 CURVE SMOOTH",
"303 483 OFFCURVE",
"304 481 OFFCURVE",
"306 479 CURVE SMOOTH",
"315 471 OFFCURVE",
"321 464 OFFCURVE",
"327 460 CURVE",
"318 453 OFFCURVE",
"315 440 OFFCURVE",
"313 431 CURVE SMOOTH",
"306 392 OFFCURVE",
"348 363 OFFCURVE",
"375 363 CURVE SMOOTH",
"387 363 OFFCURVE",
"396 369 OFFCURVE",
"396 382 CURVE SMOOTH",
"396 389 OFFCURVE",
"394 398 OFFCURVE",
"388 410 CURVE SMOOTH",
"380 425 OFFCURVE",
"367 438 OFFCURVE",
"353 451 CURVE",
"371 472 OFFCURVE",
"479 547 OFFCURVE",
"600 547 CURVE SMOOTH",
"632 547 OFFCURVE",
"650 536 OFFCURVE",
"650 514 CURVE SMOOTH",
"650 480 OFFCURVE",
"589 411 OFFCURVE",
"498 339 CURVE SMOOTH",
"430 285 OFFCURVE",
"353 219 OFFCURVE",
"327 160 CURVE SMOOTH",
"325 154 OFFCURVE",
"324 149 OFFCURVE",
"324 145 CURVE SMOOTH",
"324 137 OFFCURVE",
"327 133 OFFCURVE",
"330 133 CURVE SMOOTH"
);
},
{
closed = 1;
nodes = (
"300 -10 OFFCURVE",
"316 -1 OFFCURVE",
"324 15 CURVE SMOOTH",
"328 23 OFFCURVE",
"330 30 OFFCURVE",
"330 36 CURVE SMOOTH",
"330 43 OFFCURVE",
"327 47 OFFCURVE",
"321 48 CURVE SMOOTH",
"304 50 OFFCURVE",
"277 44 OFFCURVE",
"270 26 CURVE SMOOTH",
"268 21 OFFCURVE",
"267 16 OFFCURVE",
"267 11 CURVE SMOOTH",
"267 -1 OFFCURVE",
"274 -10 OFFCURVE",
"287 -10 CURVE SMOOTH"
);
},
{
closed = 1;
nodes = (
"368 383 OFFCURVE",
"365 385 OFFCURVE",
"360 390 CURVE SMOOTH",
"342 411 OFFCURVE",
"344 435 OFFCURVE",
"344 441 CURVE",
"358 428 OFFCURVE",
"366 420 OFFCURVE",
"373 406 CURVE SMOOTH",
"375 402 OFFCURVE",
"376 396 OFFCURVE",
"376 392 CURVE SMOOTH",
"376 387 OFFCURVE",
"375 383 OFFCURVE",
"371 383 CURVE SMOOTH"
);
}
);
width = 562;
},
{
layerId = "A14CB8BB-4075-44A2-8ACC-F29FBF19C8BE";
paths = (
{
closed = 1;
nodes = (
"337 126 OFFCURVE",
"345 136 OFFCURVE",
"347 147 CURVE",
"359 167 OFFCURVE",
"383 191 OFFCURVE",
"415 218 CURVE SMOOTH",
"448 245 OFFCURVE",
"487 274 OFFCURVE",
"525 305 CURVE SMOOTH",
"608 370 OFFCURVE",
"690 441 OFFCURVE",
"690 504 CURVE SMOOTH",
"690 541 OFFCURVE",
"661 557 OFFCURVE",
"627 561 CURVE SMOOTH",
"611 562 OFFCURVE",
"596 563 OFFCURVE",
"582 563 CURVE SMOOTH",
"436 563 OFFCURVE",
"359 492 OFFCURVE",
"338 471 CURVE",
"322 485 LINE SMOOTH",
"319 488 OFFCURVE",
"315 489 OFFCURVE",
"311 489 CURVE SMOOTH",
"309 489 OFFCURVE",
"308 489 OFFCURVE",
"306 488 CURVE SMOOTH",
"300 484 OFFCURVE",
"302 476 OFFCURVE",
"307 472 CURVE SMOOTH",
"311 468 OFFCURVE",
"318 462 OFFCURVE",
"323 456 CURVE",
"316 448 OFFCURVE",
"313 437 OFFCURVE",
"312 429 CURVE SMOOTH",
"304 387 OFFCURVE",
"349 357 OFFCURVE",
"377 357 CURVE SMOOTH",
"391 357 OFFCURVE",
"403 364 OFFCURVE",
"403 380 CURVE SMOOTH",
"403 407 OFFCURVE",
"382 430 OFFCURVE",
"363 448 CURVE",
"387 472 OFFCURVE",
"486 537 OFFCURVE",
"597 537 CURVE SMOOTH",
"630 537 OFFCURVE",
"644 526 OFFCURVE",
"640 504 CURVE SMOOTH",
"635 471 OFFCURVE",
"578 408 OFFCURVE",
"495 342 CURVE SMOOTH",
"428 289 OFFCURVE",
"352 223 OFFCURVE",
"326 164 CURVE SMOOTH",
"323 158 OFFCURVE",
"322 152 OFFCURVE",
"322 147 CURVE SMOOTH",
"322 141 OFFCURVE",
"324 136 OFFCURVE",
"328 133 CURVE SMOOTH"
);
},
{
closed = 1;
nodes = (
"306 -10 OFFCURVE",
"323 0 OFFCURVE",
"332 17 CURVE SMOOTH",
"336 25 OFFCURVE",
"338 33 OFFCURVE",
"338 39 CURVE SMOOTH",
"338 50 OFFCURVE",
"332 57 OFFCURVE",
"319 57 CURVE SMOOTH",
"298 57 OFFCURVE",
"267 47 OFFCURVE",
"267 16 CURVE SMOOTH",
"267 2 OFFCURVE",
"274 -10 OFFCURVE",
"291 -10 CURVE SMOOTH"
);
},
{
closed = 1;
nodes = (
"372 384 OFFCURVE",
"371 386 OFFCURVE",
"366 391 CURVE SMOOTH",
"357 401 OFFCURVE",
"353 414 OFFCURVE",
"352 427 CURVE",
"353 426 LINE SMOOTH",
"361 418 OFFCURVE",
"366 412 OFFCURVE",
"371 402 CURVE SMOOTH",
"372 398 OFFCURVE",
"373 393 OFFCURVE",
"373 389 CURVE SMOOTH",
"373 388 OFFCURVE",
"373 387 OFFCURVE",
"373 386 CURVE SMOOTH"
);
}
);
width = 562;
}
);
note = question;
unicode = 003F;
},
{
glyphname = at;
lastChange = "2021-05-20 10:17:24 +0000";
layers = (
{
layerId = "B8E2B95E-9E44-4943-9D49-9B6A251F446D";
paths = (
{
closed = 1;
nodes = (
"557 -4 OFFCURVE",
"701 65 OFFCURVE",
"734 148 CURVE SMOOTH",
"736 152 OFFCURVE",
"737 159 OFFCURVE",
"737 164 CURVE SMOOTH",
"737 168 OFFCURVE",
"736 171 OFFCURVE",
"733 171 CURVE SMOOTH",
"729 171 OFFCURVE",
"722 166 OFFCURVE",
"710 152 CURVE SMOOTH",
"639 68 OFFCURVE",
"553 13 OFFCURVE",
"400 13 CURVE SMOOTH",
"316 13 OFFCURVE",
"282 59 OFFCURVE",
"282 116 CURVE SMOOTH",
"282 127 OFFCURVE",
"284 139 OFFCURVE",
"286 151 CURVE SMOOTH",
"307 252 OFFCURVE",
"450 371 OFFCURVE",
"567 404 CURVE SMOOTH",
"595 412 OFFCURVE",
"619 415 OFFCURVE",
"640 415 CURVE SMOOTH",
"708 415 OFFCURVE",
"738 377 OFFCURVE",
"738 328 CURVE SMOOTH",
"738 279 OFFCURVE",
"708 218 OFFCURVE",
"656 172 CURVE",
"642 162 OFFCURVE",
"629 154 OFFCURVE",
"618 150 CURVE",
"608 148 OFFCURVE",
"603 153 OFFCURVE",
"603 165 CURVE SMOOTH",
"603 177 OFFCURVE",
"609 196 OFFCURVE",
"621 220 CURVE",
"624 229 OFFCURVE",
"627 236 OFFCURVE",
"627 241 CURVE SMOOTH",
"627 243 OFFCURVE",
"626 245 OFFCURVE",
"625 246 CURVE SMOOTH",
"622 249 OFFCURVE",
"615 251 OFFCURVE",
"609 251 CURVE SMOOTH",
"605 251 OFFCURVE",
"602 250 OFFCURVE",
"600 249 CURVE SMOOTH",
"494 163 LINE SMOOTH",
"482 152 OFFCURVE",
"439 122 OFFCURVE",
"413 122 CURVE SMOOTH",
"399 122 OFFCURVE",
"390 131 OFFCURVE",
"393 154 CURVE SMOOTH",
"400 203 OFFCURVE",
"518 300 OFFCURVE",
"579 300 CURVE SMOOTH",
"606 300 OFFCURVE",
"606 278 OFFCURVE",
"606 270 CURVE SMOOTH",
"606 260 OFFCURVE",
"617 266 OFFCURVE",
"617 277 CURVE SMOOTH",
"617 277 OFFCURVE",
"617 278 OFFCURVE",
"617 278 CURVE SMOOTH",
"613 306 OFFCURVE",
"602 322 OFFCURVE",
"573 322 CURVE SMOOTH",
"559 322 OFFCURVE",
"541 318 OFFCURVE",
"518 311 CURVE SMOOTH",
"451 290 OFFCURVE",
"368 208 OFFCURVE",
"368 155 CURVE SMOOTH",
"368 145 OFFCURVE",
"371 135 OFFCURVE",
"378 128 CURVE SMOOTH",
"388 117 OFFCURVE",
"401 112 OFFCURVE",
"415 112 CURVE SMOOTH",
"473 112 OFFCURVE",
"555 193 OFFCURVE",
"582 220 CURVE",
"574 202 OFFCURVE",
"566 179 OFFCURVE",
"566 159 CURVE SMOOTH",
"566 141 OFFCURVE",
"578 131 OFFCURVE",
"599 131 CURVE SMOOTH",
"619 131 OFFCURVE",
"648 141 OFFCURVE",
"678 166 CURVE SMOOTH",
"742 218 OFFCURVE",
"778 282 OFFCURVE",
"778 334 CURVE SMOOTH",
"778 389 OFFCURVE",
"738 431 OFFCURVE",
"647 431 CURVE SMOOTH",
"622 431 OFFCURVE",
"592 428 OFFCURVE",
"559 421 CURVE SMOOTH",
"425 393 OFFCURVE",
"271 273 OFFCURVE",
"243 157 CURVE SMOOTH",
"240 145 OFFCURVE",
"239 133 OFFCURVE",
"239 122 CURVE SMOOTH",
"239 45 OFFCURVE",
"309 -4 OFFCURVE",
"404 -4 CURVE SMOOTH"
);
}
);
width = 673;
},
{
layerId = "A14CB8BB-4075-44A2-8ACC-F29FBF19C8BE";
paths = (
{
closed = 1;
nodes = (
"557 -4 OFFCURVE",
"701 64 OFFCURVE",
"734 148 CURVE",
"736 152 OFFCURVE",
"738 159 OFFCURVE",
"738 164 CURVE SMOOTH",
"738 168 OFFCURVE",
"737 171 OFFCURVE",
"736 173 CURVE SMOOTH",
"732 178 OFFCURVE",
"726 177 OFFCURVE",
"722 174 CURVE",
"717 172 OFFCURVE",
"711 166 OFFCURVE",
"703 157 CURVE SMOOTH",
"634 75 OFFCURVE",
"551 22 OFFCURVE",
"402 22 CURVE SMOOTH",
"322 22 OFFCURVE",
"291 65 OFFCURVE",
"291 118 CURVE SMOOTH",
"291 129 OFFCURVE",
"293 140 OFFCURVE",
"295 151 CURVE SMOOTH",
"315 248 OFFCURVE",
"453 363 OFFCURVE",
"567 395 CURVE SMOOTH",
"594 403 OFFCURVE",
"617 406 OFFCURVE",
"638 406 CURVE SMOOTH",
"702 406 OFFCURVE",
"729 371 OFFCURVE",
"729 325 CURVE SMOOTH",
"729 279 OFFCURVE",
"700 221 OFFCURVE",
"650 177 CURVE SMOOTH",
"637 167 OFFCURVE",
"625 160 OFFCURVE",
"615 156 CURVE",
"609 155 OFFCURVE",
"606 157 OFFCURVE",
"606 167 CURVE SMOOTH",
"606 178 OFFCURVE",
"612 195 OFFCURVE",
"623 218 CURVE SMOOTH",
"627 227 OFFCURVE",
"628 235 OFFCURVE",
"628 241 CURVE SMOOTH",
"628 245 OFFCURVE",
"628 247 OFFCURVE",
"626 249 CURVE SMOOTH",
"622 253 OFFCURVE",
"615 255 OFFCURVE",
"607 255 CURVE SMOOTH",
"603 255 OFFCURVE",
"598 254 OFFCURVE",
"595 252 CURVE",
"491 168 LINE SMOOTH",
"478 158 OFFCURVE",
"438 129 OFFCURVE",
"415 129 CURVE SMOOTH",
"406 129 OFFCURVE",
"399 133 OFFCURVE",
"399 147 CURVE SMOOTH",
"399 149 OFFCURVE",
"400 152 OFFCURVE",
"400 155 CURVE SMOOTH",
"406 201 OFFCURVE",
"521 293 OFFCURVE",
"578 293 CURVE SMOOTH",
"598 293 OFFCURVE",
"599 278 OFFCURVE",
"599 271 CURVE SMOOTH",
"599 270 OFFCURVE",
"599 270 OFFCURVE",
"599 269 CURVE SMOOTH",
"599 262 OFFCURVE",
"604 259 OFFCURVE",
"608 259 CURVE SMOOTH",
"610 259 OFFCURVE",
"612 259 OFFCURVE",
"613 260 CURVE SMOOTH",
"617 263 OFFCURVE",
"620 269 OFFCURVE",
"620 275 CURVE SMOOTH",
"620 276 OFFCURVE",
"620 276 OFFCURVE",
"620 277 CURVE SMOOTH",
"616 306 OFFCURVE",
"604 324 OFFCURVE",
"572 324 CURVE SMOOTH",
"557 324 OFFCURVE",
"539 320 OFFCURVE",
"516 313 CURVE SMOOTH",
"450 293 OFFCURVE",
"366 211 OFFCURVE",
"366 156 CURVE SMOOTH",
"366 146 OFFCURVE",
"369 135 OFFCURVE",
"377 127 CURVE SMOOTH",
"388 115 OFFCURVE",
"402 109 OFFCURVE",
"417 109 CURVE SMOOTH",
"467 109 OFFCURVE",
"533 167 OFFCURVE",
"568 200 CURVE",
"563 187 OFFCURVE",
"560 173 OFFCURVE",
"560 160 CURVE SMOOTH",
"560 139 OFFCURVE",
"575 128 OFFCURVE",
"597 128 CURVE SMOOTH",
"618 128 OFFCURVE",
"648 139 OFFCURVE",
"678 163 CURVE SMOOTH",
"741 215 OFFCURVE",
"778 278 OFFCURVE",
"778 331 CURVE SMOOTH",
"778 389 OFFCURVE",
"736 431 OFFCURVE",
"644 431 CURVE SMOOTH",
"620 431 OFFCURVE",
"590 428 OFFCURVE",
"557 421 CURVE SMOOTH",
"424 393 OFFCURVE",
"271 275 OFFCURVE",
"243 159 CURVE SMOOTH",
"240 147 OFFCURVE",
"239 135 OFFCURVE",
"239 124 CURVE SMOOTH",
"239 45 OFFCURVE",
"311 -4 OFFCURVE",
"406 -4 CURVE SMOOTH"
);
}
);
width = 673;
}
);
note = at;
unicode = 0040;
},
{
glyphname = A;
lastChange = "2021-05-20 10:17:24 +0000";
layers = (
{
anchors = (
{
name = bottom;
position = "{432, -160}";
},
{
name = ogonek;
position = "{909, -31}";
},
{
name = top;
position = "{959, 530}";
}
);
layerId = "B8E2B95E-9E44-4943-9D49-9B6A251F446D";
paths = (
{
closed = 1;
nodes = (
"7 -215 OFFCURVE",
"15 -212 OFFCURVE",
"15 -207 CURVE SMOOTH",
"15 -204 OFFCURVE",
"13 -201 OFFCURVE",
"8 -197 CURVE SMOOTH",
"-14 -182 OFFCURVE",
"-23 -160 OFFCURVE",
"-23 -136 CURVE SMOOTH",
"-23 -108 OFFCURVE",
"-10 -78 OFFCURVE",
"11 -55 CURVE SMOOTH",
"160 108 OFFCURVE",
"669 505 OFFCURVE",
"929 505 CURVE SMOOTH",
"976 505 OFFCURVE",
"1009 486 OFFCURVE",
"1009 430 CURVE SMOOTH",
"1009 355 OFFCURVE",
"965 218 OFFCURVE",
"924 116 CURVE",
"900 114 OFFCURVE",
"878 113 OFFCURVE",
"858 113 CURVE SMOOTH",
"838 113 OFFCURVE",
"822 114 OFFCURVE",
"811 115 CURVE",
"773 162 OFFCURVE",
"654 222 OFFCURVE",
"577 222 CURVE SMOOTH",
"552 222 OFFCURVE",
"532 216 OFFCURVE",
"520 201 CURVE SMOOTH",
"516 196 OFFCURVE",
"515 191 OFFCURVE",
"515 186 CURVE SMOOTH",
"515 174 OFFCURVE",
"525 161 OFFCURVE",
"543 151 CURVE SMOOTH",
"588 124 OFFCURVE",
"694 111 OFFCURVE",
"745 102 CURVE SMOOTH",
"769 98 OFFCURVE",
"789 94 OFFCURVE",
"792 93 CURVE SMOOTH",
"806 89 OFFCURVE",
"859 5 OFFCURVE",
"873 -32 CURVE",
"873 -37 OFFCURVE",
"873 -41 OFFCURVE",
"874 -43 CURVE",
"875 -52 OFFCURVE",
"881 -56 OFFCURVE",
"889 -56 CURVE SMOOTH",
"904 -56 OFFCURVE",
"924 -41 OFFCURVE",
"921 -22 CURVE",
"921 -18 OFFCURVE",
"918 -6 OFFCURVE",
"918 7 CURVE SMOOTH",
"918 12 OFFCURVE",
"918 17 OFFCURVE",
"919 21 CURVE SMOOTH",
"923 45 OFFCURVE",
"938 85 OFFCURVE",
"946 102 CURVE",
"1033 113 OFFCURVE",
"1125 140 OFFCURVE",
"1125 195 CURVE SMOOTH",
"1125 205 OFFCURVE",
"1121 211 OFFCURVE",
"1118 211 CURVE SMOOTH",
"1116 211 OFFCURVE",
"1114 208 OFFCURVE",
"1114 202 CURVE SMOOTH",
"1114 201 OFFCURVE",
"1114 201 OFFCURVE",
"1114 200 CURVE SMOOTH",
"1117 151 OFFCURVE",
"1035 128 OFFCURVE",
"953 119 CURVE",
"1004 213 OFFCURVE",
"1049 332 OFFCURVE",
"1049 414 CURVE SMOOTH",
"1049 480 OFFCURVE",
"1008 527 OFFCURVE",
"959 530 CURVE SMOOTH",
"748 544 OFFCURVE",
"165 167 OFFCURVE",
"-6 -10 CURVE SMOOTH",
"-52 -58 OFFCURVE",
"-82 -104 OFFCURVE",
"-82 -143 CURVE SMOOTH",
"-82 -152 OFFCURVE",
"-80 -160 OFFCURVE",
"-77 -168 CURVE SMOOTH",
"-64 -203 OFFCURVE",
"-28 -215 OFFCURVE",
"-5 -215 CURVE SMOOTH"
);
},
{
closed = 1;
nodes = (
"724 123 OFFCURVE",
"633 141 OFFCURVE",
"594 155 CURVE SMOOTH",
"583 159 OFFCURVE",
"569 169 OFFCURVE",
"569 176 CURVE SMOOTH",
"569 181 OFFCURVE",
"575 184 OFFCURVE",
"591 184 CURVE SMOOTH",
"595 184 OFFCURVE",
"598 184 OFFCURVE",
"602 184 CURVE SMOOTH",
"659 179 OFFCURVE",
"730 143 OFFCURVE",
"761 121 CURVE"
);
},
{
closed = 1;
nodes = (
"870 38 OFFCURVE",
"843 74 OFFCURVE",
"825 96 CURVE",
"845 95 OFFCURVE",
"875 96 OFFCURVE",
"909 98 CURVE",
"901 76 OFFCURVE",
"895 52 OFFCURVE",
"890 29 CURVE SMOOTH",
"888 20 OFFCURVE",
"887 12 OFFCURVE",
"886 4 CURVE"
);
}
);
width = 1006;
},
{
anchors = (
{
name = bottom;
position = "{403, -77}";
},
{
name = ogonek;
position = "{895, -42}";
},
{
name = top;
position = "{984, 530}";
}
);
layerId = "A14CB8BB-4075-44A2-8ACC-F29FBF19C8BE";
paths = (
{
closed = 1;
nodes = (
"9 -215 OFFCURVE",
"16 -214 OFFCURVE",
"21 -210 CURVE SMOOTH",
"24 -208 OFFCURVE",
"26 -205 OFFCURVE",
"26 -202 CURVE SMOOTH",
"26 -197 OFFCURVE",
"22 -192 OFFCURVE",
"16 -188 CURVE SMOOTH",
"-4 -174 OFFCURVE",
"-13 -154 OFFCURVE",
"-13 -132 CURVE SMOOTH",
"-13 -106 OFFCURVE",
"0 -77 OFFCURVE",
"20 -56 CURVE SMOOTH",
"168 105 OFFCURVE",
"671 495 OFFCURVE",
"927 495 CURVE SMOOTH",
"971 495 OFFCURVE",
"1001 478 OFFCURVE",
"1001 426 CURVE SMOOTH",
"1001 354 OFFCURVE",
"959 222 OFFCURVE",
"918 121 CURVE",
"896 119 OFFCURVE",
"875 119 OFFCURVE",
"856 119 CURVE SMOOTH",
"838 119 OFFCURVE",
"823 119 OFFCURVE",
"812 120 CURVE",
"772 168 OFFCURVE",
"654 226 OFFCURVE",
"578 226 CURVE SMOOTH",
"552 226 OFFCURVE",
"530 220 OFFCURVE",
"517 204 CURVE SMOOTH",
"513 198 OFFCURVE",
"511 192 OFFCURVE",
"511 186 CURVE SMOOTH",
"511 171 OFFCURVE",
"524 157 OFFCURVE",
"541 147 CURVE SMOOTH",
"565 133 OFFCURVE",
"603 123 OFFCURVE",
"641 116 CURVE SMOOTH",
"679 108 OFFCURVE",
"718 102 OFFCURVE",
"743 98 CURVE SMOOTH",
"767 94 OFFCURVE",
"786 90 OFFCURVE",
"789 89 CURVE SMOOTH",
"800 86 OFFCURVE",
"852 7 OFFCURVE",
"866 -30 CURVE",
"866 -35 OFFCURVE",
"866 -39 OFFCURVE",
"867 -42 CURVE SMOOTH",
"869 -54 OFFCURVE",
"877 -58 OFFCURVE",
"886 -58 CURVE SMOOTH",
"891 -58 OFFCURVE",
"896 -57 OFFCURVE",
"900 -55 CURVE SMOOTH",
"913 -50 OFFCURVE",
"926 -36 OFFCURVE",
"924 -19 CURVE SMOOTH",
"924 -18 OFFCURVE",
"923 -15 OFFCURVE",
"923 -13 CURVE SMOOTH",
"922 -5 OFFCURVE",
"920 2 OFFCURVE",
"920 9 CURVE SMOOTH",
"920 13 OFFCURVE",
"921 18 OFFCURVE",
"922 22 CURVE SMOOTH",
"926 44 OFFCURVE",
"939 81 OFFCURVE",
"947 98 CURVE",
"1030 109 OFFCURVE",
"1126 136 OFFCURVE",
"1126 194 CURVE SMOOTH",
"1126 208 OFFCURVE",
"1120 214 OFFCURVE",
"1114 214 CURVE SMOOTH",
"1109 214 OFFCURVE",
"1105 210 OFFCURVE",
"1105 200 CURVE SMOOTH",
"1105 200 OFFCURVE",
"1105 200 OFFCURVE",
"1105 199 CURVE SMOOTH",
"1108 158 OFFCURVE",
"1039 135 OFFCURVE",
"959 126 CURVE",
"1008 217 OFFCURVE",
"1051 331 OFFCURVE",
"1051 411 CURVE SMOOTH",
"1051 478 OFFCURVE",
"1009 527 OFFCURVE",
"957 530 CURVE SMOOTH",
"745 544 OFFCURVE",
"165 170 OFFCURVE",
"-4 -4 CURVE SMOOTH",
"-50 -51 OFFCURVE",
"-81 -98 OFFCURVE",
"-81 -139 CURVE SMOOTH",
"-81 -148 OFFCURVE",
"-79 -157 OFFCURVE",
"-76 -165 CURVE SMOOTH",
"-61 -202 OFFCURVE",
"-23 -215 OFFCURVE",
"0 -215 CURVE SMOOTH"
);
},
{
closed = 1;
nodes = (
"698 134 OFFCURVE",
"628 148 OFFCURVE",
"596 160 CURVE SMOOTH",
"589 162 OFFCURVE",
"580 169 OFFCURVE",
"580 174 CURVE SMOOTH",
"580 177 OFFCURVE",
"584 179 OFFCURVE",
"594 179 CURVE SMOOTH",
"597 179 OFFCURVE",
"599 179 OFFCURVE",
"602 179 CURVE SMOOTH",
"649 175 OFFCURVE",
"705 149 OFFCURVE",
"740 128 CURVE"
);
},
{
closed = 1;
nodes = (
"867 48 OFFCURVE",
"849 73 OFFCURVE",
"834 92 CURVE",
"852 91 OFFCURVE",
"874 92 OFFCURVE",
"900 93 CURVE",
"893 74 OFFCURVE",
"888 52 OFFCURVE",
"883 32 CURVE SMOOTH",
"882 28 OFFCURVE",
"882 25 OFFCURVE",
"881 22 CURVE"
);
}
);
width = 1006;
}
);
note = A;
unicode = 0041;
},
{
glyphname = B;
lastChange = "2021-05-20 10:17:24 +0000";
layers = (
{
anchors = (
{
name = bottom;
position = "{1269, -118}";
},
{
name = top;
position = "{1387, 579}";
}
);
layerId = "B8E2B95E-9E44-4943-9D49-9B6A251F446D";
paths = (
{
closed = 1;
nodes = (
"1409 -132 OFFCURVE",
"1541 -100 OFFCURVE",
"1596 -10 CURVE SMOOTH",
"1613 17 OFFCURVE",
"1620 43 OFFCURVE",
"1620 69 CURVE SMOOTH",
"1620 161 OFFCURVE",
"1520 239 OFFCURVE",
"1382 259 CURVE",
"1420 264 OFFCURVE",
"1553 308 OFFCURVE",
"1636 345 CURVE SMOOTH",
"1726 385 OFFCURVE",
"1766 422 OFFCURVE",
"1766 453 CURVE SMOOTH",
"1766 512 OFFCURVE",
"1619 550 OFFCURVE",
"1395 550 CURVE SMOOTH",
"833 550 OFFCURVE",
"7 400 OFFCURVE",
"7 174 CURVE SMOOTH",
"7 104 OFFCURVE",
"128 55 OFFCURVE",
"224 55 CURVE SMOOTH",
"240 55 OFFCURVE",
"258 60 OFFCURVE",
"258 64 CURVE SMOOTH",
"258 66 OFFCURVE",
"252 68 OFFCURVE",
"236 68 CURVE SMOOTH",
"159 68 OFFCURVE",
"57 106 OFFCURVE",
"57 162 CURVE SMOOTH",
"57 384 OFFCURVE",
"893 535 OFFCURVE",
"1406 535 CURVE SMOOTH",
"1516 535 OFFCURVE",
"1707 507 OFFCURVE",
"1707 446 CURVE SMOOTH",
"1707 423 OFFCURVE",
"1679 395 OFFCURVE",
"1609 362 CURVE SMOOTH",
"1531 326 OFFCURVE",
"1429 284 OFFCURVE",
"1385 274 CURVE",
"1381 274 OFFCURVE",
"1338 278 OFFCURVE",
"1338 259 CURVE SMOOTH",
"1338 251 OFFCURVE",
"1351 226 OFFCURVE",
"1372 226 CURVE SMOOTH",
"1381 226 OFFCURVE",
"1378 229 OFFCURVE",
"1386 229 CURVE SMOOTH",
"1479 229 OFFCURVE",
"1578 172 OFFCURVE",
"1578 91 CURVE SMOOTH",
"1578 70 OFFCURVE",
"1572 48 OFFCURVE",
"1557 25 CURVE SMOOTH",
"1502 -63 OFFCURVE",
"1374 -95 OFFCURVE",
"1251 -95 CURVE SMOOTH",
"1177 -95 OFFCURVE",
"1105 -84 OFFCURVE",
"1051 -66 CURVE SMOOTH",
"907 -19 OFFCURVE",
"817 57 OFFCURVE",
"817 181 CURVE SMOOTH",
"817 199 OFFCURVE",
"819 219 OFFCURVE",
"823 239 CURVE",
"858 240 OFFCURVE",
"898 243 OFFCURVE",
"934 243 CURVE SMOOTH",
"951 243 OFFCURVE",
"968 242 OFFCURVE",
"983 240 CURVE SMOOTH",
"987 239 OFFCURVE",
"989 239 OFFCURVE",
"991 239 CURVE SMOOTH",
"995 239 OFFCURVE",
"996 240 OFFCURVE",
"996 242 CURVE SMOOTH",
"996 244 OFFCURVE",
"992 248 OFFCURVE",
"987 251 CURVE SMOOTH",
"971 259 OFFCURVE",
"903 259 OFFCURVE",
"889 259 CURVE SMOOTH",
"880 259 OFFCURVE",
"865 258 OFFCURVE",
"850 258 CURVE SMOOTH",
"842 258 OFFCURVE",
"835 258 OFFCURVE",
"828 259 CURVE",
"834 280 LINE",
"845 282 OFFCURVE",
"849 288 OFFCURVE",
"849 292 CURVE SMOOTH",
"849 296 OFFCURVE",
"846 300 OFFCURVE",
"842 300 CURVE SMOOTH",
"841 300 OFFCURVE",
"839 300 OFFCURVE",
"838 299 CURVE SMOOTH",
"836 298 OFFCURVE",
"832 297 OFFCURVE",
"826 297 CURVE SMOOTH",
"815 297 OFFCURVE",
"798 299 OFFCURVE",
"781 299 CURVE SMOOTH",
"757 299 OFFCURVE",
"735 295 OFFCURVE",
"735 276 CURVE SMOOTH",
"735 249 OFFCURVE",
"763 241 OFFCURVE",
"802 239 CURVE",
"794 219 OFFCURVE",
"791 199 OFFCURVE",
"791 180 CURVE SMOOTH",
"791 56 OFFCURVE",
"934 -53 OFFCURVE",
"1046 -95 CURVE SMOOTH",
"1107 -118 OFFCURVE",
"1193 -132 OFFCURVE",
"1280 -132 CURVE SMOOTH"
);
},
{
closed = 1;
nodes = (
"805 263 OFFCURVE",
"800 265 OFFCURVE",
"800 270 CURVE SMOOTH",
"800 270 OFFCURVE",
"800 271 OFFCURVE",
"800 271 CURVE SMOOTH",
"801 279 OFFCURVE",
"808 280 OFFCURVE",
"815 280 CURVE SMOOTH",
"819 280 OFFCURVE",
"822 280 OFFCURVE",
"824 280 CURVE",
"819 274 OFFCURVE",
"816 267 OFFCURVE",
"812 261 CURVE"
);
},
{
closed = 1;
nodes = (
"1116 36 OFFCURVE",
"1120 38 OFFCURVE",
"1120 42 CURVE SMOOTH",
"1120 44 OFFCURVE",
"1119 46 OFFCURVE",
"1118 48 CURVE SMOOTH",
"1109 61 OFFCURVE",
"1104 73 OFFCURVE",
"1106 86 CURVE SMOOTH",
"1115 176 OFFCURVE",
"1279 340 OFFCURVE",
"1361 377 CURVE",
"1364 379 OFFCURVE",
"1370 381 OFFCURVE",
"1370 390 CURVE SMOOTH",
"1370 401 OFFCURVE",
"1354 417 OFFCURVE",
"1341 418 CURVE",
"1337 419 OFFCURVE",
"1316 408 OFFCURVE",
"1288 386 CURVE SMOOTH",
"1231 336 OFFCURVE",
"1094 192 OFFCURVE",
"1079 123 CURVE",
"1079 116 OFFCURVE",
"1075 108 OFFCURVE",
"1074 101 CURVE SMOOTH",
"1071 78 OFFCURVE",
"1080 60 OFFCURVE",
"1109 40 CURVE SMOOTH"
);
}
);
width = 1577;
},
{
anchors = (
{
name = bottom;
position = "{1191, -132}";
},
{
name = top;
position = "{1536, 571}";
}
);
layerId = "A14CB8BB-4075-44A2-8ACC-F29FBF19C8BE";
paths = (
{
closed = 1;
nodes = (
"1406 -132 OFFCURVE",
"1540 -100 OFFCURVE",
"1596 -9 CURVE SMOOTH",
"1613 18 OFFCURVE",
"1621 44 OFFCURVE",
"1621 71 CURVE SMOOTH",
"1621 160 OFFCURVE",
"1530 233 OFFCURVE",
"1406 259 CURVE",
"1460 272 OFFCURVE",
"1565 308 OFFCURVE",
"1634 339 CURVE SMOOTH",
"1723 378 OFFCURVE",
"1766 415 OFFCURVE",
"1766 449 CURVE SMOOTH",
"1766 515 OFFCURVE",
"1612 550 OFFCURVE",
"1391 550 CURVE SMOOTH",
"836 550 OFFCURVE",
"7 404 OFFCURVE",
"7 174 CURVE SMOOTH",
"7 100 OFFCURVE",
"133 52 OFFCURVE",
"228 52 CURVE SMOOTH",
"241 52 OFFCURVE",
"256 56 OFFCURVE",
"262 59 CURVE SMOOTH",
"264 60 OFFCURVE",
"267 64 OFFCURVE",
"267 67 CURVE SMOOTH",
"267 69 OFFCURVE",
"266 71 OFFCURVE",
"262 73 CURVE SMOOTH",
"258 74 OFFCURVE",
"251 75 OFFCURVE",
"240 75 CURVE SMOOTH",
"162 75 OFFCURVE",
"67 113 OFFCURVE",
"67 163 CURVE SMOOTH",
"67 375 OFFCURVE",
"889 525 OFFCURVE",
"1403 525 CURVE SMOOTH",
"1516 525 OFFCURVE",
"1697 496 OFFCURVE",
"1697 443 CURVE SMOOTH",
"1697 423 OFFCURVE",
"1673 397 OFFCURVE",
"1603 364 CURVE SMOOTH",
"1526 329 OFFCURVE",
"1425 288 OFFCURVE",
"1382 278 CURVE",
"1379 278 OFFCURVE",
"1367 279 OFFCURVE",
"1357 278 CURVE SMOOTH",
"1343 276 OFFCURVE",
"1330 270 OFFCURVE",
"1330 258 CURVE SMOOTH",
"1330 249 OFFCURVE",
"1345 221 OFFCURVE",
"1369 221 CURVE SMOOTH",
"1375 221 OFFCURVE",
"1377 222 OFFCURVE",
"1380 224 CURVE",
"1381 224 OFFCURVE",
"1381 224 OFFCURVE",
"1383 224 CURVE SMOOTH",
"1475 224 OFFCURVE",
"1569 168 OFFCURVE",
"1569 93 CURVE SMOOTH",
"1569 73 OFFCURVE",
"1563 53 OFFCURVE",
"1549 30 CURVE SMOOTH",
"1495 -54 OFFCURVE",
"1371 -86 OFFCURVE",
"1249 -86 CURVE SMOOTH",
"1176 -86 OFFCURVE",
"1105 -75 OFFCURVE",
"1052 -57 CURVE SMOOTH",
"909 -11 OFFCURVE",
"822 62 OFFCURVE",
"822 181 CURVE SMOOTH",
"822 198 OFFCURVE",
"824 216 OFFCURVE",
"827 234 CURVE",
"861 235 OFFCURVE",
"899 238 OFFCURVE",
"934 238 CURVE SMOOTH",
"950 238 OFFCURVE",
"967 237 OFFCURVE",
"982 235 CURVE SMOOTH",
"988 234 OFFCURVE",
"993 234 OFFCURVE",
"996 234 CURVE SMOOTH",
"1003 234 OFFCURVE",
"1006 235 OFFCURVE",
"1006 238 CURVE SMOOTH",
"1006 243 OFFCURVE",
"999 250 OFFCURVE",
"989 255 CURVE SMOOTH",
"972 263 OFFCURVE",
"910 263 OFFCURVE",
"889 263 CURVE SMOOTH",
"877 263 OFFCURVE",
"854 262 OFFCURVE",
"835 263 CURVE",
"838 275 LINE",
"849 278 OFFCURVE",
"854 285 OFFCURVE",
"854 291 CURVE SMOOTH",
"854 292 OFFCURVE",
"854 292 OFFCURVE",
"854 293 CURVE SMOOTH",
"853 299 OFFCURVE",
"848 304 OFFCURVE",
"842 304 CURVE SMOOTH",
"840 304 OFFCURVE",
"837 304 OFFCURVE",
"835 302 CURVE",
"833 300 OFFCURVE",
"826 301 OFFCURVE",
"817 301 CURVE SMOOTH",
"807 302 OFFCURVE",
"794 303 OFFCURVE",
"782 303 CURVE SMOOTH",
"755 303 OFFCURVE",
"731 296 OFFCURVE",
"731 275 CURVE SMOOTH",
"731 245 OFFCURVE",
"761 237 OFFCURVE",
"795 234 CURVE",
"789 216 OFFCURVE",
"787 198 OFFCURVE",
"787 180 CURVE SMOOTH",
"787 55 OFFCURVE",
"932 -54 OFFCURVE",
"1043 -95 CURVE SMOOTH",
"1105 -118 OFFCURVE",
"1191 -132 OFFCURVE",
"1278 -132 CURVE SMOOTH"
);
},
{
closed = 1;
nodes = (
"1109 36 OFFCURVE",
"1112 35 OFFCURVE",
"1115 35 CURVE SMOOTH",
"1121 35 OFFCURVE",
"1123 40 OFFCURVE",
"1123 45 CURVE SMOOTH",
"1123 48 OFFCURVE",
"1122 51 OFFCURVE",
"1121 53 CURVE SMOOTH",
"1113 66 OFFCURVE",
"1109 76 OFFCURVE",
"1110 87 CURVE SMOOTH",
"1119 173 OFFCURVE",
"1280 334 OFFCURVE",
"1361 370 CURVE",
"1368 376 OFFCURVE",
"1372 379 OFFCURVE",
"1372 386 CURVE",
"1374 400 OFFCURVE",
"1353 420 OFFCURVE",
"1338 420 CURVE SMOOTH",
"1329 420 OFFCURVE",
"1307 407 OFFCURVE",
"1283 387 CURVE SMOOTH",
"1208 325 OFFCURVE",
"1087 204 OFFCURVE",
"1068 103 CURVE SMOOTH",
"1067 99 OFFCURVE",
"1067 96 OFFCURVE",
"1067 92 CURVE SMOOTH",
"1067 72 OFFCURVE",
"1079 55 OFFCURVE",
"1105 38 CURVE SMOOTH"
);
}
);
width = 1577;
}
);
note = B;
unicode = 0042;
},
{
glyphname = C;
lastChange = "2021-05-20 10:17:24 +0000";
layers = (
{
anchors = (
{
name = bottom;
position = "{482, -115}";
},
{
name = top;
position = "{568, 556}";
}
);
layerId = "B8E2B95E-9E44-4943-9D49-9B6A251F446D";
paths = (
{
closed = 1;
nodes = (
"466 -126 OFFCURVE",
"482 -126 OFFCURVE",
"499 -125 CURVE SMOOTH",
"757 -115 OFFCURVE",
"1087 -10 OFFCURVE",
"1278 206 CURVE SMOOTH",
"1282 211 OFFCURVE",
"1280 216 OFFCURVE",
"1277 216 CURVE SMOOTH",
"1276 216 OFFCURVE",
"1275 216 OFFCURVE",
"1274 215 CURVE SMOOTH",
"1065 13 OFFCURVE",
"759 -69 OFFCURVE",
"494 -85 CURVE SMOOTH",
"464 -87 OFFCURVE",
"436 -88 OFFCURVE",
"410 -88 CURVE SMOOTH",
"162 -88 OFFCURVE",
"51 -13 OFFCURVE",
"51 109 CURVE SMOOTH",
"51 303 OFFCURVE",
"363 511 OFFCURVE",
"615 511 CURVE SMOOTH",
"628 511 OFFCURVE",
"640 510 OFFCURVE",
"653 509 CURVE SMOOTH",
"687 506 OFFCURVE",
"712 502 OFFCURVE",
"725 493 CURVE",
"698 474 OFFCURVE",
"674 455 OFFCURVE",
"658 433 CURVE SMOOTH",
"643 412 OFFCURVE",
"637 397 OFFCURVE",
"637 386 CURVE SMOOTH",
"637 370 OFFCURVE",
"649 363 OFFCURVE",
"667 363 CURVE SMOOTH",
"710 363 OFFCURVE",
"786 405 OFFCURVE",
"786 462 CURVE SMOOTH",
"786 477 OFFCURVE",
"779 487 OFFCURVE",
"764 499 CURVE",
"802 526 OFFCURVE",
"840 553 OFFCURVE",
"861 581 CURVE SMOOTH",
"865 587 OFFCURVE",
"867 591 OFFCURVE",
"867 594 CURVE SMOOTH",
"867 596 OFFCURVE",
"866 597 OFFCURVE",
"864 597 CURVE SMOOTH",
"860 597 OFFCURVE",
"851 592 OFFCURVE",
"842 582 CURVE SMOOTH",
"820 556 OFFCURVE",
"783 533 OFFCURVE",
"748 509 CURVE",
"729 522 OFFCURVE",
"678 542 OFFCURVE",
"640 543 CURVE SMOOTH",
"278 550 OFFCURVE",
"25 333 OFFCURVE",
"25 112 CURVE SMOOTH",
"25 -41 OFFCURVE",
"184 -126 OFFCURVE",
"450 -126 CURVE SMOOTH"
);
},
{
closed = 1;
nodes = (
"674 394 OFFCURVE",
"672 397 OFFCURVE",
"672 402 CURVE SMOOTH",
"672 409 OFFCURVE",
"676 420 OFFCURVE",
"681 427 CURVE SMOOTH",
"696 447 OFFCURVE",
"711 459 OFFCURVE",
"737 479 CURVE",
"736 470 OFFCURVE",
"734 434 OFFCURVE",
"698 404 CURVE SMOOTH",
"689 397 OFFCURVE",
"683 394 OFFCURVE",
"678 394 CURVE SMOOTH"
);
}
);
width = 1025;
},
{
anchors = (
{
name = bottom;
position = "{375, -109}";
},
{
name = top;
position = "{565, 550}";
}
);
layerId = "A14CB8BB-4075-44A2-8ACC-F29FBF19C8BE";
paths = (
{
closed = 1;
nodes = (
"468 -126 OFFCURVE",
"483 -126 OFFCURVE",
"500 -125 CURVE SMOOTH",
"757 -115 OFFCURVE",
"1086 -11 OFFCURVE",
"1277 203 CURVE SMOOTH",
"1279 206 OFFCURVE",
"1280 209 OFFCURVE",
"1280 212 CURVE SMOOTH",
"1280 214 OFFCURVE",
"1280 216 OFFCURVE",
"1279 217 CURVE SMOOTH",
"1277 222 OFFCURVE",
"1271 223 OFFCURVE",
"1266 219 CURVE SMOOTH",
"1060 21 OFFCURVE",
"757 -60 OFFCURVE",
"495 -76 CURVE SMOOTH",
"465 -78 OFFCURVE",
"438 -79 OFFCURVE",
"412 -79 CURVE SMOOTH",
"166 -79 OFFCURVE",
"61 -5 OFFCURVE",
"61 111 CURVE SMOOTH",
"61 298 OFFCURVE",
"366 502 OFFCURVE",
"615 502 CURVE SMOOTH",
"628 502 OFFCURVE",
"640 501 OFFCURVE",
"653 500 CURVE SMOOTH",
"681 498 OFFCURVE",
"702 495 OFFCURVE",
"715 489 CURVE",
"691 472 OFFCURVE",
"669 454 OFFCURVE",
"654 433 CURVE SMOOTH",
"639 412 OFFCURVE",
"632 396 OFFCURVE",
"632 384 CURVE SMOOTH",
"632 364 OFFCURVE",
"648 356 OFFCURVE",
"667 356 CURVE SMOOTH",
"711 356 OFFCURVE",
"790 399 OFFCURVE",
"790 459 CURVE SMOOTH",
"790 474 OFFCURVE",
"784 484 OFFCURVE",
"771 495 CURVE",
"788 507 OFFCURVE",
"805 519 OFFCURVE",
"821 532 CURVE SMOOTH",
"838 545 OFFCURVE",
"853 559 OFFCURVE",
"863 573 CURVE SMOOTH",
"868 580 OFFCURVE",
"870 584 OFFCURVE",
"870 589 CURVE SMOOTH",
"870 593 OFFCURVE",
"867 597 OFFCURVE",
"862 597 CURVE SMOOTH",
"855 597 OFFCURVE",
"845 590 OFFCURVE",
"837 581 CURVE SMOOTH",
"826 568 OFFCURVE",
"812 557 OFFCURVE",
"796 545 CURVE SMOOTH",
"780 533 OFFCURVE",
"764 522 OFFCURVE",
"747 511 CURVE",
"726 524 OFFCURVE",
"677 543 OFFCURVE",
"640 544 CURVE SMOOTH",
"280 551 OFFCURVE",
"25 336 OFFCURVE",
"25 114 CURVE SMOOTH",
"25 -42 OFFCURVE",
"188 -126 OFFCURVE",
"452 -126 CURVE SMOOTH"
);
},
{
closed = 1;
nodes = (
"677 406 OFFCURVE",
"680 415 OFFCURVE",
"685 421 CURVE SMOOTH",
"697 438 OFFCURVE",
"710 449 OFFCURVE",
"730 465 CURVE",
"726 441 OFFCURVE",
"713 421 OFFCURVE",
"695 406 CURVE SMOOTH",
"686 399 OFFCURVE",
"681 396 OFFCURVE",
"679 396 CURVE SMOOTH",
"678 396 OFFCURVE",
"677 396 OFFCURVE",
"677 400 CURVE SMOOTH"
);
}
);
width = 1025;
}
);
note = C;
unicode = 0043;
},
{
glyphname = D;
lastChange = "2021-05-20 10:17:24 +0000";
layers = (
{
anchors = (
{
name = bottom;
position = "{1357, -83}";
},
{
name = center;
position = "{965, 353}";
},
{
name = top;
position = "{1451, 541}";
}
);
layerId = "B8E2B95E-9E44-4943-9D49-9B6A251F446D";
paths = (
{
closed = 1;
nodes = (
"1490 -95 OFFCURVE",
"1999 -28 OFFCURVE",
"1999 195 CURVE SMOOTH",
"1999 279 OFFCURVE",
"1949 342 OFFCURVE",
"1875 390 CURVE SMOOTH",
"1745 474 OFFCURVE",
"1507 510 OFFCURVE",
"1245 510 CURVE SMOOTH",
"686 510 OFFCURVE",
"14 349 OFFCURVE",
"14 154 CURVE SMOOTH",
"14 84 OFFCURVE",
"135 25 OFFCURVE",
"220 25 CURVE SMOOTH",
"241 25 OFFCURVE",
"265 26 OFFCURVE",
"280 32 CURVE SMOOTH",
"286 34 OFFCURVE",
"289 37 OFFCURVE",
"289 40 CURVE SMOOTH",
"289 45 OFFCURVE",
"280 49 OFFCURVE",
"269 49 CURVE SMOOTH",
"268 49 OFFCURVE",
"268 49 OFFCURVE",
"267 49 CURVE SMOOTH",
"247 48 OFFCURVE",
"222 50 OFFCURVE",
"217 50 CURVE SMOOTH",
"149 50 OFFCURVE",
"43 80 OFFCURVE",
"44 137 CURVE SMOOTH",
"46 299 OFFCURVE",
"736 483 OFFCURVE",
"1293 483 CURVE SMOOTH",
"1523 483 OFFCURVE",
"1729 452 OFFCURVE",
"1856 375 CURVE SMOOTH",
"1939 325 OFFCURVE",
"1972 275 OFFCURVE",
"1972 228 CURVE SMOOTH",
"1972 173 OFFCURVE",
"1926 122 OFFCURVE",
"1863 83 CURVE SMOOTH",
"1708 -14 OFFCURVE",
"1433 -59 OFFCURVE",
"1328 -62 CURVE SMOOTH",
"1251 -64 OFFCURVE",
"1175 -56 OFFCURVE",
"1088 -33 CURVE SMOOTH",
"1079 -31 OFFCURVE",
"1073 -29 OFFCURVE",
"1069 -29 CURVE SMOOTH",
"1067 -29 OFFCURVE",
"1066 -30 OFFCURVE",
"1066 -31 CURVE SMOOTH",
"1066 -34 OFFCURVE",
"1071 -39 OFFCURVE",
"1082 -45 CURVE SMOOTH",
"1144 -78 OFFCURVE",
"1234 -95 OFFCURVE",
"1333 -95 CURVE SMOOTH"
);
},
{
closed = 1;
nodes = (
"896 -104 OFFCURVE",
"905 -106 OFFCURVE",
"913 -97 CURVE SMOOTH",
"937 -71 OFFCURVE",
"986 -35 OFFCURVE",
"1002 -24 CURVE SMOOTH",
"1022 -11 OFFCURVE",
"1042 1 OFFCURVE",
"1051 11 CURVE SMOOTH",
"1058 18 OFFCURVE",
"1055 21 OFFCURVE",
"1047 17 CURVE",
"1010 -8 OFFCURVE",
"941 -42 OFFCURVE",
"923 -51 CURVE SMOOTH",
"913 -57 OFFCURVE",
"905 -61 OFFCURVE",
"901 -61 CURVE SMOOTH",
"899 -61 OFFCURVE",
"898 -60 OFFCURVE",
"898 -58 CURVE SMOOTH",
"898 -54 OFFCURVE",
"901 -48 OFFCURVE",
"908 -37 CURVE SMOOTH",
"953 34 OFFCURVE",
"1019 118 OFFCURVE",
"1086 192 CURVE SMOOTH",
"1126 237 OFFCURVE",
"1189 309 OFFCURVE",
"1189 312 CURVE SMOOTH",
"1189 322 OFFCURVE",
"1168 347 OFFCURVE",
"1158 347 CURVE SMOOTH",
"1155 347 OFFCURVE",
"1115 325 OFFCURVE",
"1085 293 CURVE SMOOTH",
"1082 290 OFFCURVE",
"1080 285 OFFCURVE",
"1080 281 CURVE SMOOTH",
"1080 279 OFFCURVE",
"1080 277 OFFCURVE",
"1082 276 CURVE SMOOTH",
"1088 271 OFFCURVE",
"1089 272 OFFCURVE",
"1083 264 CURVE SMOOTH",
"1031 202 OFFCURVE",
"965 118 OFFCURVE",
"925 65 CURVE SMOOTH",
"909 44 OFFCURVE",
"857 -29 OFFCURVE",
"857 -58 CURVE SMOOTH",
"857 -73 OFFCURVE",
"875 -97 OFFCURVE",
"893 -103 CURVE SMOOTH"
);
}
);
width = 1929;
},
{
anchors = (
{
name = bottom;
position = "{1364, -104}";
},
{
name = center;
position = "{965, 337}";
},
{
name = top;
position = "{1544, 515}";
}
);
layerId = "A14CB8BB-4075-44A2-8ACC-F29FBF19C8BE";
paths = (
{
closed = 1;
nodes = (
"1485 -95 OFFCURVE",
"1999 -30 OFFCURVE",
"1999 195 CURVE SMOOTH",
"1999 280 OFFCURVE",
"1948 343 OFFCURVE",
"1873 391 CURVE SMOOTH",
"1743 475 OFFCURVE",
"1505 510 OFFCURVE",
"1244 510 CURVE SMOOTH",
"691 510 OFFCURVE",
"14 353 OFFCURVE",
"14 155 CURVE SMOOTH",
"14 81 OFFCURVE",
"139 23 OFFCURVE",
"224 23 CURVE SMOOTH",
"245 23 OFFCURVE",
"269 24 OFFCURVE",
"285 30 CURVE SMOOTH",
"292 33 OFFCURVE",
"297 38 OFFCURVE",
"297 43 CURVE SMOOTH",
"297 45 OFFCURVE",
"296 48 OFFCURVE",
"294 50 CURVE SMOOTH",
"290 53 OFFCURVE",
"282 56 OFFCURVE",
"274 56 CURVE SMOOTH",
"273 56 OFFCURVE",
"271 56 OFFCURVE",
"270 56 CURVE SMOOTH",
"251 55 OFFCURVE",
"226 57 OFFCURVE",
"221 57 CURVE SMOOTH",
"152 57 OFFCURVE",
"53 88 OFFCURVE",
"54 138 CURVE SMOOTH",
"56 291 OFFCURVE",
"734 474 OFFCURVE",
"1292 474 CURVE SMOOTH",
"1520 474 OFFCURVE",
"1724 443 OFFCURVE",
"1849 368 CURVE SMOOTH",
"1931 319 OFFCURVE",
"1962 271 OFFCURVE",
"1962 228 CURVE SMOOTH",
"1962 176 OFFCURVE",
"1918 128 OFFCURVE",
"1856 89 CURVE SMOOTH",
"1703 -5 OFFCURVE",
"1430 -50 OFFCURVE",
"1326 -53 CURVE SMOOTH",
"1250 -55 OFFCURVE",
"1175 -48 OFFCURVE",
"1089 -24 CURVE SMOOTH",
"1083 -23 OFFCURVE",
"1078 -22 OFFCURVE",
"1073 -22 CURVE SMOOTH",
"1065 -22 OFFCURVE",
"1060 -24 OFFCURVE",
"1060 -28 CURVE SMOOTH",
"1060 -32 OFFCURVE",
"1066 -38 OFFCURVE",
"1079 -45 CURVE SMOOTH",
"1142 -79 OFFCURVE",
"1233 -95 OFFCURVE",
"1331 -95 CURVE SMOOTH"
);
},
{
closed = 1;
nodes = (
"896 -104 OFFCURVE",
"907 -106 OFFCURVE",
"917 -96 CURVE SMOOTH",
"940 -70 OFFCURVE",
"989 -35 OFFCURVE",
"1005 -24 CURVE SMOOTH",
"1015 -18 OFFCURVE",
"1025 -12 OFFCURVE",
"1033 -6 CURVE SMOOTH",
"1042 0 OFFCURVE",
"1049 5 OFFCURVE",
"1054 11 CURVE SMOOTH",
"1058 15 OFFCURVE",
"1059 18 OFFCURVE",
"1059 20 CURVE SMOOTH",
"1059 24 OFFCURVE",
"1056 26 OFFCURVE",
"1052 26 CURVE SMOOTH",
"1050 26 OFFCURVE",
"1047 25 OFFCURVE",
"1044 24 CURVE",
"1026 12 OFFCURVE",
"1000 -2 OFFCURVE",
"976 -15 CURVE SMOOTH",
"952 -27 OFFCURVE",
"930 -38 OFFCURVE",
"921 -43 CURVE SMOOTH",
"916 -46 OFFCURVE",
"912 -47 OFFCURVE",
"910 -47 CURVE SMOOTH",
"909 -47 OFFCURVE",
"908 -47 OFFCURVE",
"908 -46 CURVE SMOOTH",
"908 -45 OFFCURVE",
"909 -41 OFFCURVE",
"913 -36 CURVE SMOOTH",
"957 34 OFFCURVE",
"1023 116 OFFCURVE",
"1089 189 CURVE SMOOTH",
"1128 231 OFFCURVE",
"1193 305 OFFCURVE",
"1193 310 CURVE SMOOTH",
"1193 322 OFFCURVE",
"1171 350 OFFCURVE",
"1157 350 CURVE SMOOTH",
"1152 350 OFFCURVE",
"1110 327 OFFCURVE",
"1081 295 CURVE SMOOTH",
"1078 291 OFFCURVE",
"1075 286 OFFCURVE",
"1075 281 CURVE SMOOTH",
"1075 277 OFFCURVE",
"1077 272 OFFCURVE",
"1082 268 CURVE",
"1029 208 OFFCURVE",
"962 123 OFFCURVE",
"921 70 CURVE SMOOTH",
"906 50 OFFCURVE",
"853 -23 OFFCURVE",
"853 -54 CURVE SMOOTH",
"853 -71 OFFCURVE",
"872 -96 OFFCURVE",
"892 -103 CURVE SMOOTH"
);
}
);
width = 1929;
}
);
note = D;
unicode = 0044;
},
{
glyphname = E;
lastChange = "2021-05-20 10:17:24 +0000";
layers = (
{
anchors = (
{
name = bottom;
position = "{449, -95}";
},
{
name = ogonek;
position = "{512, -102}";
},
{
name = top;
position = "{907, 451}";
},
{
name = topleft;
position = "{20, 705}";
}
);
layerId = "B8E2B95E-9E44-4943-9D49-9B6A251F446D";
paths = (
{
closed = 1;
nodes = (
"561 -112 OFFCURVE",
"574 -111 OFFCURVE",
"588 -111 CURVE SMOOTH",
"734 -107 OFFCURVE",
"912 -68 OFFCURVE",
"1068 9 CURVE SMOOTH",
"1157 53 OFFCURVE",
"1239 108 OFFCURVE",
"1302 177 CURVE SMOOTH",
"1306 181 OFFCURVE",
"1304 186 OFFCURVE",
"1301 186 CURVE SMOOTH",
"1300 186 OFFCURVE",
"1299 186 OFFCURVE",
"1298 185 CURVE SMOOTH",
"1101 3 OFFCURVE",
"801 -78 OFFCURVE",
"569 -78 CURVE SMOOTH",
"503 -78 OFFCURVE",
"447 -74 OFFCURVE",
"401 -65 CURVE SMOOTH",
"275 -41 OFFCURVE",
"227 11 OFFCURVE",
"227 72 CURVE SMOOTH",
"227 108 OFFCURVE",
"237 142 OFFCURVE",
"255 172 CURVE",
"281 172 OFFCURVE",
"308 172 OFFCURVE",
"337 172 CURVE SMOOTH",
"447 172 OFFCURVE",
"568 174 OFFCURVE",
"631 186 CURVE SMOOTH",
"664 192 OFFCURVE",
"677 197 OFFCURVE",
"677 200 CURVE SMOOTH",
"677 202 OFFCURVE",
"673 203 OFFCURVE",
"666 203 CURVE SMOOTH",
"663 203 OFFCURVE",
"661 203 OFFCURVE",
"658 203 CURVE SMOOTH",
"619 199 OFFCURVE",
"556 198 OFFCURVE",
"489 198 CURVE SMOOTH",
"416 198 OFFCURVE",
"337 199 OFFCURVE",
"275 202 CURVE",
"361 310 OFFCURVE",
"547 374 OFFCURVE",
"714 403 CURVE",
"838 366 OFFCURVE",
"978 329 OFFCURVE",
"1090 314 CURVE SMOOTH",
"1099 313 OFFCURVE",
"1106 312 OFFCURVE",
"1113 312 CURVE SMOOTH",
"1149 312 OFFCURVE",
"1161 330 OFFCURVE",
"1161 348 CURVE SMOOTH",
"1161 356 OFFCURVE",
"1159 363 OFFCURVE",
"1155 369 CURVE SMOOTH",
"1130 409 OFFCURVE",
"1051 445 OFFCURVE",
"931 450 CURVE SMOOTH",
"919 450 OFFCURVE",
"907 451 OFFCURVE",
"894 451 CURVE SMOOTH",
"831 451 OFFCURVE",
"762 444 OFFCURVE",
"693 432 CURVE",
"640 449 OFFCURVE",
"591 465 OFFCURVE",
"556 478 CURVE SMOOTH",
"458 514 OFFCURVE",
"320 550 OFFCURVE",
"209 550 CURVE SMOOTH",
"125 550 OFFCURVE",
"55 530 OFFCURVE",
"30 474 CURVE SMOOTH",
"26 466 OFFCURVE",
"25 458 OFFCURVE",
"25 448 CURVE SMOOTH",
"25 425 OFFCURVE",
"35 397 OFFCURVE",
"57 369 CURVE SMOOTH",
"90 330 OFFCURVE",
"180 286 OFFCURVE",
"209 280 CURVE",
"224 275 OFFCURVE",
"201 294 OFFCURVE",
"187 299 CURVE",
"150 318 OFFCURVE",
"102 347 OFFCURVE",
"77 374 CURVE SMOOTH",
"54 396 OFFCURVE",
"46 415 OFFCURVE",
"46 432 CURVE SMOOTH",
"46 440 OFFCURVE",
"47 446 OFFCURVE",
"50 453 CURVE SMOOTH",
"71 501 OFFCURVE",
"134 519 OFFCURVE",
"212 519 CURVE SMOOTH",
"326 519 OFFCURVE",
"473 481 OFFCURVE",
"568 450 CURVE SMOOTH",
"593 441 OFFCURVE",
"620 433 OFFCURVE",
"648 424 CURVE",
"472 386 OFFCURVE",
"300 311 OFFCURVE",
"220 205 CURVE",
"201 207 OFFCURVE",
"186 208 OFFCURVE",
"176 210 CURVE SMOOTH",
"152 217 OFFCURVE",
"128 221 OFFCURVE",
"108 221 CURVE SMOOTH",
"83 221 OFFCURVE",
"65 215 OFFCURVE",
"66 201 CURVE SMOOTH",
"68 186 OFFCURVE",
"78 174 OFFCURVE",
"116 174 CURVE SMOOTH",
"134 174 OFFCURVE",
"164 173 OFFCURVE",
"199 173 CURVE",
"181 141 OFFCURVE",
"172 108 OFFCURVE",
"172 72 CURVE SMOOTH",
"172 -32 OFFCURVE",
"301 -112 OFFCURVE",
"548 -112 CURVE SMOOTH"
);
},
{
closed = 1;
nodes = (
"1081 333 OFFCURVE",
"1074 334 OFFCURVE",
"1067 335 CURVE SMOOTH",
"997 345 OFFCURVE",
"876 377 OFFCURVE",
"763 411 CURVE",
"821 418 OFFCURVE",
"874 422 OFFCURVE",
"918 422 CURVE SMOOTH",
"1016 422 OFFCURVE",
"1097 404 OFFCURVE",
"1120 370 CURVE SMOOTH",
"1122 367 OFFCURVE",
"1123 362 OFFCURVE",
"1123 358 CURVE SMOOTH",
"1123 346 OFFCURVE",
"1114 333 OFFCURVE",
"1087 333 CURVE SMOOTH"
);
}
);
width = 1075;
},
{
anchors = (
{
name = bottom;
position = "{553, -101}";
},
{
name = ogonek;
position = "{567, -94}";
},
{
name = top;
position = "{858, 461}";
},
{
name = topleft;
position = "{20, 673}";
}
);
layerId = "A14CB8BB-4075-44A2-8ACC-F29FBF19C8BE";
paths = (
{
closed = 1;
nodes = (
"562 -112 OFFCURVE",
"575 -111 OFFCURVE",
"589 -111 CURVE SMOOTH",
"734 -107 OFFCURVE",
"912 -69 OFFCURVE",
"1067 8 CURVE SMOOTH",
"1156 51 OFFCURVE",
"1237 106 OFFCURVE",
"1301 174 CURVE SMOOTH",
"1303 177 OFFCURVE",
"1304 180 OFFCURVE",
"1304 182 CURVE SMOOTH",
"1304 184 OFFCURVE",
"1304 186 OFFCURVE",
"1303 187 CURVE SMOOTH",
"1301 190 OFFCURVE",
"1298 191 OFFCURVE",
"1296 191 CURVE SMOOTH",
"1294 191 OFFCURVE",
"1292 191 OFFCURVE",
"1290 189 CURVE SMOOTH",
"1095 11 OFFCURVE",
"800 -69 OFFCURVE",
"569 -69 CURVE SMOOTH",
"505 -69 OFFCURVE",
"449 -65 OFFCURVE",
"404 -56 CURVE SMOOTH",
"280 -32 OFFCURVE",
"235 18 OFFCURVE",
"235 74 CURVE SMOOTH",
"235 108 OFFCURVE",
"244 140 OFFCURVE",
"261 168 CURVE",
"340 168 LINE SMOOTH",
"449 168 OFFCURVE",
"569 170 OFFCURVE",
"632 182 CURVE SMOOTH",
"661 187 OFFCURVE",
"676 192 OFFCURVE",
"680 197 CURVE SMOOTH",
"685 202 OFFCURVE",
"682 209 OFFCURVE",
"667 209 CURVE SMOOTH",
"664 209 OFFCURVE",
"661 209 OFFCURVE",
"658 208 CURVE SMOOTH",
"619 205 OFFCURVE",
"557 203 OFFCURVE",
"490 203 CURVE SMOOTH",
"422 203 OFFCURVE",
"348 204 OFFCURVE",
"288 207 CURVE",
"375 307 OFFCURVE",
"552 367 OFFCURVE",
"713 395 CURVE",
"836 359 OFFCURVE",
"975 324 OFFCURVE",
"1086 308 CURVE SMOOTH",
"1094 307 OFFCURVE",
"1102 306 OFFCURVE",
"1109 306 CURVE SMOOTH",
"1148 306 OFFCURVE",
"1162 326 OFFCURVE",
"1162 346 CURVE SMOOTH",
"1162 354 OFFCURVE",
"1159 362 OFFCURVE",
"1155 369 CURVE SMOOTH",
"1129 411 OFFCURVE",
"1049 447 OFFCURVE",
"929 451 CURVE SMOOTH",
"917 452 OFFCURVE",
"905 452 OFFCURVE",
"892 452 CURVE SMOOTH",
"830 452 OFFCURVE",
"761 446 OFFCURVE",
"693 434 CURVE",
"641 450 OFFCURVE",
"593 466 OFFCURVE",
"559 479 CURVE SMOOTH",
"461 514 OFFCURVE",
"324 550 OFFCURVE",
"213 550 CURVE SMOOTH",
"129 550 OFFCURVE",
"57 530 OFFCURVE",
"30 472 CURVE SMOOTH",
"27 464 OFFCURVE",
"25 454 OFFCURVE",
"25 444 CURVE SMOOTH",
"25 420 OFFCURVE",
"35 391 OFFCURVE",
"58 364 CURVE SMOOTH",
"91 324 OFFCURVE",
"181 281 OFFCURVE",
"211 274 CURVE",
"213 274 OFFCURVE",
"215 273 OFFCURVE",
"217 273 CURVE",
"220 274 OFFCURVE",
"223 276 OFFCURVE",
"222 280 CURVE SMOOTH",
"222 282 OFFCURVE",
"220 285 OFFCURVE",
"216 289 CURVE",
"210 293 OFFCURVE",
"200 300 OFFCURVE",
"193 302 CURVE",
"156 321 OFFCURVE",
"110 350 OFFCURVE",
"85 375 CURVE SMOOTH",
"64 397 OFFCURVE",
"55 415 OFFCURVE",
"55 431 CURVE SMOOTH",
"55 437 OFFCURVE",
"57 443 OFFCURVE",
"59 448 CURVE SMOOTH",
"78 492 OFFCURVE",
"138 510 OFFCURVE",
"216 510 CURVE SMOOTH",
"328 510 OFFCURVE",
"473 473 OFFCURVE",
"567 442 CURVE SMOOTH",
"587 435 OFFCURVE",
"608 429 OFFCURVE",
"629 422 CURVE",
"462 383 OFFCURVE",
"300 312 OFFCURVE",
"221 210 CURVE",
"213 211 OFFCURVE",
"205 212 OFFCURVE",
"199 212 CURVE SMOOTH",
"192 213 OFFCURVE",
"186 214 OFFCURVE",
"181 215 CURVE SMOOTH",
"157 221 OFFCURVE",
"133 226 OFFCURVE",
"112 226 CURVE SMOOTH",
"85 226 OFFCURVE",
"66 218 OFFCURVE",
"66 203 CURVE SMOOTH",
"66 183 OFFCURVE",
"81 170 OFFCURVE",
"120 170 CURVE SMOOTH",
"137 170 OFFCURVE",
"163 169 OFFCURVE",
"194 169 CURVE",
"179 139 OFFCURVE",
"171 108 OFFCURVE",
"171 74 CURVE SMOOTH",
"171 -33 OFFCURVE",
"304 -112 OFFCURVE",
"549 -112 CURVE SMOOTH"
);
},
{
closed = 1;
nodes = (
"1000 348 OFFCURVE",
"892 375 OFFCURVE",
"787 406 CURVE",
"834 411 OFFCURVE",
"877 414 OFFCURVE",
"915 414 CURVE SMOOTH",
"1014 414 OFFCURVE",
"1092 396 OFFCURVE",
"1112 365 CURVE SMOOTH",
"1113 363 OFFCURVE",
"1114 360 OFFCURVE",
"1114 357 CURVE SMOOTH",
"1114 348 OFFCURVE",
"1107 337 OFFCURVE",
"1082 337 CURVE SMOOTH",
"1077 337 OFFCURVE",
"1072 337 OFFCURVE",
"1065 338 CURVE SMOOTH"
);
}
);
width = 1075;
}
);
note = E;
unicode = 0045;
},
{
glyphname = F;
lastChange = "2021-05-20 10:17:24 +0000";
layers = (
{
anchors = (
{
name = bottom;
position = "{877, -124}";
},
{
name = top;
position = "{1276, 499}";
}
);
layerId = "B8E2B95E-9E44-4943-9D49-9B6A251F446D";
paths = (
{
closed = 1;
nodes = (
"882 -124 OFFCURVE",
"891 -120 OFFCURVE",
"898 -114 CURVE SMOOTH",
"969 -57 OFFCURVE",
"1095 56 OFFCURVE",
"1183 172 CURVE",
"1208 176 OFFCURVE",
"1328 193 OFFCURVE",
"1351 195 CURVE SMOOTH",
"1356 196 OFFCURVE",
"1358 199 OFFCURVE",
"1358 202 CURVE SMOOTH",
"1358 205 OFFCURVE",
"1356 208 OFFCURVE",
"1352 208 CURVE SMOOTH",
"1352 208 OFFCURVE",
"1351 208 OFFCURVE",
"1351 208 CURVE SMOOTH",
"1198 191 LINE",
"1246 256 OFFCURVE",
"1276 321 OFFCURVE",
"1276 374 CURVE SMOOTH",
"1276 499 OFFCURVE",
"1133 530 OFFCURVE",
"944 530 CURVE SMOOTH",
"605 530 OFFCURVE",
"12 464 OFFCURVE",
"12 227 CURVE SMOOTH",
"12 160 OFFCURVE",
"116 122 OFFCURVE",
"203 122 CURVE SMOOTH",
"220 122 OFFCURVE",
"290 123 OFFCURVE",
"309 128 CURVE SMOOTH",
"318 130 OFFCURVE",
"321 133 OFFCURVE",
"321 135 CURVE SMOOTH",
"321 138 OFFCURVE",
"314 141 OFFCURVE",
"304 141 CURVE SMOOTH",
"302 141 OFFCURVE",
"300 141 OFFCURVE",
"298 141 CURVE SMOOTH",
"285 140 OFFCURVE",
"270 139 OFFCURVE",
"256 139 CURVE SMOOTH",
"155 139 OFFCURVE",
"42 168 OFFCURVE",
"42 228 CURVE SMOOTH",
"42 424 OFFCURVE",
"697 513 OFFCURVE",
"966 513 CURVE SMOOTH",
"1142 513 OFFCURVE",
"1234 472 OFFCURVE",
"1234 386 CURVE SMOOTH",
"1234 335 OFFCURVE",
"1202 268 OFFCURVE",
"1135 186 CURVE",
"1050 180 OFFCURVE",
"957 177 OFFCURVE",
"872 177 CURVE SMOOTH",
"826 177 OFFCURVE",
"782 178 OFFCURVE",
"744 180 CURVE SMOOTH",
"722 181 OFFCURVE",
"711 173 OFFCURVE",
"711 164 CURVE SMOOTH",
"711 152 OFFCURVE",
"731 136 OFFCURVE",
"772 134 CURVE SMOOTH",
"788 133 OFFCURVE",
"805 132 OFFCURVE",
"822 132 CURVE SMOOTH",
"914 132 OFFCURVE",
"1018 147 OFFCURVE",
"1117 162 CURVE",
"1030 46 OFFCURVE",
"925 -63 OFFCURVE",
"886 -100 CURVE SMOOTH",
"876 -109 OFFCURVE",
"872 -116 OFFCURVE",
"872 -120 CURVE SMOOTH",
"872 -123 OFFCURVE",
"874 -124 OFFCURVE",
"877 -124 CURVE SMOOTH"
);
}
);
width = 1233;
},
{
anchors = (
{
name = bottom;
position = "{872, -113}";
},
{
name = top;
position = "{1233, 533}";
}
);
layerId = "A14CB8BB-4075-44A2-8ACC-F29FBF19C8BE";
paths = (
{
closed = 1;
nodes = (
"970 -57 OFFCURVE",
"1094 54 OFFCURVE",
"1182 168 CURVE",
"1211 172 OFFCURVE",
"1324 188 OFFCURVE",
"1347 190 CURVE SMOOTH",
"1354 191 OFFCURVE",
"1358 197 OFFCURVE",
"1358 202 CURVE SMOOTH",
"1358 208 OFFCURVE",
"1354 213 OFFCURVE",
"1348 213 CURVE SMOOTH",
"1347 213 OFFCURVE",
"1347 213 OFFCURVE",
"1346 213 CURVE SMOOTH",
"1205 197 LINE",
"1249 259 OFFCURVE",
"1277 320 OFFCURVE",
"1277 372 CURVE SMOOTH",
"1277 500 OFFCURVE",
"1128 530 OFFCURVE",
"942 530 CURVE SMOOTH",
"609 530 OFFCURVE",
"12 466 OFFCURVE",
"12 227 CURVE SMOOTH",
"12 155 OFFCURVE",
"121 118 OFFCURVE",
"207 118 CURVE SMOOTH",
"223 118 OFFCURVE",
"293 119 OFFCURVE",
"313 124 CURVE SMOOTH",
"319 126 OFFCURVE",
"323 128 OFFCURVE",
"326 130 CURVE SMOOTH",
"330 134 OFFCURVE",
"329 139 OFFCURVE",
"326 142 CURVE SMOOTH",
"322 145 OFFCURVE",
"314 147 OFFCURVE",
"306 147 CURVE SMOOTH",
"304 147 OFFCURVE",
"302 147 OFFCURVE",
"300 147 CURVE SMOOTH",
"288 146 OFFCURVE",
"273 145 OFFCURVE",
"259 145 CURVE SMOOTH",
"157 145 OFFCURVE",
"52 174 OFFCURVE",
"52 228 CURVE SMOOTH",
"52 414 OFFCURVE",
"693 503 OFFCURVE",
"964 503 CURVE SMOOTH",
"1140 503 OFFCURVE",
"1225 463 OFFCURVE",
"1225 383 CURVE SMOOTH",
"1225 335 OFFCURVE",
"1195 271 OFFCURVE",
"1129 191 CURVE",
"1046 185 OFFCURVE",
"954 182 OFFCURVE",
"871 182 CURVE SMOOTH",
"825 182 OFFCURVE",
"781 183 OFFCURVE",
"744 185 CURVE SMOOTH",
"722 186 OFFCURVE",
"706 178 OFFCURVE",
"706 165 CURVE SMOOTH",
"706 148 OFFCURVE",
"731 132 OFFCURVE",
"771 130 CURVE SMOOTH",
"787 129 OFFCURVE",
"804 128 OFFCURVE",
"821 128 CURVE SMOOTH",
"909 128 OFFCURVE",
"1008 142 OFFCURVE",
"1103 156 CURVE",
"1018 46 OFFCURVE",
"919 -57 OFFCURVE",
"881 -92 CURVE SMOOTH",
"865 -107 OFFCURVE",
"859 -117 OFFCURVE",
"859 -122 CURVE SMOOTH",
"859 -126 OFFCURVE",
"862 -128 OFFCURVE",
"867 -128 CURVE SMOOTH",
"875 -128 OFFCURVE",
"888 -122 OFFCURVE",
"900 -113 CURVE SMOOTH"
);
}
);
width = 1233;
}
);
note = F;
unicode = 0046;
},
{
glyphname = G;
lastChange = "2021-05-20 10:17:24 +0000";
layers = (
{
anchors = (
{
name = bottom;
position = "{490, -484}";
},
{
name = top;
position = "{854, 529}";
}
);
layerId = "B8E2B95E-9E44-4943-9D49-9B6A251F446D";
paths = (
{
closed = 1;
nodes = (
"710 -495 OFFCURVE",
"967 -211 OFFCURVE",
"1081 19 CURVE",
"1101 20 OFFCURVE",
"1121 20 OFFCURVE",
"1141 18 CURVE SMOOTH",
"1186 15 OFFCURVE",
"1230 5 OFFCURVE",
"1239 -14 CURVE",
"1241 -20 OFFCURVE",
"1250 -16 OFFCURVE",
"1250 -11 CURVE SMOOTH",
"1250 -10 OFFCURVE",
"1250 -9 OFFCURVE",
"1249 -8 CURVE",
"1239 17 OFFCURVE",
"1190 30 OFFCURVE",
"1144 36 CURVE SMOOTH",
"1126 38 OFFCURVE",
"1109 39 OFFCURVE",
"1091 40 CURVE",
"1100 59 LINE SMOOTH",
"1135 132 OFFCURVE",
"1148 202 OFFCURVE",
"1148 253 CURVE SMOOTH",
"1148 303 OFFCURVE",
"1132 335 OFFCURVE",
"1102 335 CURVE SMOOTH",
"1072 335 OFFCURVE",
"1063 318 OFFCURVE",
"1063 307 CURVE SMOOTH",
"1063 303 OFFCURVE",
"1065 300 OFFCURVE",
"1067 299 CURVE",
"1068 299 OFFCURVE",
"1069 298 OFFCURVE",
"1070 298 CURVE",
"992 142 OFFCURVE",
"642 -32 OFFCURVE",
"412 -32 CURVE SMOOTH",
"292 -32 OFFCURVE",
"191 13 OFFCURVE",
"191 95 CURVE SMOOTH",
"191 129 OFFCURVE",
"209 168 OFFCURVE",
"249 214 CURVE",
"498 214 OFFCURVE",
"763 302 OFFCURVE",
"876 388 CURVE SMOOTH",
"904 410 OFFCURVE",
"947 448 OFFCURVE",
"947 483 CURVE SMOOTH",
"947 518 OFFCURVE",
"905 529 OFFCURVE",
"854 529 CURVE SMOOTH",
"653 529 OFFCURVE",
"378 409 OFFCURVE",
"250 280 CURVE SMOOTH",
"236 265 OFFCURVE",
"223 251 OFFCURVE",
"212 237 CURVE",
"119 252 OFFCURVE",
"77 300 OFFCURVE",
"77 353 CURVE SMOOTH",
"77 395 OFFCURVE",
"115 449 OFFCURVE",
"167 480 CURVE SMOOTH",
"176 485 OFFCURVE",
"172 488 OFFCURVE",
"166 488 CURVE SMOOTH",
"161 488 OFFCURVE",
"154 487 OFFCURVE",
"149 484 CURVE SMOOTH",
"93 454 OFFCURVE",
"63 398 OFFCURVE",
"63 353 CURVE SMOOTH",
"63 294 OFFCURVE",
"103 237 OFFCURVE",
"200 219 CURVE",
"170 176 OFFCURVE",
"156 134 OFFCURVE",
"156 97 CURVE SMOOTH",
"156 7 OFFCURVE",
"241 -57 OFFCURVE",
"401 -57 CURVE SMOOTH",
"645 -57 OFFCURVE",
"1007 106 OFFCURVE",
"1084 285 CURVE",
"1090 274 OFFCURVE",
"1093 256 OFFCURVE",
"1093 235 CURVE SMOOTH",
"1093 179 OFFCURVE",
"1073 99 OFFCURVE",
"1043 38 CURVE",
"1022 37 OFFCURVE",
"1002 34 OFFCURVE",
"981 29 CURVE SMOOTH",
"807 -11 OFFCURVE",
"378 -163 OFFCURVE",
"344 -381 CURVE SMOOTH",
"343 -387 OFFCURVE",
"343 -393 OFFCURVE",
"343 -399 CURVE SMOOTH",
"343 -473 OFFCURVE",
"417 -499 OFFCURVE",
"482 -497 CURVE SMOOTH"
);
},
{
closed = 1;
nodes = (
"405 -479 OFFCURVE",
"364 -448 OFFCURVE",
"364 -400 CURVE SMOOTH",
"364 -353 OFFCURVE",
"403 -289 OFFCURVE",
"497 -219 CURVE SMOOTH",
"641 -112 OFFCURVE",
"826 -25 OFFCURVE",
"976 5 CURVE SMOOTH",
"994 9 OFFCURVE",
"1012 12 OFFCURVE",
"1030 14 CURVE",
"927 -179 OFFCURVE",
"689 -479 OFFCURVE",
"466 -479 CURVE SMOOTH"
);
},
{
closed = 1;
nodes = (
"324 290 OFFCURVE",
"406 349 OFFCURVE",
"484 394 CURVE SMOOTH",
"584 451 OFFCURVE",
"748 512 OFFCURVE",
"850 512 CURVE SMOOTH",
"888 512 OFFCURVE",
"902 503 OFFCURVE",
"902 488 CURVE SMOOTH",
"902 466 OFFCURVE",
"869 434 OFFCURVE",
"843 412 CURVE SMOOTH",
"699 292 OFFCURVE",
"436 232 OFFCURVE",
"278 232 CURVE SMOOTH",
"266 232 LINE"
);
}
);
width = 1175;
},
{
anchors = (
{
name = bottom;
position = "{508, -477}";
},
{
name = top;
position = "{659, 522}";
}
);
layerId = "A14CB8BB-4075-44A2-8ACC-F29FBF19C8BE";
paths = (
{
closed = 1;
nodes = (
"708 -497 OFFCURVE",
"966 -215 OFFCURVE",
"1081 14 CURVE",
"1099 15 OFFCURVE",
"1118 14 OFFCURVE",
"1137 13 CURVE SMOOTH",
"1182 10 OFFCURVE",
"1222 0 OFFCURVE",
"1229 -16 CURVE SMOOTH",
"1231 -20 OFFCURVE",
"1234 -21 OFFCURVE",
"1238 -21 CURVE SMOOTH",
"1240 -21 OFFCURVE",
"1242 -21 OFFCURVE",
"1244 -20 CURVE SMOOTH",
"1247 -18 OFFCURVE",
"1250 -15 OFFCURVE",
"1250 -10 CURVE SMOOTH",
"1250 -9 OFFCURVE",
"1250 -7 OFFCURVE",
"1249 -6 CURVE SMOOTH",
"1237 22 OFFCURVE",
"1185 35 OFFCURVE",
"1141 41 CURVE SMOOTH",
"1125 43 OFFCURVE",
"1110 43 OFFCURVE",
"1095 44 CURVE",
"1101 56 LINE SMOOTH",
"1137 128 OFFCURVE",
"1149 199 OFFCURVE",
"1149 251 CURVE SMOOTH",
"1149 300 OFFCURVE",
"1133 337 OFFCURVE",
"1099 337 CURVE SMOOTH",
"1075 337 OFFCURVE",
"1063 326 OFFCURVE",
"1057 316 CURVE SMOOTH",
"1056 313 OFFCURVE",
"1055 309 OFFCURVE",
"1055 306 CURVE SMOOTH",
"1055 302 OFFCURVE",
"1056 297 OFFCURVE",
"1060 294 CURVE",
"980 142 OFFCURVE",
"639 -27 OFFCURVE",
"414 -27 CURVE SMOOTH",
"295 -27 OFFCURVE",
"200 18 OFFCURVE",
"200 94 CURVE SMOOTH",
"200 126 OFFCURVE",
"216 163 OFFCURVE",
"255 207 CURVE",
"502 208 OFFCURVE",
"765 294 OFFCURVE",
"877 380 CURVE SMOOTH",
"905 401 OFFCURVE",
"949 440 OFFCURVE",
"950 477 CURVE SMOOTH",
"950 518 OFFCURVE",
"902 529 OFFCURVE",
"852 529 CURVE SMOOTH",
"652 529 OFFCURVE",
"377 410 OFFCURVE",
"250 281 CURVE SMOOTH",
"236 267 OFFCURVE",
"224 253 OFFCURVE",
"214 240 CURVE",
"125 255 OFFCURVE",
"87 301 OFFCURVE",
"87 350 CURVE SMOOTH",
"87 389 OFFCURVE",
"123 441 OFFCURVE",
"174 471 CURVE SMOOTH",
"180 475 OFFCURVE",
"181 479 OFFCURVE",
"181 481 CURVE SMOOTH",
"181 485 OFFCURVE",
"178 488 OFFCURVE",
"168 488 CURVE SMOOTH",
"163 488 OFFCURVE",
"156 487 OFFCURVE",
"151 484 CURVE SMOOTH",
"94 453 OFFCURVE",
"63 396 OFFCURVE",
"63 350 CURVE SMOOTH",
"63 290 OFFCURVE",
"103 233 OFFCURVE",
"195 214 CURVE",
"168 173 OFFCURVE",
"155 132 OFFCURVE",
"155 96 CURVE SMOOTH",
"155 3 OFFCURVE",
"244 -61 OFFCURVE",
"403 -61 CURVE SMOOTH",
"641 -61 OFFCURVE",
"993 94 OFFCURVE",
"1080 270 CURVE",
"1083 260 OFFCURVE",
"1084 248 OFFCURVE",
"1084 233 CURVE SMOOTH",
"1084 179 OFFCURVE",
"1065 102 OFFCURVE",
"1037 43 CURVE",
"1017 41 OFFCURVE",
"997 38 OFFCURVE",
"977 34 CURVE SMOOTH",
"806 -6 OFFCURVE",
"376 -156 OFFCURVE",
"342 -376 CURVE SMOOTH",
"341 -383 OFFCURVE",
"340 -390 OFFCURVE",
"340 -397 CURVE SMOOTH",
"340 -472 OFFCURVE",
"417 -497 OFFCURVE",
"481 -497 CURVE SMOOTH"
);
},
{
closed = 1;
nodes = (
"408 -469 OFFCURVE",
"371 -440 OFFCURVE",
"371 -396 CURVE SMOOTH",
"371 -352 OFFCURVE",
"408 -290 OFFCURVE",
"501 -221 CURVE SMOOTH",
"644 -115 OFFCURVE",
"826 -30 OFFCURVE",
"974 0 CURVE SMOOTH",
"989 3 OFFCURVE",
"1003 6 OFFCURVE",
"1018 8 CURVE",
"913 -184 OFFCURVE",
"683 -469 OFFCURVE",
"467 -469 CURVE SMOOTH"
);
},
{
closed = 1;
nodes = (
"338 289 OFFCURVE",
"415 344 OFFCURVE",
"488 386 CURVE SMOOTH",
"587 442 OFFCURVE",
"749 502 OFFCURVE",
"849 502 CURVE SMOOTH",
"886 502 OFFCURVE",
"895 493 OFFCURVE",
"895 483 CURVE SMOOTH",
"895 464 OFFCURVE",
"865 434 OFFCURVE",
"838 412 CURVE SMOOTH",
"697 294 OFFCURVE",
"437 235 OFFCURVE",
"281 235 CURVE"
);
}
);
width = 1175;
}
);
note = G;
unicode = 0047;
},
{
glyphname = H;
lastChange = "2021-05-20 10:17:24 +0000";
layers = (
{
anchors = (
{
name = bottom;
position = "{1291, 0}";
},
{
name = center;
position = "{865, 353}";
},
{
name = top;
position = "{1505, 525}";
},
{
name = topleft;
position = "{20, 705}";
}
);
layerId = "B8E2B95E-9E44-4943-9D49-9B6A251F446D";
paths = (
{
closed = 1;
nodes = (
"862 -125 OFFCURVE",
"870 -121 OFFCURVE",
"878 -115 CURVE SMOOTH",
"998 -20 OFFCURVE",
"1232 213 OFFCURVE",
"1248 357 CURVE SMOOTH",
"1263 490 OFFCURVE",
"1106 531 OFFCURVE",
"915 531 CURVE SMOOTH",
"674 531 OFFCURVE",
"378 466 OFFCURVE",
"306 444 CURVE SMOOTH",
"126 389 OFFCURVE",
"31 321 OFFCURVE",
"21 246 CURVE SMOOTH",
"12 176 OFFCURVE",
"139 119 OFFCURVE",
"233 119 CURVE SMOOTH",
"256 119 OFFCURVE",
"283 121 OFFCURVE",
"301 126 CURVE SMOOTH",
"309 129 OFFCURVE",
"312 132 OFFCURVE",
"312 134 CURVE SMOOTH",
"312 139 OFFCURVE",
"303 143 OFFCURVE",
"292 143 CURVE SMOOTH",
"291 143 OFFCURVE",
"290 143 OFFCURVE",
"289 143 CURVE SMOOTH",
"267 142 OFFCURVE",
"239 144 OFFCURVE",
"234 144 CURVE SMOOTH",
"157 144 OFFCURVE",
"44 173 OFFCURVE",
"53 229 CURVE SMOOTH",
"64 300 OFFCURVE",
"180 362 OFFCURVE",
"344 414 CURVE SMOOTH",
"425 440 OFFCURVE",
"728 511 OFFCURVE",
"954 511 CURVE SMOOTH",
"1083 511 OFFCURVE",
"1188 488 OFFCURVE",
"1213 420 CURVE SMOOTH",
"1215 414 OFFCURVE",
"1216 407 OFFCURVE",
"1216 399 CURVE SMOOTH",
"1216 276 OFFCURVE",
"940 -31 OFFCURVE",
"866 -101 CURVE SMOOTH",
"855 -111 OFFCURVE",
"851 -118 OFFCURVE",
"851 -121 CURVE SMOOTH",
"851 -124 OFFCURVE",
"853 -125 OFFCURVE",
"856 -125 CURVE SMOOTH"
);
},
{
closed = 1;
nodes = (
"1429 123 OFFCURVE",
"1338 142 OFFCURVE",
"1299 155 CURVE SMOOTH",
"1288 159 OFFCURVE",
"1274 167 OFFCURVE",
"1274 173 CURVE SMOOTH",
"1274 176 OFFCURVE",
"1278 178 OFFCURVE",
"1291 178 CURVE SMOOTH",
"1295 178 OFFCURVE",
"1300 178 OFFCURVE",
"1306 177 CURVE SMOOTH",
"1363 173 OFFCURVE",
"1416 152 OFFCURVE",
"1466 121 CURVE"
);
},
{
closed = 1;
nodes = (
"1575 38 OFFCURVE",
"1548 74 OFFCURVE",
"1530 96 CURVE",
"1550 95 OFFCURVE",
"1580 96 OFFCURVE",
"1614 98 CURVE",
"1606 76 OFFCURVE",
"1600 52 OFFCURVE",
"1595 29 CURVE SMOOTH",
"1593 20 OFFCURVE",
"1592 12 OFFCURVE",
"1591 4 CURVE"
);
},
{
closed = 1;
nodes = (
"1622 -59 OFFCURVE",
"1643 -41 OFFCURVE",
"1638 -22 CURVE SMOOTH",
"1637 -18 OFFCURVE",
"1632 -2 OFFCURVE",
"1632 14 CURVE SMOOTH",
"1632 40 OFFCURVE",
"1641 70 OFFCURVE",
"1651 102 CURVE",
"1738 113 OFFCURVE",
"1830 140 OFFCURVE",
"1830 195 CURVE SMOOTH",
"1830 205 OFFCURVE",
"1826 211 OFFCURVE",
"1823 211 CURVE SMOOTH",
"1821 211 OFFCURVE",
"1819 208 OFFCURVE",
"1819 202 CURVE SMOOTH",
"1819 201 OFFCURVE",
"1819 201 OFFCURVE",
"1819 200 CURVE SMOOTH",
"1823 146 OFFCURVE",
"1740 125 OFFCURVE",
"1656 117 CURVE",
"1699 234 OFFCURVE",
"1784 373 OFFCURVE",
"1851 455 CURVE SMOOTH",
"1854 460 OFFCURVE",
"1906 521 OFFCURVE",
"1928 521 CURVE SMOOTH",
"1934 521 OFFCURVE",
"1938 516 OFFCURVE",
"1938 505 CURVE SMOOTH",
"1938 503 OFFCURVE",
"1937 500 OFFCURVE",
"1937 497 CURVE SMOOTH",
"1937 493 OFFCURVE",
"1949 494 OFFCURVE",
"1950 498 CURVE",
"1954 535 OFFCURVE",
"1941 548 OFFCURVE",
"1922 548 CURVE SMOOTH",
"1890 548 OFFCURVE",
"1841 513 OFFCURVE",
"1830 500 CURVE SMOOTH",
"1756 417 OFFCURVE",
"1670 262 OFFCURVE",
"1619 115 CURVE",
"1603 114 OFFCURVE",
"1587 114 OFFCURVE",
"1573 114 CURVE SMOOTH",
"1547 114 OFFCURVE",
"1525 115 OFFCURVE",
"1511 117 CURVE",
"1476 152 OFFCURVE",
"1342 216 OFFCURVE",
"1268 216 CURVE SMOOTH",
"1248 216 OFFCURVE",
"1233 212 OFFCURVE",
"1225 201 CURVE SMOOTH",
"1221 196 OFFCURVE",
"1220 191 OFFCURVE",
"1220 186 CURVE SMOOTH",
"1220 174 OFFCURVE",
"1230 161 OFFCURVE",
"1248 151 CURVE SMOOTH",
"1293 124 OFFCURVE",
"1399 111 OFFCURVE",
"1450 102 CURVE SMOOTH",
"1474 98 OFFCURVE",
"1494 94 OFFCURVE",
"1497 93 CURVE SMOOTH",
"1511 89 OFFCURVE",
"1574 1 OFFCURVE",
"1591 -36 CURVE",
"1592 -41 OFFCURVE",
"1592 -45 OFFCURVE",
"1593 -47 CURVE",
"1595 -55 OFFCURVE",
"1601 -59 OFFCURVE",
"1607 -59 CURVE SMOOTH"
);
}
);
width = 1729;
},
{
anchors = (
{
name = bottom;
position = "{1289, -94}";
},
{
name = center;
position = "{865, 337}";
},
{
name = top;
position = "{1491, 550}";
},
{
name = topleft;
position = "{20, 673}";
}
);
layerId = "A14CB8BB-4075-44A2-8ACC-F29FBF19C8BE";
paths = (
{
closed = 1;
nodes = (
"1001 -20 OFFCURVE",
"1236 210 OFFCURVE",
"1253 354 CURVE SMOOTH",
"1268 492 OFFCURVE",
"1104 531 OFFCURVE",
"916 531 CURVE SMOOTH",
"676 531 OFFCURVE",
"381 467 OFFCURVE",
"309 445 CURVE SMOOTH",
"130 391 OFFCURVE",
"32 324 OFFCURVE",
"22 246 CURVE SMOOTH",
"12 171 OFFCURVE",
"145 115 OFFCURVE",
"238 115 CURVE SMOOTH",
"261 115 OFFCURVE",
"288 117 OFFCURVE",
"307 123 CURVE SMOOTH",
"318 126 OFFCURVE",
"322 131 OFFCURVE",
"322 135 CURVE SMOOTH",
"322 138 OFFCURVE",
"321 140 OFFCURVE",
"319 142 CURVE SMOOTH",
"314 147 OFFCURVE",
"304 149 OFFCURVE",
"293 149 CURVE SMOOTH",
"272 148 OFFCURVE",
"244 150 OFFCURVE",
"239 150 CURVE SMOOTH",
"159 150 OFFCURVE",
"56 179 OFFCURVE",
"64 228 CURVE SMOOTH",
"74 294 OFFCURVE",
"186 355 OFFCURVE",
"350 406 CURVE SMOOTH",
"430 432 OFFCURVE",
"731 502 OFFCURVE",
"955 502 CURVE SMOOTH",
"1084 502 OFFCURVE",
"1184 478 OFFCURVE",
"1208 415 CURVE SMOOTH",
"1210 409 OFFCURVE",
"1211 403 OFFCURVE",
"1211 396 CURVE SMOOTH",
"1211 279 OFFCURVE",
"939 -22 OFFCURVE",
"864 -93 CURVE SMOOTH",
"848 -108 OFFCURVE",
"842 -118 OFFCURVE",
"842 -123 CURVE SMOOTH",
"842 -127 OFFCURVE",
"845 -129 OFFCURVE",
"849 -129 CURVE SMOOTH",
"858 -129 OFFCURVE",
"871 -123 OFFCURVE",
"883 -114 CURVE SMOOTH"
);
},
{
closed = 1;
nodes = (
"1400 135 OFFCURVE",
"1332 150 OFFCURVE",
"1300 160 CURVE SMOOTH",
"1294 162 OFFCURVE",
"1286 167 OFFCURVE",
"1286 170 CURVE SMOOTH",
"1286 172 OFFCURVE",
"1289 173 OFFCURVE",
"1298 173 CURVE SMOOTH",
"1300 173 OFFCURVE",
"1302 173 OFFCURVE",
"1305 173 CURVE SMOOTH",
"1353 169 OFFCURVE",
"1399 153 OFFCURVE",
"1442 130 CURVE"
);
},
{
closed = 1;
nodes = (
"1572 49 OFFCURVE",
"1554 74 OFFCURVE",
"1539 92 CURVE",
"1556 92 OFFCURVE",
"1579 93 OFFCURVE",
"1605 94 CURVE",
"1598 74 OFFCURVE",
"1593 53 OFFCURVE",
"1588 33 CURVE SMOOTH",
"1587 29 OFFCURVE",
"1587 26 OFFCURVE",
"1586 23 CURVE"
);
},
{
closed = 1;
nodes = (
"1631 -50 OFFCURVE",
"1641 -39 OFFCURVE",
"1641 -25 CURVE SMOOTH",
"1641 -22 OFFCURVE",
"1641 -20 OFFCURVE",
"1640 -17 CURVE",
"1640 -15 OFFCURVE",
"1638 -9 OFFCURVE",
"1636 -1 CURVE SMOOTH",
"1635 4 OFFCURVE",
"1635 10 OFFCURVE",
"1635 16 CURVE SMOOTH",
"1635 18 OFFCURVE",
"1635 21 OFFCURVE",
"1635 23 CURVE SMOOTH",
"1637 46 OFFCURVE",
"1644 72 OFFCURVE",
"1652 99 CURVE",
"1736 110 OFFCURVE",
"1832 137 OFFCURVE",
"1832 195 CURVE SMOOTH",
"1832 209 OFFCURVE",
"1826 216 OFFCURVE",
"1820 216 CURVE SMOOTH",
"1815 216 OFFCURVE",
"1811 211 OFFCURVE",
"1811 203 CURVE SMOOTH",
"1811 202 OFFCURVE",
"1811 201 OFFCURVE",
"1811 200 CURVE SMOOTH",
"1814 154 OFFCURVE",
"1744 133 OFFCURVE",
"1661 124 CURVE",
"1704 237 OFFCURVE",
"1780 375 OFFCURVE",
"1852 449 CURVE",
"1853 451 OFFCURVE",
"1877 479 OFFCURVE",
"1898 497 CURVE SMOOTH",
"1907 504 OFFCURVE",
"1916 511 OFFCURVE",
"1922 511 CURVE SMOOTH",
"1927 511 OFFCURVE",
"1930 506 OFFCURVE",
"1928 493 CURVE SMOOTH",
"1928 489 OFFCURVE",
"1933 485 OFFCURVE",
"1940 485 CURVE",
"1945 486 OFFCURVE",
"1950 489 OFFCURVE",
"1951 493 CURVE",
"1955 531 OFFCURVE",
"1941 548 OFFCURVE",
"1918 548 CURVE SMOOTH",
"1884 548 OFFCURVE",
"1834 512 OFFCURVE",
"1823 499 CURVE SMOOTH",
"1750 417 OFFCURVE",
"1664 265 OFFCURVE",
"1613 121 CURVE",
"1598 120 OFFCURVE",
"1584 120 OFFCURVE",
"1571 120 CURVE SMOOTH",
"1546 120 OFFCURVE",
"1525 121 OFFCURVE",
"1512 123 CURVE",
"1474 159 OFFCURVE",
"1342 221 OFFCURVE",
"1268 221 CURVE SMOOTH",
"1247 221 OFFCURVE",
"1231 217 OFFCURVE",
"1221 204 CURVE SMOOTH",
"1216 198 OFFCURVE",
"1214 192 OFFCURVE",
"1214 187 CURVE SMOOTH",
"1214 172 OFFCURVE",
"1227 158 OFFCURVE",
"1245 148 CURVE SMOOTH",
"1268 134 OFFCURVE",
"1307 124 OFFCURVE",
"1345 116 CURVE SMOOTH",
"1383 109 OFFCURVE",
"1422 103 OFFCURVE",
"1448 99 CURVE SMOOTH",
"1471 95 OFFCURVE",
"1491 91 OFFCURVE",
"1494 90 CURVE SMOOTH",
"1505 87 OFFCURVE",
"1567 3 OFFCURVE",
"1584 -34 CURVE SMOOTH",
"1585 -37 OFFCURVE",
"1585 -42 OFFCURVE",
"1586 -45 CURVE SMOOTH",
"1588 -56 OFFCURVE",
"1596 -60 OFFCURVE",
"1604 -60 CURVE SMOOTH",
"1610 -60 OFFCURVE",
"1615 -58 OFFCURVE",
"1620 -56 CURVE SMOOTH"
);
}
);
width = 1729;
}
);
note = H;
unicode = 0048;
},
{
glyphname = I;
lastChange = "2021-05-20 10:17:24 +0000";
layers = (
{
anchors = (
{
name = bottom;
position = "{782, -120}";
},
{
name = ogonek;
position = "{840, -97}";
},
{
name = top;
position = "{990, 549}";
},
{
name = topleft;
position = "{20, 705}";
}
);
layerId = "B8E2B95E-9E44-4943-9D49-9B6A251F446D";
paths = (
{
closed = 1;
nodes = (
"396 -157 OFFCURVE",
"579 -51 OFFCURVE",
"719 52 CURVE",
"729 -22 OFFCURVE",
"766 -109 OFFCURVE",
"833 -109 CURVE SMOOTH",
"884 -109 OFFCURVE",
"918 -81 OFFCURVE",
"957 -20 CURVE SMOOTH",
"961 -15 OFFCURVE",
"960 -8 OFFCURVE",
"957 -8 CURVE SMOOTH",
"955 -8 OFFCURVE",
"953 -9 OFFCURVE",
"951 -12 CURVE SMOOTH",
"929 -46 OFFCURVE",
"882 -83 OFFCURVE",
"847 -83 CURVE SMOOTH",
"790 -83 OFFCURVE",
"765 24 OFFCURVE",
"760 83 CURVE",
"853 155 OFFCURVE",
"943 243 OFFCURVE",
"998 319 CURVE SMOOTH",
"1043 381 OFFCURVE",
"1061 434 OFFCURVE",
"1061 473 CURVE SMOOTH",
"1061 521 OFFCURVE",
"1032 549 OFFCURVE",
"990 549 CURVE SMOOTH",
"812 549 OFFCURVE",
"713 284 OFFCURVE",
"713 122 CURVE SMOOTH",
"713 104 OFFCURVE",
"715 88 OFFCURVE",
"717 73 CURVE",
"585 -23 OFFCURVE",
"401 -122 OFFCURVE",
"239 -122 CURVE SMOOTH",
"113 -122 OFFCURVE",
"44 -63 OFFCURVE",
"44 13 CURVE SMOOTH",
"44 57 OFFCURVE",
"67 107 OFFCURVE",
"116 155 CURVE",
"149 156 OFFCURVE",
"185 159 OFFCURVE",
"217 159 CURVE SMOOTH",
"234 159 OFFCURVE",
"250 158 OFFCURVE",
"265 156 CURVE SMOOTH",
"269 155 OFFCURVE",
"271 155 OFFCURVE",
"273 155 CURVE SMOOTH",
"277 155 OFFCURVE",
"278 156 OFFCURVE",
"278 158 CURVE SMOOTH",
"278 160 OFFCURVE",
"274 164 OFFCURVE",
"269 167 CURVE SMOOTH",
"253 175 OFFCURVE",
"185 175 OFFCURVE",
"171 175 CURVE SMOOTH",
"163 175 OFFCURVE",
"151 174 OFFCURVE",
"138 174 CURVE",
"147 182 LINE",
"151 185 OFFCURVE",
"153 188 OFFCURVE",
"153 191 CURVE SMOOTH",
"153 195 OFFCURVE",
"150 198 OFFCURVE",
"144 198 CURVE SMOOTH",
"138 198 OFFCURVE",
"132 194 OFFCURVE",
"123 187 CURVE SMOOTH",
"109 175 LINE",
"94 176 OFFCURVE",
"82 179 OFFCURVE",
"82 186 CURVE SMOOTH",
"82 186 OFFCURVE",
"82 187 OFFCURVE",
"82 187 CURVE SMOOTH",
"83 195 OFFCURVE",
"90 196 OFFCURVE",
"97 196 CURVE SMOOTH",
"101 196 OFFCURVE",
"104 196 OFFCURVE",
"106 196 CURVE SMOOTH",
"125 196 OFFCURVE",
"131 203 OFFCURVE",
"131 209 CURVE SMOOTH",
"131 213 OFFCURVE",
"128 216 OFFCURVE",
"124 216 CURVE SMOOTH",
"123 216 OFFCURVE",
"122 216 OFFCURVE",
"120 215 CURVE SMOOTH",
"118 214 OFFCURVE",
"114 213 OFFCURVE",
"108 213 CURVE SMOOTH",
"97 213 OFFCURVE",
"80 215 OFFCURVE",
"63 215 CURVE SMOOTH",
"39 215 OFFCURVE",
"17 211 OFFCURVE",
"17 192 CURVE SMOOTH",
"17 164 OFFCURVE",
"47 156 OFFCURVE",
"88 155 CURVE",
"40 103 OFFCURVE",
"14 45 OFFCURVE",
"14 -7 CURVE SMOOTH",
"14 -90 OFFCURVE",
"78 -157 OFFCURVE",
"221 -157 CURVE SMOOTH"
);
},
{
closed = 1;
nodes = (
"754 211 OFFCURVE",
"793 355 OFFCURVE",
"865 440 CURVE SMOOTH",
"919 503 OFFCURVE",
"969 533 OFFCURVE",
"1003 533 CURVE SMOOTH",
"1028 533 OFFCURVE",
"1044 517 OFFCURVE",
"1044 486 CURVE SMOOTH",
"1044 450 OFFCURVE",
"1022 393 OFFCURVE",
"969 318 CURVE SMOOTH",
"920 249 OFFCURVE",
"840 168 OFFCURVE",
"758 104 CURVE"
);
}
);
width = 929;
},
{
anchors = (
{
name = bottom;
position = "{824, -111}";
},
{
name = ogonek;
position = "{832, -106}";
},
{
name = top;
position = "{985, 552}";
},
{
name = topleft;
position = "{20, 673}";
}
);
layerId = "A14CB8BB-4075-44A2-8ACC-F29FBF19C8BE";
paths = (
{
closed = 1;
nodes = (
"396 -157 OFFCURVE",
"576 -55 OFFCURVE",
"713 45 CURVE",
"724 -25 OFFCURVE",
"756 -111 OFFCURVE",
"824 -111 CURVE SMOOTH",
"877 -111 OFFCURVE",
"915 -80 OFFCURVE",
"954 -20 CURVE SMOOTH",
"956 -16 OFFCURVE",
"958 -11 OFFCURVE",
"958 -7 CURVE SMOOTH",
"958 -6 OFFCURVE",
"958 -6 OFFCURVE",
"958 -5 CURVE SMOOTH",
"958 -4 OFFCURVE",
"956 0 OFFCURVE",
"952 0 CURVE SMOOTH",
"951 0 OFFCURVE",
"951 0 OFFCURVE",
"950 0 CURVE SMOOTH",
"947 -1 OFFCURVE",
"945 -4 OFFCURVE",
"943 -6 CURVE",
"921 -39 OFFCURVE",
"879 -77 OFFCURVE",
"844 -77 CURVE SMOOTH",
"789 -77 OFFCURVE",
"769 21 OFFCURVE",
"763 82 CURVE",
"854 153 OFFCURVE",
"941 240 OFFCURVE",
"998 316 CURVE SMOOTH",
"1044 378 OFFCURVE",
"1063 431 OFFCURVE",
"1063 472 CURVE SMOOTH",
"1063 522 OFFCURVE",
"1031 552 OFFCURVE",
"985 552 CURVE SMOOTH",
"814 552 OFFCURVE",
"709 296 OFFCURVE",
"709 109 CURVE SMOOTH",
"709 98 OFFCURVE",
"709 87 OFFCURVE",
"710 77 CURVE",
"580 -17 OFFCURVE",
"400 -113 OFFCURVE",
"242 -113 CURVE SMOOTH",
"118 -113 OFFCURVE",
"54 -55 OFFCURVE",
"54 15 CURVE SMOOTH",
"54 57 OFFCURVE",
"75 104 OFFCURVE",
"122 151 CURVE",
"154 152 OFFCURVE",
"189 154 OFFCURVE",
"220 154 CURVE SMOOTH",
"237 154 OFFCURVE",
"252 154 OFFCURVE",
"267 152 CURVE SMOOTH",
"273 151 OFFCURVE",
"278 151 OFFCURVE",
"281 151 CURVE SMOOTH",
"288 151 OFFCURVE",
"291 152 OFFCURVE",
"291 155 CURVE SMOOTH",
"291 160 OFFCURVE",
"284 167 OFFCURVE",
"274 172 CURVE SMOOTH",
"258 180 OFFCURVE",
"196 180 OFFCURVE",
"174 180 CURVE SMOOTH",
"169 180 OFFCURVE",
"163 180 OFFCURVE",
"156 179 CURVE",
"160 182 OFFCURVE",
"162 186 OFFCURVE",
"162 190 CURVE SMOOTH",
"162 195 OFFCURVE",
"158 199 OFFCURVE",
"150 199 CURVE SMOOTH",
"141 199 OFFCURVE",
"128 194 OFFCURVE",
"111 180 CURVE",
"100 181 OFFCURVE",
"91 181 OFFCURVE",
"91 186 CURVE SMOOTH",
"91 189 OFFCURVE",
"93 190 OFFCURVE",
"97 191 CURVE SMOOTH",
"110 194 OFFCURVE",
"134 193 OFFCURVE",
"140 208 CURVE SMOOTH",
"144 217 OFFCURVE",
"115 218 OFFCURVE",
"103 218 CURVE SMOOTH",
"93 218 OFFCURVE",
"80 219 OFFCURVE",
"67 219 CURVE SMOOTH",
"41 219 OFFCURVE",
"17 213 OFFCURVE",
"17 192 CURVE SMOOTH",
"17 162 OFFCURVE",
"47 153 OFFCURVE",
"82 151 CURVE",
"38 101 OFFCURVE",
"14 46 OFFCURVE",
"14 -4 CURVE SMOOTH",
"14 -90 OFFCURVE",
"81 -157 OFFCURVE",
"224 -157 CURVE SMOOTH"
);
},
{
closed = 1;
nodes = (
"759 217 OFFCURVE",
"790 354 OFFCURVE",
"861 435 CURVE SMOOTH",
"916 497 OFFCURVE",
"966 525 OFFCURVE",
"999 525 CURVE SMOOTH",
"1020 525 OFFCURVE",
"1034 512 OFFCURVE",
"1034 484 CURVE SMOOTH",
"1034 450 OFFCURVE",
"1013 395 OFFCURVE",
"959 321 CURVE SMOOTH",
"910 254 OFFCURVE",
"838 176 OFFCURVE",
"761 115 CURVE"
);
}
);
width = 929;
}
);
note = I;
unicode = 0049;
},
{
glyphname = J;
lastChange = "2021-05-20 10:17:24 +0000";
layers = (
{
anchors = (
{
name = bottom;
position = "{398, -451}";
},
{
name = top;
position = "{1209, 510}";
}
);
layerId = "B8E2B95E-9E44-4943-9D49-9B6A251F446D";
paths = (
{
closed = 1;
nodes = (
"674 -460 OFFCURVE",
"968 -215 OFFCURVE",
"1131 23 CURVE",
"1150 23 OFFCURVE",
"1168 23 OFFCURVE",
"1186 22 CURVE SMOOTH",
"1236 18 OFFCURVE",
"1286 10 OFFCURVE",
"1296 -9 CURVE",
"1298 -14 OFFCURVE",
"1308 -11 OFFCURVE",
"1308 -6 CURVE SMOOTH",
"1308 -5 OFFCURVE",
"1308 -4 OFFCURVE",
"1307 -3 CURVE SMOOTH",
"1296 21 OFFCURVE",
"1241 33 OFFCURVE",
"1188 38 CURVE SMOOTH",
"1173 39 OFFCURVE",
"1158 40 OFFCURVE",
"1143 40 CURVE",
"1154 56 OFFCURVE",
"1164 73 OFFCURVE",
"1174 90 CURVE SMOOTH",
"1222 172 OFFCURVE",
"1258 282 OFFCURVE",
"1258 349 CURVE SMOOTH",
"1258 470 OFFCURVE",
"1115 510 OFFCURVE",
"954 510 CURVE SMOOTH",
"626 510 OFFCURVE",
"22 388 OFFCURVE",
"22 116 CURVE SMOOTH",
"22 37 OFFCURVE",
"104 -8 OFFCURVE",
"196 -8 CURVE SMOOTH",
"219 -8 OFFCURVE",
"244 -5 OFFCURVE",
"267 1 CURVE SMOOTH",
"277 4 OFFCURVE",
"281 6 OFFCURVE",
"281 8 CURVE SMOOTH",
"281 11 OFFCURVE",
"272 12 OFFCURVE",
"262 12 CURVE SMOOTH",
"258 12 OFFCURVE",
"253 12 OFFCURVE",
"249 11 CURVE SMOOTH",
"236 9 OFFCURVE",
"223 8 OFFCURVE",
"209 8 CURVE SMOOTH",
"138 8 OFFCURVE",
"61 37 OFFCURVE",
"61 110 CURVE SMOOTH",
"61 312 OFFCURVE",
"619 488 OFFCURVE",
"965 488 CURVE SMOOTH",
"1056 488 OFFCURVE",
"1229 479 OFFCURVE",
"1229 363 CURVE SMOOTH",
"1229 293 OFFCURVE",
"1185 198 OFFCURVE",
"1135 110 CURVE SMOOTH",
"1122 87 OFFCURVE",
"1107 63 OFFCURVE",
"1090 39 CURVE",
"893 28 OFFCURVE",
"653 -53 OFFCURVE",
"502 -133 CURVE SMOOTH",
"387 -193 OFFCURVE",
"304 -268 OFFCURVE",
"288 -351 CURVE SMOOTH",
"287 -357 OFFCURVE",
"286 -363 OFFCURVE",
"286 -369 CURVE SMOOTH",
"286 -437 OFFCURVE",
"367 -460 OFFCURVE",
"439 -460 CURVE SMOOTH"
);
},
{
closed = 1;
nodes = (
"357 -443 OFFCURVE",
"313 -412 OFFCURVE",
"313 -367 CURVE SMOOTH",
"313 -321 OFFCURVE",
"357 -259 OFFCURVE",
"465 -193 CURVE SMOOTH",
"637 -85 OFFCURVE",
"870 4 OFFCURVE",
"1077 20 CURVE",
"927 -188 OFFCURVE",
"649 -443 OFFCURVE",
"425 -443 CURVE SMOOTH"
);
}
);
width = 1250;
},
{
anchors = (
{
name = bottom;
position = "{467, -454}";
},
{
name = top;
position = "{1165, 510}";
}
);
layerId = "A14CB8BB-4075-44A2-8ACC-F29FBF19C8BE";
paths = (
{
closed = 1;
nodes = (
"676 -460 OFFCURVE",
"968 -217 OFFCURVE",
"1130 18 CURVE",
"1148 18 OFFCURVE",
"1165 18 OFFCURVE",
"1182 17 CURVE SMOOTH",
"1233 13 OFFCURVE",
"1278 5 OFFCURVE",
"1287 -11 CURVE",
"1288 -15 OFFCURVE",
"1292 -16 OFFCURVE",
"1295 -16 CURVE SMOOTH",
"1298 -16 OFFCURVE",
"1300 -16 OFFCURVE",
"1301 -15 CURVE SMOOTH",
"1304 -13 OFFCURVE",
"1308 -10 OFFCURVE",
"1308 -5 CURVE SMOOTH",
"1308 -4 OFFCURVE",
"1308 -2 OFFCURVE",
"1307 -1 CURVE SMOOTH",
"1289 36 OFFCURVE",
"1189 44 OFFCURVE",
"1149 45 CURVE",
"1158 58 OFFCURVE",
"1166 73 OFFCURVE",
"1174 87 CURVE SMOOTH",
"1222 168 OFFCURVE",
"1258 278 OFFCURVE",
"1258 346 CURVE SMOOTH",
"1258 471 OFFCURVE",
"1110 510 OFFCURVE",
"952 510 CURVE SMOOTH",
"629 510 OFFCURVE",
"22 390 OFFCURVE",
"22 115 CURVE SMOOTH",
"22 32 OFFCURVE",
"108 -13 OFFCURVE",
"200 -13 CURVE SMOOTH",
"223 -13 OFFCURVE",
"248 -10 OFFCURVE",
"271 -4 CURVE SMOOTH",
"281 -1 OFFCURVE",
"286 2 OFFCURVE",
"288 4 CURVE SMOOTH",
"291 8 OFFCURVE",
"290 13 OFFCURVE",
"282 15 CURVE SMOOTH",
"277 16 OFFCURVE",
"270 17 OFFCURVE",
"263 17 CURVE SMOOTH",
"259 17 OFFCURVE",
"255 17 OFFCURVE",
"251 16 CURVE SMOOTH",
"239 14 OFFCURVE",
"226 13 OFFCURVE",
"213 13 CURVE SMOOTH",
"142 13 OFFCURVE",
"71 42 OFFCURVE",
"71 109 CURVE SMOOTH",
"71 303 OFFCURVE",
"617 478 OFFCURVE",
"963 478 CURVE SMOOTH",
"1056 478 OFFCURVE",
"1220 468 OFFCURVE",
"1220 360 CURVE SMOOTH",
"1220 292 OFFCURVE",
"1177 199 OFFCURVE",
"1127 112 CURVE SMOOTH",
"1115 90 OFFCURVE",
"1100 67 OFFCURVE",
"1084 44 CURVE",
"888 32 OFFCURVE",
"651 -48 OFFCURVE",
"501 -127 CURVE SMOOTH",
"387 -187 OFFCURVE",
"302 -262 OFFCURVE",
"286 -346 CURVE SMOOTH",
"285 -353 OFFCURVE",
"284 -359 OFFCURVE",
"284 -365 CURVE SMOOTH",
"284 -437 OFFCURVE",
"370 -460 OFFCURVE",
"441 -460 CURVE SMOOTH"
);
},
{
closed = 1;
nodes = (
"360 -433 OFFCURVE",
"321 -403 OFFCURVE",
"321 -363 CURVE SMOOTH",
"321 -320 OFFCURVE",
"363 -261 OFFCURVE",
"469 -195 CURVE SMOOTH",
"637 -91 OFFCURVE",
"862 -4 OFFCURVE",
"1063 14 CURVE",
"913 -190 OFFCURVE",
"643 -433 OFFCURVE",
"427 -433 CURVE SMOOTH"
);
}
);
width = 1250;
}
);
note = J;
unicode = 004A;
},
{
glyphname = K;
lastChange = "2021-05-20 10:17:24 +0000";
layers = (
{
anchors = (
{
name = bottom;
position = "{925, -247}";
},
{
name = top;
position = "{1227, 527}";
}
);
layerId = "B8E2B95E-9E44-4943-9D49-9B6A251F446D";
paths = (
{
closed = 1;
nodes = (
"588 -285 OFFCURVE",
"590 -285 OFFCURVE",
"591 -283 CURVE SMOOTH",
"618 -213 OFFCURVE",
"723 -109 OFFCURVE",
"862 3 CURVE",
"1045 -134 OFFCURVE",
"1258 -225 OFFCURVE",
"1493 -227 CURVE SMOOTH",
"1575 -227 OFFCURVE",
"1708 -202 OFFCURVE",
"1708 -109 CURVE SMOOTH",
"1708 -95 OFFCURVE",
"1705 -80 OFFCURVE",
"1699 -63 CURVE SMOOTH",
"1695 -53 OFFCURVE",
"1691 -48 OFFCURVE",
"1687 -48 CURVE SMOOTH",
"1684 -48 OFFCURVE",
"1681 -53 OFFCURVE",
"1681 -60 CURVE SMOOTH",
"1681 -64 OFFCURVE",
"1681 -68 OFFCURVE",
"1683 -73 CURVE SMOOTH",
"1686 -82 OFFCURVE",
"1687 -90 OFFCURVE",
"1687 -97 CURVE SMOOTH",
"1687 -159 OFFCURVE",
"1592 -176 OFFCURVE",
"1543 -176 CURVE SMOOTH",
"1303 -176 OFFCURVE",
"1077 -109 OFFCURVE",
"885 21 CURVE",
"1178 255 OFFCURVE",
"1605 516 OFFCURVE",
"1790 567 CURVE SMOOTH",
"1798 569 OFFCURVE",
"1805 571 OFFCURVE",
"1810 571 CURVE SMOOTH",
"1817 571 OFFCURVE",
"1821 568 OFFCURVE",
"1821 562 CURVE SMOOTH",
"1821 555 OFFCURVE",
"1817 544 OFFCURVE",
"1808 526 CURVE SMOOTH",
"1806 521 OFFCURVE",
"1805 518 OFFCURVE",
"1805 516 CURVE SMOOTH",
"1805 514 OFFCURVE",
"1806 513 OFFCURVE",
"1807 513 CURVE SMOOTH",
"1813 513 OFFCURVE",
"1828 527 OFFCURVE",
"1834 536 CURVE SMOOTH",
"1844 551 OFFCURVE",
"1848 563 OFFCURVE",
"1848 572 CURVE SMOOTH",
"1848 587 OFFCURVE",
"1836 594 OFFCURVE",
"1818 594 CURVE SMOOTH",
"1808 594 OFFCURVE",
"1797 592 OFFCURVE",
"1785 588 CURVE SMOOTH",
"1568 524 OFFCURVE",
"1143 278 OFFCURVE",
"855 42 CURVE",
"838 55 LINE",
"933 165 OFFCURVE",
"1031 298 OFFCURVE",
"1038 365 CURVE SMOOTH",
"1039 372 OFFCURVE",
"1039 379 OFFCURVE",
"1039 386 CURVE SMOOTH",
"1039 500 OFFCURVE",
"919 536 OFFCURVE",
"771 536 CURVE SMOOTH",
"562 536 OFFCURVE",
"298 464 OFFCURVE",
"243 442 CURVE SMOOTH",
"102 386 OFFCURVE",
"13 317 OFFCURVE",
"5 241 CURVE SMOOTH",
"-2 170 OFFCURVE",
"98 112 OFFCURVE",
"172 112 CURVE SMOOTH",
"190 112 OFFCURVE",
"211 114 OFFCURVE",
"225 119 CURVE SMOOTH",
"231 122 OFFCURVE",
"234 125 OFFCURVE",
"234 127 CURVE SMOOTH",
"234 132 OFFCURVE",
"226 136 OFFCURVE",
"217 136 CURVE SMOOTH",
"216 136 OFFCURVE",
"216 136 OFFCURVE",
"215 136 CURVE SMOOTH",
"198 135 OFFCURVE",
"176 137 OFFCURVE",
"172 137 CURVE SMOOTH",
"113 137 OFFCURVE",
"23 167 OFFCURVE",
"30 224 CURVE SMOOTH",
"39 296 OFFCURVE",
"130 359 OFFCURVE",
"259 413 CURVE SMOOTH",
"319 438 OFFCURVE",
"584 513 OFFCURVE",
"784 513 CURVE SMOOTH",
"895 513 OFFCURVE",
"987 490 OFFCURVE",
"1012 422 CURVE SMOOTH",
"1015 412 OFFCURVE",
"1017 403 OFFCURVE",
"1017 392 CURVE SMOOTH",
"1017 304 OFFCURVE",
"909 186 OFFCURVE",
"859 127 CURVE SMOOTH",
"849 115 OFFCURVE",
"833 95 OFFCURVE",
"814 73 CURVE",
"781 100 OFFCURVE",
"749 129 OFFCURVE",
"718 160 CURVE SMOOTH",
"713 164 OFFCURVE",
"709 166 OFFCURVE",
"705 166 CURVE SMOOTH",
"698 166 OFFCURVE",
"693 161 OFFCURVE",
"693 155 CURVE SMOOTH",
"693 153 OFFCURVE",
"694 150 OFFCURVE",
"696 148 CURVE SMOOTH",
"729 115 OFFCURVE",
"763 84 OFFCURVE",
"798 54 CURVE",
"744 -10 OFFCURVE",
"675 -89 OFFCURVE",
"664 -100 CURVE SMOOTH",
"654 -109 OFFCURVE",
"650 -116 OFFCURVE",
"650 -120 CURVE SMOOTH",
"650 -123 OFFCURVE",
"652 -124 OFFCURVE",
"655 -124 CURVE SMOOTH",
"660 -124 OFFCURVE",
"669 -120 OFFCURVE",
"677 -114 CURVE SMOOTH",
"705 -91 OFFCURVE",
"761 -33 OFFCURVE",
"821 35 CURVE",
"834 25 LINE",
"702 -85 OFFCURVE",
"602 -193 OFFCURVE",
"571 -277 CURVE SMOOTH",
"570 -281 OFFCURVE",
"579 -285 OFFCURVE",
"585 -285 CURVE SMOOTH"
);
}
);
width = 1350;
},
{
anchors = (
{
name = bottom;
position = "{953, -252}";
},
{
name = top;
position = "{1281, 529}";
}
);
layerId = "A14CB8BB-4075-44A2-8ACC-F29FBF19C8BE";
paths = (
{
closed = 1;
nodes = (
"588 -287 OFFCURVE",
"596 -285 OFFCURVE",
"598 -280 CURVE SMOOTH",
"624 -213 OFFCURVE",
"726 -112 OFFCURVE",
"863 -2 CURVE",
"1045 -136 OFFCURVE",
"1257 -226 OFFCURVE",
"1491 -228 CURVE SMOOTH",
"1571 -228 OFFCURVE",
"1710 -204 OFFCURVE",
"1710 -106 CURVE SMOOTH",
"1710 -92 OFFCURVE",
"1707 -76 OFFCURVE",
"1700 -59 CURVE SMOOTH",
"1696 -46 OFFCURVE",
"1689 -41 OFFCURVE",
"1683 -41 CURVE SMOOTH",
"1681 -41 OFFCURVE",
"1679 -42 OFFCURVE",
"1678 -43 CURVE SMOOTH",
"1674 -46 OFFCURVE",
"1673 -52 OFFCURVE",
"1673 -58 CURVE SMOOTH",
"1673 -62 OFFCURVE",
"1673 -67 OFFCURVE",
"1675 -72 CURVE SMOOTH",
"1678 -80 OFFCURVE",
"1679 -88 OFFCURVE",
"1679 -95 CURVE SMOOTH",
"1679 -153 OFFCURVE",
"1587 -167 OFFCURVE",
"1541 -167 CURVE SMOOTH",
"1305 -167 OFFCURVE",
"1084 -103 OFFCURVE",
"895 23 CURVE",
"1186 253 OFFCURVE",
"1606 508 OFFCURVE",
"1788 558 CURVE SMOOTH",
"1796 560 OFFCURVE",
"1802 562 OFFCURVE",
"1807 562 CURVE SMOOTH",
"1810 562 OFFCURVE",
"1812 561 OFFCURVE",
"1812 557 CURVE SMOOTH",
"1812 552 OFFCURVE",
"1809 542 OFFCURVE",
"1800 524 CURVE SMOOTH",
"1797 519 OFFCURVE",
"1796 515 OFFCURVE",
"1796 512 CURVE SMOOTH",
"1796 509 OFFCURVE",
"1797 508 OFFCURVE",
"1798 507 CURVE SMOOTH",
"1800 504 OFFCURVE",
"1805 503 OFFCURVE",
"1811 507 CURVE SMOOTH",
"1819 512 OFFCURVE",
"1829 522 OFFCURVE",
"1834 529 CURVE SMOOTH",
"1845 544 OFFCURVE",
"1849 557 OFFCURVE",
"1849 567 CURVE SMOOTH",
"1849 586 OFFCURVE",
"1833 594 OFFCURVE",
"1814 594 CURVE SMOOTH",
"1803 594 OFFCURVE",
"1792 591 OFFCURVE",
"1780 588 CURVE SMOOTH",
"1564 524 OFFCURVE",
"1143 282 OFFCURVE",
"856 50 CURVE",
"847 57 LINE",
"940 164 OFFCURVE",
"1036 295 OFFCURVE",
"1043 362 CURVE SMOOTH",
"1044 369 OFFCURVE",
"1044 376 OFFCURVE",
"1044 382 CURVE SMOOTH",
"1044 501 OFFCURVE",
"919 537 OFFCURVE",
"773 537 CURVE SMOOTH",
"564 537 OFFCURVE",
"301 465 OFFCURVE",
"246 443 CURVE SMOOTH",
"106 388 OFFCURVE",
"14 319 OFFCURVE",
"6 241 CURVE SMOOTH",
"-2 165 OFFCURVE",
"103 108 OFFCURVE",
"177 108 CURVE SMOOTH",
"195 108 OFFCURVE",
"217 109 OFFCURVE",
"232 115 CURVE SMOOTH",
"238 117 OFFCURVE",
"244 122 OFFCURVE",
"244 127 CURVE SMOOTH",
"244 129 OFFCURVE",
"243 132 OFFCURVE",
"241 134 CURVE SMOOTH",
"238 138 OFFCURVE",
"230 141 OFFCURVE",
"223 141 CURVE SMOOTH",
"222 141 OFFCURVE",
"221 141 OFFCURVE",
"220 141 CURVE SMOOTH",
"203 140 OFFCURVE",
"181 142 OFFCURVE",
"177 142 CURVE SMOOTH",
"117 142 OFFCURVE",
"34 172 OFFCURVE",
"41 223 CURVE SMOOTH",
"49 291 OFFCURVE",
"137 352 OFFCURVE",
"266 406 CURVE SMOOTH",
"325 430 OFFCURVE",
"588 504 OFFCURVE",
"786 504 CURVE SMOOTH",
"897 504 OFFCURVE",
"985 481 OFFCURVE",
"1008 417 CURVE SMOOTH",
"1011 408 OFFCURVE",
"1013 400 OFFCURVE",
"1013 389 CURVE SMOOTH",
"1013 347 OFFCURVE",
"987 298 OFFCURVE",
"953 250 CURVE SMOOTH",
"920 203 OFFCURVE",
"881 160 OFFCURVE",
"857 130 CURVE SMOOTH",
"847 119 OFFCURVE",
"832 101 OFFCURVE",
"815 81 CURVE",
"784 107 OFFCURVE",
"753 134 OFFCURVE",
"724 163 CURVE SMOOTH",
"718 168 OFFCURVE",
"712 171 OFFCURVE",
"706 171 CURVE SMOOTH",
"703 171 OFFCURVE",
"699 170 OFFCURVE",
"696 168 CURVE SMOOTH",
"693 165 OFFCURVE",
"690 160 OFFCURVE",
"690 155 CURVE SMOOTH",
"690 152 OFFCURVE",
"692 148 OFFCURVE",
"695 145 CURVE SMOOTH",
"726 113 OFFCURVE",
"759 83 OFFCURVE",
"793 55 CURVE",
"739 -8 OFFCURVE",
"666 -74 OFFCURVE",
"655 -84 CURVE SMOOTH",
"639 -99 OFFCURVE",
"633 -108 OFFCURVE",
"633 -113 CURVE SMOOTH",
"633 -117 OFFCURVE",
"636 -119 OFFCURVE",
"641 -119 CURVE SMOOTH",
"646 -119 OFFCURVE",
"653 -118 OFFCURVE",
"660 -114 CURVE SMOOTH",
"665 -112 OFFCURVE",
"670 -109 OFFCURVE",
"674 -105 CURVE SMOOTH",
"700 -84 OFFCURVE",
"775 -13 OFFCURVE",
"823 30 CURVE",
"828 26 LINE",
"817 18 OFFCURVE",
"807 9 OFFCURVE",
"797 0 CURVE SMOOTH",
"721 -66 OFFCURVE",
"604 -176 OFFCURVE",
"569 -270 CURVE SMOOTH",
"567 -275 OFFCURVE",
"573 -282 OFFCURVE",
"580 -284 CURVE SMOOTH"
);
}
);
width = 1350;
}
);
note = K;
unicode = 004B;
},
{
glyphname = L;
lastChange = "2021-05-20 10:17:24 +0000";
layers = (
{
anchors = (
{
name = bottom;
position = "{306, -141}";
},
{
name = center;
position = "{247, 353}";
},
{
name = top;
position = "{715, 705}";
},
{
name = topright;
position = "{848, 705}";
}
);
layerId = "B8E2B95E-9E44-4943-9D49-9B6A251F446D";
paths = (
{
closed = 1;
nodes = (
"952 -258 OFFCURVE",
"1023 -235 OFFCURVE",
"1023 -158 CURVE SMOOTH",
"1023 -141 OFFCURVE",
"1019 -122 OFFCURVE",
"1012 -100 CURVE SMOOTH",
"1008 -88 OFFCURVE",
"1004 -83 OFFCURVE",
"1002 -83 CURVE SMOOTH",
"1000 -83 OFFCURVE",
"998 -87 OFFCURVE",
"998 -93 CURVE SMOOTH",
"998 -97 OFFCURVE",
"999 -103 OFFCURVE",
"1001 -109 CURVE SMOOTH",
"1004 -120 OFFCURVE",
"1006 -131 OFFCURVE",
"1006 -140 CURVE SMOOTH",
"1006 -195 OFFCURVE",
"955 -217 OFFCURVE",
"888 -217 CURVE SMOOTH",
"857 -217 OFFCURVE",
"823 -212 OFFCURVE",
"788 -204 CURVE SMOOTH",
"600 -160 OFFCURVE",
"423 -31 OFFCURVE",
"258 106 CURVE",
"274 135 OFFCURVE",
"306 197 OFFCURVE",
"319 224 CURVE",
"485 220 OFFCURVE",
"680 380 OFFCURVE",
"765 493 CURVE SMOOTH",
"793 530 OFFCURVE",
"811 577 OFFCURVE",
"811 617 CURVE SMOOTH",
"811 666 OFFCURVE",
"784 705 OFFCURVE",
"715 705 CURVE SMOOTH",
"526 705 OFFCURVE",
"400 480 OFFCURVE",
"285 247 CURVE",
"278 251 OFFCURVE",
"213 268 OFFCURVE",
"213 338 CURVE SMOOTH",
"213 343 OFFCURVE",
"214 348 OFFCURVE",
"214 355 CURVE SMOOTH",
"214 361 OFFCURVE",
"212 364 OFFCURVE",
"209 364 CURVE SMOOTH",
"206 364 OFFCURVE",
"202 358 OFFCURVE",
"200 349 CURVE SMOOTH",
"199 343 OFFCURVE",
"198 336 OFFCURVE",
"198 331 CURVE SMOOTH",
"198 258 OFFCURVE",
"272 232 OFFCURVE",
"277 228 CURVE",
"225 131 LINE",
"136 207 OFFCURVE",
"80 266 OFFCURVE",
"48 266 CURVE SMOOTH",
"34 266 OFFCURVE",
"16 252 OFFCURVE",
"19 201 CURVE SMOOTH",
"22 155 OFFCURVE",
"62 -36 OFFCURVE",
"101 -82 CURVE SMOOTH",
"108 -90 OFFCURVE",
"116 -94 OFFCURVE",
"124 -94 CURVE SMOOTH",
"173 -94 OFFCURVE",
"230 53 OFFCURVE",
"248 86 CURVE",
"423 -54 OFFCURVE",
"612 -220 OFFCURVE",
"795 -251 CURVE SMOOTH",
"821 -255 OFFCURVE",
"848 -258 OFFCURVE",
"875 -258 CURVE SMOOTH"
);
},
{
closed = 1;
nodes = (
"77 -4 OFFCURVE",
"51 161 OFFCURVE",
"51 201 CURVE SMOOTH",
"51 217 OFFCURVE",
"58 223 OFFCURVE",
"68 223 CURVE SMOOTH",
"68 223 OFFCURVE",
"69 223 OFFCURVE",
"70 223 CURVE SMOOTH",
"96 221 OFFCURVE",
"143 173 OFFCURVE",
"215 113 CURVE",
"165 20 OFFCURVE",
"129 -45 OFFCURVE",
"111 -42 CURVE"
);
},
{
closed = 1;
nodes = (
"367 332 OFFCURVE",
"553 675 OFFCURVE",
"719 675 CURVE SMOOTH",
"759 675 OFFCURVE",
"777 653 OFFCURVE",
"777 620 CURVE SMOOTH",
"777 572 OFFCURVE",
"739 500 OFFCURVE",
"674 433 CURVE SMOOTH",
"623 381 OFFCURVE",
"486 255 OFFCURVE",
"326 239 CURVE"
);
}
);
width = 493;
},
{
anchors = (
{
name = bottom;
position = "{287, -106}";
},
{
name = center;
position = "{247, 337}";
},
{
name = top;
position = "{713, 705}";
},
{
name = topright;
position = "{850, 710}";
}
);
layerId = "A14CB8BB-4075-44A2-8ACC-F29FBF19C8BE";
paths = (
{
closed = 1;
nodes = (
"948 -258 OFFCURVE",
"1023 -235 OFFCURVE",
"1023 -154 CURVE SMOOTH",
"1023 -137 OFFCURVE",
"1019 -117 OFFCURVE",
"1012 -95 CURVE SMOOTH",
"1010 -88 OFFCURVE",
"1007 -83 OFFCURVE",
"1004 -79 CURVE SMOOTH",
"1002 -76 OFFCURVE",
"997 -73 OFFCURVE",
"992 -78 CURVE SMOOTH",
"990 -80 OFFCURVE",
"989 -84 OFFCURVE",
"989 -89 CURVE SMOOTH",
"989 -94 OFFCURVE",
"990 -101 OFFCURVE",
"992 -107 CURVE SMOOTH",
"995 -117 OFFCURVE",
"996 -128 OFFCURVE",
"996 -136 CURVE SMOOTH",
"996 -186 OFFCURVE",
"951 -208 OFFCURVE",
"884 -208 CURVE SMOOTH",
"854 -208 OFFCURVE",
"821 -203 OFFCURVE",
"786 -195 CURVE SMOOTH",
"603 -152 OFFCURVE",
"429 -26 OFFCURVE",
"267 108 CURVE",
"283 137 OFFCURVE",
"311 192 OFFCURVE",
"324 219 CURVE",
"490 217 OFFCURVE",
"683 376 OFFCURVE",
"767 487 CURVE SMOOTH",
"795 525 OFFCURVE",
"813 572 OFFCURVE",
"813 613 CURVE SMOOTH",
"813 664 OFFCURVE",
"784 705 OFFCURVE",
"713 705 CURVE SMOOTH",
"523 705 OFFCURVE",
"398 481 OFFCURVE",
"285 253 CURVE",
"281 255 OFFCURVE",
"278 256 OFFCURVE",
"274 258 CURVE SMOOTH",
"241 273 OFFCURVE",
"221 299 OFFCURVE",
"221 336 CURVE SMOOTH",
"221 340 OFFCURVE",
"221 345 OFFCURVE",
"222 349 CURVE SMOOTH",
"224 361 OFFCURVE",
"218 367 OFFCURVE",
"212 367 CURVE SMOOTH",
"206 367 OFFCURVE",
"200 361 OFFCURVE",
"198 349 CURVE SMOOTH",
"197 342 OFFCURVE",
"196 336 OFFCURVE",
"196 330 CURVE SMOOTH",
"196 286 OFFCURVE",
"223 253 OFFCURVE",
"261 232 CURVE SMOOTH",
"265 230 OFFCURVE",
"269 228 OFFCURVE",
"273 226 CURVE",
"226 140 LINE",
"184 176 OFFCURVE",
"149 208 OFFCURVE",
"121 231 CURVE SMOOTH",
"93 255 OFFCURVE",
"70 271 OFFCURVE",
"52 271 CURVE SMOOTH",
"33 270 OFFCURVE",
"16 251 OFFCURVE",
"19 201 CURVE SMOOTH",
"22 155 OFFCURVE",
"61 -36 OFFCURVE",
"101 -82 CURVE SMOOTH",
"109 -91 OFFCURVE",
"118 -95 OFFCURVE",
"127 -95 CURVE SMOOTH",
"149 -95 OFFCURVE",
"173 -69 OFFCURVE",
"194 -35 CURVE SMOOTH",
"219 6 OFFCURVE",
"241 57 OFFCURVE",
"252 80 CURVE",
"338 11 OFFCURVE",
"426 -63 OFFCURVE",
"516 -124 CURVE SMOOTH",
"607 -186 OFFCURVE",
"700 -236 OFFCURVE",
"791 -251 CURVE SMOOTH",
"817 -255 OFFCURVE",
"844 -258 OFFCURVE",
"872 -258 CURVE SMOOTH"
);
},
{
closed = 1;
nodes = (
"86 5 OFFCURVE",
"61 162 OFFCURVE",
"61 201 CURVE SMOOTH",
"61 214 OFFCURVE",
"66 218 OFFCURVE",
"72 218 CURVE SMOOTH",
"72 218 OFFCURVE",
"73 218 OFFCURVE",
"74 218 CURVE SMOOTH",
"85 217 OFFCURVE",
"102 206 OFFCURVE",
"126 186 CURVE SMOOTH",
"149 167 OFFCURVE",
"177 142 OFFCURVE",
"212 113 CURVE",
"163 23 OFFCURVE",
"131 -32 OFFCURVE",
"117 -34 CURVE"
);
},
{
closed = 1;
nodes = (
"383 348 OFFCURVE",
"561 665 OFFCURVE",
"717 665 CURVE SMOOTH",
"754 665 OFFCURVE",
"770 646 OFFCURVE",
"770 616 CURVE SMOOTH",
"770 570 OFFCURVE",
"733 500 OFFCURVE",
"669 434 CURVE SMOOTH",
"620 384 OFFCURVE",
"489 264 OFFCURVE",
"336 245 CURVE"
);
}
);
width = 493;
}
);
note = L;
unicode = 004C;
},
{
glyphname = M;
lastChange = "2021-05-20 11:16:38 +0000";
layers = (
{
anchors = (
{
name = bottom;
position = "{1301, -41}";
},
{
name = top;
position = "{1483, 544}";
}
);
layerId = "B8E2B95E-9E44-4943-9D49-9B6A251F446D";
paths = (
{
closed = 1;
nodes = (
"919 -160 OFFCURVE",
"926 -157 OFFCURVE",
"931 -149 CURVE SMOOTH",
"1035 18 OFFCURVE",
"1238 313 OFFCURVE",
"1406 404 CURVE SMOOTH",
"1419 411 OFFCURVE",
"1429 414 OFFCURVE",
"1436 414 CURVE SMOOTH",
"1451 414 OFFCURVE",
"1456 401 OFFCURVE",
"1456 387 CURVE SMOOTH",
"1456 373 OFFCURVE",
"1452 358 OFFCURVE",
"1448 350 CURVE SMOOTH",
"1413 275 OFFCURVE",
"1343 95 OFFCURVE",
"1343 80 CURVE SMOOTH",
"1343 66 OFFCURVE",
"1349 58 OFFCURVE",
"1357 58 CURVE SMOOTH",
"1362 58 OFFCURVE",
"1368 62 OFFCURVE",
"1373 69 CURVE SMOOTH",
"1385 87 OFFCURVE",
"1483 186 OFFCURVE",
"1520 211 CURVE SMOOTH",
"1527 216 OFFCURVE",
"1532 218 OFFCURVE",
"1537 218 CURVE SMOOTH",
"1554 218 OFFCURVE",
"1559 188 OFFCURVE",
"1565 149 CURVE SMOOTH",
"1581 60 OFFCURVE",
"1585 -7 OFFCURVE",
"1650 -7 CURVE SMOOTH",
"1673 -7 OFFCURVE",
"1704 1 OFFCURVE",
"1745 20 CURVE SMOOTH",
"1805 47 OFFCURVE",
"1869 95 OFFCURVE",
"1927 142 CURVE SMOOTH",
"1973 181 OFFCURVE",
"1995 216 OFFCURVE",
"1987 216 CURVE SMOOTH",
"1985 216 OFFCURVE",
"1982 214 OFFCURVE",
"1977 210 CURVE SMOOTH",
"1914 158 LINE SMOOTH",
"1859 112 OFFCURVE",
"1798 68 OFFCURVE",
"1742 40 CURVE SMOOTH",
"1723 31 OFFCURVE",
"1703 25 OFFCURVE",
"1685 25 CURVE SMOOTH",
"1667 25 OFFCURVE",
"1651 31 OFFCURVE",
"1642 45 CURVE SMOOTH",
"1621 75 OFFCURVE",
"1613 196 OFFCURVE",
"1594 240 CURVE SMOOTH",
"1588 254 OFFCURVE",
"1577 262 OFFCURVE",
"1564 262 CURVE SMOOTH",
"1557 262 OFFCURVE",
"1549 259 OFFCURVE",
"1542 254 CURVE SMOOTH",
"1521 240 OFFCURVE",
"1414 138 OFFCURVE",
"1400 129 CURVE",
"1400 169 OFFCURVE",
"1478 324 OFFCURVE",
"1503 370 CURVE SMOOTH",
"1510 384 OFFCURVE",
"1514 396 OFFCURVE",
"1514 406 CURVE SMOOTH",
"1514 430 OFFCURVE",
"1494 443 OFFCURVE",
"1464 443 CURVE SMOOTH",
"1458 443 OFFCURVE",
"1452 443 OFFCURVE",
"1445 442 CURVE SMOOTH",
"1312 424 OFFCURVE",
"1092 121 OFFCURVE",
"1025 30 CURVE",
"1034 56 OFFCURVE",
"1120 201 OFFCURVE",
"1177 313 CURVE SMOOTH",
"1213 383 OFFCURVE",
"1240 451 OFFCURVE",
"1240 504 CURVE SMOOTH",
"1240 570 OFFCURVE",
"1198 613 OFFCURVE",
"1082 613 CURVE SMOOTH",
"653 613 OFFCURVE",
"37 283 OFFCURVE",
"37 56 CURVE SMOOTH",
"37 -17 OFFCURVE",
"91 -43 OFFCURVE",
"156 -43 CURVE SMOOTH",
"188 -43 OFFCURVE",
"222 -37 OFFCURVE",
"253 -27 CURVE SMOOTH",
"259 -25 OFFCURVE",
"261 -22 OFFCURVE",
"261 -20 CURVE SMOOTH",
"261 -17 OFFCURVE",
"255 -14 OFFCURVE",
"247 -14 CURVE SMOOTH",
"244 -14 OFFCURVE",
"242 -14 OFFCURVE",
"239 -15 CURVE SMOOTH",
"213 -21 OFFCURVE",
"180 -29 OFFCURVE",
"150 -29 CURVE SMOOTH",
"108 -29 OFFCURVE",
"73 -13 OFFCURVE",
"73 44 CURVE SMOOTH",
"73 268 OFFCURVE",
"692 596 OFFCURVE",
"1077 596 CURVE SMOOTH",
"1164 596 OFFCURVE",
"1194 559 OFFCURVE",
"1194 505 CURVE SMOOTH",
"1194 455 OFFCURVE",
"1168 391 OFFCURVE",
"1138 330 CURVE SMOOTH",
"1046 146 OFFCURVE",
"886 -102 OFFCURVE",
"886 -134 CURVE SMOOTH",
"886 -149 OFFCURVE",
"899 -160 OFFCURVE",
"912 -160 CURVE SMOOTH"
);
}
);
width = 1733;
},
{
anchors = (
{
name = bottom;
position = "{1245, -147}";
},
{
name = top;
position = "{1479, 527}";
}
);
layerId = "A14CB8BB-4075-44A2-8ACC-F29FBF19C8BE";
paths = (
{
closed = 1;
nodes = (
"1040 18 OFFCURVE",
"1242 308 OFFCURVE",
"1407 397 CURVE SMOOTH",
"1420 404 OFFCURVE",
"1429 407 OFFCURVE",
"1435 407 CURVE SMOOTH",
"1445 407 OFFCURVE",
"1450 398 OFFCURVE",
"1450 385 CURVE SMOOTH",
"1450 372 OFFCURVE",
"1446 358 OFFCURVE",
"1442 351 CURVE SMOOTH",
"1408 277 OFFCURVE",
"1337 98 OFFCURVE",
"1337 82 CURVE SMOOTH",
"1337 65 OFFCURVE",
"1346 55 OFFCURVE",
"1356 55 CURVE SMOOTH",
"1363 55 OFFCURVE",
"1370 59 OFFCURVE",
"1376 68 CURVE SMOOTH",
"1388 85 OFFCURVE",
"1485 182 OFFCURVE",
"1521 207 CURVE SMOOTH",
"1527 211 OFFCURVE",
"1532 213 OFFCURVE",
"1535 213 CURVE SMOOTH",
"1540 213 OFFCURVE",
"1543 210 OFFCURVE",
"1545 205 CURVE SMOOTH",
"1562 171 OFFCURVE",
"1560 127 OFFCURVE",
"1569 88 CURVE SMOOTH",
"1573 69 OFFCURVE",
"1577 52 OFFCURVE",
"1582 38 CURVE SMOOTH",
"1594 9 OFFCURVE",
"1613 -9 OFFCURVE",
"1648 -9 CURVE SMOOTH",
"1672 -9 OFFCURVE",
"1703 0 OFFCURVE",
"1744 18 CURVE SMOOTH",
"1805 45 OFFCURVE",
"1869 92 OFFCURVE",
"1927 139 CURVE SMOOTH",
"1955 163 OFFCURVE",
"1975 185 OFFCURVE",
"1984 200 CURVE SMOOTH",
"1988 207 OFFCURVE",
"1989 213 OFFCURVE",
"1989 216 CURVE SMOOTH",
"1989 217 OFFCURVE",
"1989 218 OFFCURVE",
"1989 218 CURVE",
"1987 220 OFFCURVE",
"1980 222 OFFCURVE",
"1970 214 CURVE SMOOTH",
"1907 163 LINE SMOOTH",
"1852 118 OFFCURVE",
"1792 74 OFFCURVE",
"1737 47 CURVE SMOOTH",
"1719 38 OFFCURVE",
"1700 33 OFFCURVE",
"1683 33 CURVE SMOOTH",
"1666 33 OFFCURVE",
"1652 38 OFFCURVE",
"1644 50 CURVE SMOOTH",
"1605 103 OFFCURVE",
"1624 183 OFFCURVE",
"1599 244 CURVE SMOOTH",
"1592 260 OFFCURVE",
"1579 267 OFFCURVE",
"1565 267 CURVE SMOOTH",
"1556 267 OFFCURVE",
"1546 264 OFFCURVE",
"1537 258 CURVE SMOOTH",
"1527 250 OFFCURVE",
"1495 221 OFFCURVE",
"1464 194 CURVE SMOOTH",
"1448 180 OFFCURVE",
"1433 166 OFFCURVE",
"1421 155 CURVE SMOOTH",
"1415 150 OFFCURVE",
"1410 145 OFFCURVE",
"1405 142 CURVE",
"1416 192 OFFCURVE",
"1483 323 OFFCURVE",
"1506 366 CURVE SMOOTH",
"1513 380 OFFCURVE",
"1517 393 OFFCURVE",
"1517 404 CURVE SMOOTH",
"1517 432 OFFCURVE",
"1494 445 OFFCURVE",
"1462 445 CURVE SMOOTH",
"1456 445 OFFCURVE",
"1450 445 OFFCURVE",
"1443 444 CURVE SMOOTH",
"1375 435 OFFCURVE",
"1286 354 OFFCURVE",
"1207 266 CURVE SMOOTH",
"1149 202 OFFCURVE",
"1095 133 OFFCURVE",
"1057 83 CURVE",
"1066 99 OFFCURVE",
"1076 117 OFFCURVE",
"1088 138 CURVE SMOOTH",
"1118 191 OFFCURVE",
"1153 254 OFFCURVE",
"1182 310 CURVE SMOOTH",
"1217 379 OFFCURVE",
"1245 447 OFFCURVE",
"1245 500 CURVE SMOOTH",
"1245 570 OFFCURVE",
"1199 613 OFFCURVE",
"1083 613 CURVE SMOOTH",
"658 613 OFFCURVE",
"37 288 OFFCURVE",
"37 58 CURVE SMOOTH",
"37 -18 OFFCURVE",
"96 -44 OFFCURVE",
"161 -44 CURVE SMOOTH",
"194 -44 OFFCURVE",
"228 -39 OFFCURVE",
"260 -28 CURVE SMOOTH",
"265 -26 OFFCURVE",
"271 -22 OFFCURVE",
"271 -17 CURVE SMOOTH",
"271 -15 OFFCURVE",
"270 -12 OFFCURVE",
"267 -10 CURVE SMOOTH",
"263 -7 OFFCURVE",
"258 -6 OFFCURVE",
"252 -6 CURVE SMOOTH",
"249 -6 OFFCURVE",
"246 -6 OFFCURVE",
"243 -7 CURVE SMOOTH",
"217 -13 OFFCURVE",
"185 -21 OFFCURVE",
"155 -21 CURVE SMOOTH",
"115 -21 OFFCURVE",
"84 -6 OFFCURVE",
"84 46 CURVE SMOOTH",
"84 262 OFFCURVE",
"694 586 OFFCURVE",
"1078 586 CURVE SMOOTH",
"1162 586 OFFCURVE",
"1189 551 OFFCURVE",
"1189 501 CURVE SMOOTH",
"1189 453 OFFCURVE",
"1164 391 OFFCURVE",
"1134 331 CURVE SMOOTH",
"1088 240 OFFCURVE",
"1026 134 OFFCURVE",
"974 46 CURVE SMOOTH",
"924 -41 OFFCURVE",
"883 -112 OFFCURVE",
"883 -129 CURVE SMOOTH",
"883 -146 OFFCURVE",
"899 -161 OFFCURVE",
"914 -161 CURVE SMOOTH",
"923 -161 OFFCURVE",
"931 -157 OFFCURVE",
"937 -147 CURVE SMOOTH"
);
}
);
width = 1733;
}
);
note = M;
unicode = 004D;
},
{
glyphname = N;
lastChange = "2021-05-20 10:17:24 +0000";
layers = (
{
anchors = (
{
name = bottom;
position = "{665, -125}";
},
{
name = top;
position = "{1032, 574}";
}
);
layerId = "B8E2B95E-9E44-4943-9D49-9B6A251F446D";
paths = (
{
closed = 1;
nodes = (
"301 -165 OFFCURVE",
"367 -148 OFFCURVE",
"417 -125 CURVE SMOOTH",
"573 -50 OFFCURVE",
"768 210 OFFCURVE",
"871 437 CURVE",
"876 421 OFFCURVE",
"881 404 OFFCURVE",
"884 386 CURVE SMOOTH",
"889 353 OFFCURVE",
"891 318 OFFCURVE",
"891 282 CURVE SMOOTH",
"891 166 OFFCURVE",
"869 44 OFFCURVE",
"850 -30 CURVE SMOOTH",
"847 -40 OFFCURVE",
"852 -43 OFFCURVE",
"861 -43 CURVE SMOOTH",
"862 -43 OFFCURVE",
"863 -43 OFFCURVE",
"864 -43 CURVE",
"860 -61 OFFCURVE",
"858 -78 OFFCURVE",
"858 -94 CURVE SMOOTH",
"858 -101 OFFCURVE",
"858 -107 OFFCURVE",
"859 -114 CURVE SMOOTH",
"859 -118 OFFCURVE",
"863 -121 OFFCURVE",
"866 -121 CURVE SMOOTH",
"870 -121 OFFCURVE",
"873 -118 OFFCURVE",
"874 -110 CURVE SMOOTH",
"874 -88 OFFCURVE",
"877 -63 OFFCURVE",
"883 -35 CURVE",
"891 -30 OFFCURVE",
"898 -23 OFFCURVE",
"899 -18 CURVE SMOOTH",
"905 10 OFFCURVE",
"912 41 OFFCURVE",
"918 75 CURVE",
"924 90 OFFCURVE",
"930 105 OFFCURVE",
"937 120 CURVE SMOOTH",
"1012 279 OFFCURVE",
"1213 559 OFFCURVE",
"1346 559 CURVE SMOOTH",
"1374 559 OFFCURVE",
"1403 557 OFFCURVE",
"1398 526 CURVE SMOOTH",
"1397 518 OFFCURVE",
"1398 515 OFFCURVE",
"1400 515 CURVE SMOOTH",
"1403 515 OFFCURVE",
"1406 520 OFFCURVE",
"1408 524 CURVE SMOOTH",
"1410 530 OFFCURVE",
"1411 535 OFFCURVE",
"1411 540 CURVE SMOOTH",
"1411 567 OFFCURVE",
"1387 584 OFFCURVE",
"1363 586 CURVE SMOOTH",
"1187 601 OFFCURVE",
"1011 336 OFFCURVE",
"927 142 CURVE",
"931 181 OFFCURVE",
"934 220 OFFCURVE",
"934 260 CURVE SMOOTH",
"934 309 OFFCURVE",
"930 358 OFFCURVE",
"919 403 CURVE SMOOTH",
"912 431 OFFCURVE",
"901 455 OFFCURVE",
"888 476 CURVE",
"899 504 LINE SMOOTH",
"900 506 OFFCURVE",
"900 509 OFFCURVE",
"900 512 CURVE SMOOTH",
"900 521 OFFCURVE",
"897 530 OFFCURVE",
"893 530 CURVE SMOOTH",
"890 530 OFFCURVE",
"887 525 OFFCURVE",
"882 511 CURVE SMOOTH",
"876 493 LINE",
"828 551 OFFCURVE",
"752 574 OFFCURVE",
"666 574 CURVE SMOOTH",
"647 574 OFFCURVE",
"627 573 OFFCURVE",
"607 571 CURVE SMOOTH",
"440 554 OFFCURVE",
"280 477 OFFCURVE",
"145 372 CURVE SMOOTH",
"80 321 OFFCURVE",
"13 258 OFFCURVE",
"-2 208 CURVE SMOOTH",
"-3 205 OFFCURVE",
"-4 201 OFFCURVE",
"-4 197 CURVE SMOOTH",
"-4 187 OFFCURVE",
"0 175 OFFCURVE",
"4 161 CURVE SMOOTH",
"6 155 OFFCURVE",
"9 153 OFFCURVE",
"12 153 CURVE SMOOTH",
"16 153 OFFCURVE",
"18 157 OFFCURVE",
"18 159 CURVE SMOOTH",
"18 200 OFFCURVE",
"82 268 OFFCURVE",
"147 327 CURVE SMOOTH",
"274 442 OFFCURVE",
"431 536 OFFCURVE",
"613 558 CURVE SMOOTH",
"631 560 OFFCURVE",
"648 561 OFFCURVE",
"665 561 CURVE SMOOTH",
"751 561 OFFCURVE",
"824 532 OFFCURVE",
"862 458 CURVE",
"774 259 OFFCURVE",
"528 -26 OFFCURVE",
"385 -103 CURVE SMOOTH",
"339 -129 OFFCURVE",
"283 -148 OFFCURVE",
"224 -148 CURVE SMOOTH",
"207 -148 OFFCURVE",
"190 -147 OFFCURVE",
"173 -143 CURVE SMOOTH",
"110 -132 OFFCURVE",
"63 -97 OFFCURVE",
"41 -38 CURVE",
"38 -27 OFFCURVE",
"33 -21 OFFCURVE",
"30 -21 CURVE SMOOTH",
"28 -21 OFFCURVE",
"27 -24 OFFCURVE",
"27 -28 CURVE SMOOTH",
"27 -31 OFFCURVE",
"27 -35 OFFCURVE",
"29 -41 CURVE",
"53 -101 OFFCURVE",
"105 -138 OFFCURVE",
"166 -156 CURVE SMOOTH",
"189 -162 OFFCURVE",
"214 -165 OFFCURVE",
"239 -165 CURVE SMOOTH"
);
}
);
width = 993;
},
{
anchors = (
{
name = bottom;
position = "{652, -120}";
},
{
name = top;
position = "{1034, 550}";
}
);
layerId = "A14CB8BB-4075-44A2-8ACC-F29FBF19C8BE";
paths = (
{
closed = 1;
nodes = (
"305 -165 OFFCURVE",
"371 -149 OFFCURVE",
"421 -125 CURVE SMOOTH",
"575 -52 OFFCURVE",
"765 199 OFFCURVE",
"869 420 CURVE",
"872 408 OFFCURVE",
"876 396 OFFCURVE",
"878 383 CURVE SMOOTH",
"883 351 OFFCURVE",
"885 316 OFFCURVE",
"885 281 CURVE SMOOTH",
"885 167 OFFCURVE",
"863 47 OFFCURVE",
"844 -26 CURVE SMOOTH",
"841 -39 OFFCURVE",
"848 -44 OFFCURVE",
"857 -45 CURVE",
"854 -61 OFFCURVE",
"852 -76 OFFCURVE",
"852 -91 CURVE SMOOTH",
"852 -97 OFFCURVE",
"852 -104 OFFCURVE",
"853 -110 CURVE SMOOTH",
"854 -117 OFFCURVE",
"860 -122 OFFCURVE",
"865 -122 CURVE SMOOTH",
"871 -122 OFFCURVE",
"877 -117 OFFCURVE",
"878 -106 CURVE SMOOTH",
"878 -85 OFFCURVE",
"881 -61 OFFCURVE",
"886 -35 CURVE",
"894 -30 OFFCURVE",
"901 -23 OFFCURVE",
"902 -16 CURVE SMOOTH",
"908 12 OFFCURVE",
"915 42 OFFCURVE",
"921 75 CURVE",
"927 90 OFFCURVE",
"933 105 OFFCURVE",
"940 119 CURVE SMOOTH",
"1014 277 OFFCURVE",
"1212 549 OFFCURVE",
"1340 549 CURVE SMOOTH",
"1366 549 OFFCURVE",
"1392 550 OFFCURVE",
"1388 523 CURVE SMOOTH",
"1386 507 OFFCURVE",
"1388 502 OFFCURVE",
"1393 502 CURVE SMOOTH",
"1398 502 OFFCURVE",
"1405 510 OFFCURVE",
"1408 518 CURVE SMOOTH",
"1410 524 OFFCURVE",
"1411 530 OFFCURVE",
"1411 535 CURVE SMOOTH",
"1411 565 OFFCURVE",
"1384 584 OFFCURVE",
"1359 586 CURVE SMOOTH",
"1188 600 OFFCURVE",
"1020 360 OFFCURVE",
"933 172 CURVE",
"936 201 OFFCURVE",
"937 230 OFFCURVE",
"937 259 CURVE SMOOTH",
"937 308 OFFCURVE",
"933 357 OFFCURVE",
"922 402 CURVE SMOOTH",
"916 429 OFFCURVE",
"905 452 OFFCURVE",
"892 473 CURVE",
"902 499 LINE SMOOTH",
"903 502 OFFCURVE",
"904 505 OFFCURVE",
"904 509 CURVE SMOOTH",
"904 515 OFFCURVE",
"902 522 OFFCURVE",
"900 526 CURVE SMOOTH",
"898 528 OFFCURVE",
"895 530 OFFCURVE",
"892 530 CURVE SMOOTH",
"890 530 OFFCURVE",
"888 530 OFFCURVE",
"886 528 CURVE SMOOTH",
"882 525 OFFCURVE",
"879 518 OFFCURVE",
"876 509 CURVE SMOOTH",
"873 499 LINE",
"824 553 OFFCURVE",
"749 574 OFFCURVE",
"666 574 CURVE SMOOTH",
"647 574 OFFCURVE",
"627 573 OFFCURVE",
"607 571 CURVE SMOOTH",
"440 554 OFFCURVE",
"280 478 OFFCURVE",
"146 374 CURVE SMOOTH",
"81 324 OFFCURVE",
"14 260 OFFCURVE",
"-2 209 CURVE SMOOTH",
"-3 205 OFFCURVE",
"-4 201 OFFCURVE",
"-4 197 CURVE SMOOTH",
"-4 186 OFFCURVE",
"0 174 OFFCURVE",
"4 160 CURVE SMOOTH",
"7 152 OFFCURVE",
"12 149 OFFCURVE",
"17 149 CURVE SMOOTH",
"23 149 OFFCURVE",
"28 154 OFFCURVE",
"28 160 CURVE SMOOTH",
"28 197 OFFCURVE",
"90 263 OFFCURVE",
"154 322 CURVE SMOOTH",
"280 435 OFFCURVE",
"435 527 OFFCURVE",
"614 549 CURVE SMOOTH",
"632 551 OFFCURVE",
"649 551 OFFCURVE",
"665 551 CURVE SMOOTH",
"749 551 OFFCURVE",
"819 524 OFFCURVE",
"855 455 CURVE",
"768 259 OFFCURVE",
"525 -19 OFFCURVE",
"385 -95 CURVE SMOOTH",
"339 -119 OFFCURVE",
"285 -138 OFFCURVE",
"227 -138 CURVE SMOOTH",
"211 -138 OFFCURVE",
"194 -137 OFFCURVE",
"178 -134 CURVE SMOOTH",
"117 -122 OFFCURVE",
"72 -89 OFFCURVE",
"50 -33 CURVE",
"46 -20 OFFCURVE",
"39 -14 OFFCURVE",
"34 -14 CURVE SMOOTH",
"34 -14 OFFCURVE",
"33 -14 OFFCURVE",
"33 -14 CURVE SMOOTH",
"30 -14 OFFCURVE",
"26 -18 OFFCURVE",
"26 -26 CURVE SMOOTH",
"26 -29 OFFCURVE",
"27 -34 OFFCURVE",
"29 -39 CURVE SMOOTH",
"52 -101 OFFCURVE",
"107 -138 OFFCURVE",
"168 -156 CURVE SMOOTH",
"192 -163 OFFCURVE",
"217 -165 OFFCURVE",
"242 -165 CURVE SMOOTH"
);
}
);
width = 993;
}
);
note = N;
unicode = 004E;
},
{
glyphname = O;
lastChange = "2021-05-20 10:17:24 +0000";
layers = (
{
anchors = (
{
name = bottom;
position = "{632, -48}";
},
{
name = center;
position = "{545, 353}";
},
{
name = ogonek;
position = "{633, -48}";
},
{
name = top;
position = "{1088, 605}";
},
{
name = topleft;
position = "{20, 705}";
},
{
name = topright;
position = "{1163, 470}";
}
);
layerId = "B8E2B95E-9E44-4943-9D49-9B6A251F446D";
paths = (
{
closed = 1;
nodes = (
"851 -50 OFFCURVE",
"1208 159 OFFCURVE",
"1208 412 CURVE SMOOTH",
"1208 630 OFFCURVE",
"881 657 OFFCURVE",
"712 657 CURVE SMOOTH",
"372 657 OFFCURVE",
"-6 505 OFFCURVE",
"-6 283 CURVE SMOOTH",
"-6 222 OFFCURVE",
"46 162 OFFCURVE",
"136 137 CURVE SMOOTH",
"157 132 OFFCURVE",
"179 129 OFFCURVE",
"201 129 CURVE SMOOTH",
"211 129 OFFCURVE",
"221 130 OFFCURVE",
"231 131 CURVE SMOOTH",
"239 133 OFFCURVE",
"243 135 OFFCURVE",
"243 137 CURVE SMOOTH",
"243 139 OFFCURVE",
"237 141 OFFCURVE",
"228 141 CURVE SMOOTH",
"227 141 OFFCURVE",
"225 141 OFFCURVE",
"224 141 CURVE SMOOTH",
"202 140 OFFCURVE",
"154 150 OFFCURVE",
"128 158 CURVE SMOOTH",
"55 180 OFFCURVE",
"37 232 OFFCURVE",
"37 282 CURVE SMOOTH",
"37 515 OFFCURVE",
"414 635 OFFCURVE",
"710 635 CURVE SMOOTH",
"938 635 OFFCURVE",
"1154 578 OFFCURVE",
"1154 406 CURVE SMOOTH",
"1154 165 OFFCURVE",
"781 -32 OFFCURVE",
"632 -32 CURVE SMOOTH",
"559 -32 OFFCURVE",
"507 6 OFFCURVE",
"507 77 CURVE SMOOTH",
"507 133 OFFCURVE",
"540 210 OFFCURVE",
"622 305 CURVE SMOOTH",
"696 390 OFFCURVE",
"862 500 OFFCURVE",
"977 500 CURVE SMOOTH",
"1013 500 OFFCURVE",
"1028 492 OFFCURVE",
"1028 477 CURVE SMOOTH",
"1028 470 OFFCURVE",
"1025 463 OFFCURVE",
"1020 454 CURVE",
"1008 440 LINE SMOOTH",
"1003 435 OFFCURVE",
"1012 433 OFFCURVE",
"1014 435 CURVE",
"1032 447 OFFCURVE",
"1051 459 OFFCURVE",
"1058 480 CURVE SMOOTH",
"1059 483 OFFCURVE",
"1059 486 OFFCURVE",
"1059 489 CURVE SMOOTH",
"1059 513 OFFCURVE",
"1021 522 OFFCURVE",
"988 522 CURVE SMOOTH",
"852 522 OFFCURVE",
"691 431 OFFCURVE",
"607 352 CURVE SMOOTH",
"523 272 OFFCURVE",
"477 174 OFFCURVE",
"477 94 CURVE SMOOTH",
"477 12 OFFCURVE",
"526 -50 OFFCURVE",
"633 -50 CURVE SMOOTH"
);
}
);
width = 1089;
},
{
anchors = (
{
name = bottom;
position = "{545, -15}";
},
{
name = center;
position = "{545, 337}";
},
{
name = ogonek;
position = "{554, -24}";
},
{
name = top;
position = "{1147, 590}";
},
{
name = topleft;
position = "{20, 673}";
},
{
name = topright;
position = "{1159, 484}";
}
);
layerId = "A14CB8BB-4075-44A2-8ACC-F29FBF19C8BE";
paths = (
{
closed = 1;
nodes = (
"851 -50 OFFCURVE",
"1209 157 OFFCURVE",
"1209 410 CURVE SMOOTH",
"1209 631 OFFCURVE",
"877 657 OFFCURVE",
"712 657 CURVE SMOOTH",
"377 657 OFFCURVE",
"-5 507 OFFCURVE",
"-5 282 CURVE SMOOTH",
"-5 219 OFFCURVE",
"50 159 OFFCURVE",
"140 135 CURVE SMOOTH",
"161 129 OFFCURVE",
"183 127 OFFCURVE",
"205 127 CURVE SMOOTH",
"215 127 OFFCURVE",
"226 128 OFFCURVE",
"236 129 CURVE SMOOTH",
"241 130 OFFCURVE",
"245 131 OFFCURVE",
"248 133 CURVE SMOOTH",
"250 134 OFFCURVE",
"254 139 OFFCURVE",
"250 143 CURVE SMOOTH",
"248 146 OFFCURVE",
"239 148 OFFCURVE",
"225 148 CURVE SMOOTH",
"203 148 OFFCURVE",
"159 157 OFFCURVE",
"134 165 CURVE SMOOTH",
"65 186 OFFCURVE",
"48 234 OFFCURVE",
"48 282 CURVE SMOOTH",
"48 507 OFFCURVE",
"415 625 OFFCURVE",
"710 625 CURVE SMOOTH",
"938 625 OFFCURVE",
"1146 569 OFFCURVE",
"1146 405 CURVE SMOOTH",
"1146 171 OFFCURVE",
"780 -22 OFFCURVE",
"633 -22 CURVE SMOOTH",
"562 -22 OFFCURVE",
"514 14 OFFCURVE",
"514 80 CURVE SMOOTH",
"514 134 OFFCURVE",
"545 209 OFFCURVE",
"627 302 CURVE SMOOTH",
"699 385 OFFCURVE",
"862 492 OFFCURVE",
"974 492 CURVE SMOOTH",
"1008 492 OFFCURVE",
"1021 487 OFFCURVE",
"1021 474 CURVE SMOOTH",
"1021 469 OFFCURVE",
"1018 462 OFFCURVE",
"1014 455 CURVE",
"1002 441 LINE SMOOTH",
"995 432 OFFCURVE",
"1002 428 OFFCURVE",
"1009 428 CURVE SMOOTH",
"1011 428 OFFCURVE",
"1013 428 OFFCURVE",
"1014 429 CURVE SMOOTH",
"1033 441 OFFCURVE",
"1053 454 OFFCURVE",
"1060 476 CURVE SMOOTH",
"1061 480 OFFCURVE",
"1062 483 OFFCURVE",
"1062 487 CURVE SMOOTH",
"1062 510 OFFCURVE",
"1032 521 OFFCURVE",
"1007 523 CURVE SMOOTH",
"866 534 OFFCURVE",
"692 437 OFFCURVE",
"605 355 CURVE SMOOTH",
"520 276 OFFCURVE",
"474 178 OFFCURVE",
"474 97 CURVE SMOOTH",
"474 13 OFFCURVE",
"525 -50 OFFCURVE",
"634 -50 CURVE SMOOTH"
);
}
);
width = 1089;
}
);
note = O;
unicode = 004F;
},
{
glyphname = P;
lastChange = "2021-05-20 10:17:24 +0000";
layers = (
{
anchors = (
{
name = bottom;
position = "{876, 0}";
},
{
name = top;
position = "{1286, 602}";
}
);
layerId = "B8E2B95E-9E44-4943-9D49-9B6A251F446D";
paths = (
{
closed = 1;
nodes = (
"255 155 OFFCURVE",
"264 155 OFFCURVE",
"272 156 CURVE SMOOTH",
"278 157 OFFCURVE",
"280 158 OFFCURVE",
"280 160 CURVE SMOOTH",
"280 165 OFFCURVE",
"270 170 OFFCURVE",
"259 170 CURVE SMOOTH",
"198 171 OFFCURVE",
"102 172 OFFCURVE",
"102 253 CURVE SMOOTH",
"102 462 OFFCURVE",
"617 568 OFFCURVE",
"1058 568 CURVE SMOOTH",
"1105 568 OFFCURVE",
"1151 566 OFFCURVE",
"1196 564 CURVE SMOOTH",
"1327 557 OFFCURVE",
"1536 521 OFFCURVE",
"1536 447 CURVE SMOOTH",
"1536 421 OFFCURVE",
"1510 389 OFFCURVE",
"1445 353 CURVE SMOOTH",
"1340 295 OFFCURVE",
"1197 262 OFFCURVE",
"1095 262 CURVE SMOOTH",
"1078 262 OFFCURVE",
"1062 263 OFFCURVE",
"1048 265 CURVE SMOOTH",
"1039 266 OFFCURVE",
"1022 258 OFFCURVE",
"1022 252 CURVE SMOOTH",
"1022 247 OFFCURVE",
"1032 244 OFFCURVE",
"1064 245 CURVE SMOOTH",
"1202 251 OFFCURVE",
"1366 274 OFFCURVE",
"1479 327 CURVE SMOOTH",
"1568 368 OFFCURVE",
"1605 406 OFFCURVE",
"1605 439 CURVE SMOOTH",
"1605 521 OFFCURVE",
"1382 576 OFFCURVE",
"1177 583 CURVE SMOOTH",
"1129 585 OFFCURVE",
"1081 586 OFFCURVE",
"1034 586 CURVE SMOOTH",
"515 586 OFFCURVE",
"51 476 OFFCURVE",
"67 263 CURVE SMOOTH",
"72 184 OFFCURVE",
"162 155 OFFCURVE",
"247 155 CURVE SMOOTH"
);
},
{
closed = 1;
nodes = (
"901 -23 OFFCURVE",
"904 -19 OFFCURVE",
"904 -15 CURVE SMOOTH",
"904 -11 OFFCURVE",
"902 -7 OFFCURVE",
"899 -6 CURVE SMOOTH",
"885 1 OFFCURVE",
"883 18 OFFCURVE",
"883 31 CURVE SMOOTH",
"883 121 OFFCURVE",
"1058 347 OFFCURVE",
"1148 398 CURVE SMOOTH",
"1151 400 OFFCURVE",
"1156 404 OFFCURVE",
"1156 413 CURVE SMOOTH",
"1156 426 OFFCURVE",
"1135 443 OFFCURVE",
"1120 443 CURVE SMOOTH",
"1077 443 OFFCURVE",
"1011 360 OFFCURVE",
"949 266 CURVE SMOOTH",
"897 188 OFFCURVE",
"855 95 OFFCURVE",
"855 40 CURVE SMOOTH",
"855 4 OFFCURVE",
"868 -19 OFFCURVE",
"895 -22 CURVE SMOOTH"
);
}
);
width = 1307;
},
{
anchors = (
{
name = bottom;
position = "{893, -22}";
},
{
name = top;
position = "{1288, 585}";
}
);
layerId = "A14CB8BB-4075-44A2-8ACC-F29FBF19C8BE";
paths = (
{
closed = 1;
nodes = (
"281 154 OFFCURVE",
"288 157 OFFCURVE",
"288 162 CURVE SMOOTH",
"288 164 OFFCURVE",
"287 166 OFFCURVE",
"284 169 CURVE SMOOTH",
"280 173 OFFCURVE",
"271 177 OFFCURVE",
"262 177 CURVE SMOOTH",
"230 177 OFFCURVE",
"195 178 OFFCURVE",
"165 187 CURVE SMOOTH",
"133 197 OFFCURVE",
"111 215 OFFCURVE",
"111 254 CURVE SMOOTH",
"111 453 OFFCURVE",
"614 558 OFFCURVE",
"1056 558 CURVE SMOOTH",
"1102 558 OFFCURVE",
"1148 557 OFFCURVE",
"1192 555 CURVE SMOOTH",
"1326 548 OFFCURVE",
"1526 511 OFFCURVE",
"1526 444 CURVE SMOOTH",
"1526 422 OFFCURVE",
"1502 392 OFFCURVE",
"1438 356 CURVE SMOOTH",
"1334 299 OFFCURVE",
"1193 267 OFFCURVE",
"1092 267 CURVE SMOOTH",
"1076 267 OFFCURVE",
"1060 268 OFFCURVE",
"1046 270 CURVE SMOOTH",
"1037 271 OFFCURVE",
"1015 264 OFFCURVE",
"1015 252 CURVE SMOOTH",
"1015 247 OFFCURVE",
"1025 239 OFFCURVE",
"1062 241 CURVE SMOOTH",
"1199 246 OFFCURVE",
"1363 270 OFFCURVE",
"1476 322 CURVE SMOOTH",
"1564 362 OFFCURVE",
"1604 400 OFFCURVE",
"1604 436 CURVE SMOOTH",
"1604 523 OFFCURVE",
"1375 576 OFFCURVE",
"1174 583 CURVE SMOOTH",
"1126 585 OFFCURVE",
"1078 586 OFFCURVE",
"1032 586 CURVE SMOOTH",
"527 586 OFFCURVE",
"66 482 OFFCURVE",
"66 273 CURVE SMOOTH",
"66 182 OFFCURVE",
"162 152 OFFCURVE",
"250 152 CURVE SMOOTH",
"258 152 OFFCURVE",
"267 152 OFFCURVE",
"275 153 CURVE SMOOTH"
);
},
{
closed = 1;
nodes = (
"903 -23 OFFCURVE",
"908 -17 OFFCURVE",
"908 -10 CURVE SMOOTH",
"908 -5 OFFCURVE",
"905 1 OFFCURVE",
"900 3 CURVE SMOOTH",
"889 8 OFFCURVE",
"887 22 OFFCURVE",
"887 35 CURVE SMOOTH",
"887 121 OFFCURVE",
"1059 342 OFFCURVE",
"1147 392 CURVE",
"1152 394 OFFCURVE",
"1158 400 OFFCURVE",
"1158 411 CURVE SMOOTH",
"1158 427 OFFCURVE",
"1134 445 OFFCURVE",
"1117 445 CURVE SMOOTH",
"1071 445 OFFCURVE",
"1004 360 OFFCURVE",
"943 269 CURVE SMOOTH",
"892 192 OFFCURVE",
"849 100 OFFCURVE",
"849 44 CURVE SMOOTH",
"849 8 OFFCURVE",
"862 -19 OFFCURVE",
"893 -22 CURVE SMOOTH"
);
}
);
width = 1307;
}
);
note = P;
unicode = 0050;
},
